<mxfile host="app.diagrams.net" agent="Mozilla/5.0 (Macintosh; Intel Mac OS X 10_15_7) AppleWebKit/537.36 (KHTML, like Gecko) Chrome/134.0.0.0 Safari/537.36" version="26.1.1">
  <diagram name="Page-1" id="0wWlxawOv4QefYXzw7T2">
    <mxGraphModel dx="2560" dy="1083" grid="1" gridSize="10" guides="1" tooltips="1" connect="1" arrows="1" fold="1" page="1" pageScale="1" pageWidth="850" pageHeight="1100" math="0" shadow="0">
      <root>
        <mxCell id="0" />
        <mxCell id="1" parent="0" />
        <mxCell id="J4eak5XjC7vP3URmlibT-45" value="" style="rounded=1;whiteSpace=wrap;html=1;dashed=1;dashPattern=8 8;" vertex="1" parent="1">
          <mxGeometry x="-530" y="320" width="660" height="439.5" as="geometry" />
        </mxCell>
        <mxCell id="J4eak5XjC7vP3URmlibT-1" value="" style="rounded=1;whiteSpace=wrap;html=1;" vertex="1" parent="1">
          <mxGeometry x="190" y="310.5" width="770" height="439.5" as="geometry" />
        </mxCell>
        <mxCell id="J4eak5XjC7vP3URmlibT-22" value="" style="rounded=1;whiteSpace=wrap;html=1;fillColor=#f5f5f5;fontColor=#333333;strokeColor=#666666;" vertex="1" parent="1">
          <mxGeometry x="210" y="408" width="690" height="332" as="geometry" />
        </mxCell>
        <mxCell id="J4eak5XjC7vP3URmlibT-28" value="" style="rounded=1;whiteSpace=wrap;html=1;" vertex="1" parent="1">
          <mxGeometry x="520" y="414" width="230" height="290" as="geometry" />
        </mxCell>
        <mxCell id="J4eak5XjC7vP3URmlibT-3" value="" style="aspect=fixed;sketch=0;html=1;dashed=0;whitespace=wrap;verticalLabelPosition=bottom;verticalAlign=top;fillColor=#2875E2;strokeColor=#ffffff;points=[[0.005,0.63,0],[0.1,0.2,0],[0.9,0.2,0],[0.5,0,0],[0.995,0.63,0],[0.72,0.99,0],[0.5,1,0],[0.28,0.99,0]];shape=mxgraph.kubernetes.icon2;prIcon=ns" vertex="1" parent="1">
          <mxGeometry x="860" y="390" width="50" height="48" as="geometry" />
        </mxCell>
        <mxCell id="J4eak5XjC7vP3URmlibT-39" style="edgeStyle=orthogonalEdgeStyle;rounded=0;orthogonalLoop=1;jettySize=auto;html=1;exitX=0.5;exitY=1;exitDx=0;exitDy=0;entryX=0;entryY=0.5;entryDx=0;entryDy=0;" edge="1" parent="1" source="J4eak5XjC7vP3URmlibT-7" target="J4eak5XjC7vP3URmlibT-20">
          <mxGeometry relative="1" as="geometry" />
        </mxCell>
        <mxCell id="J4eak5XjC7vP3URmlibT-40" style="edgeStyle=orthogonalEdgeStyle;rounded=0;orthogonalLoop=1;jettySize=auto;html=1;exitX=0.5;exitY=1;exitDx=0;exitDy=0;entryX=0;entryY=0.5;entryDx=0;entryDy=0;" edge="1" parent="1" source="J4eak5XjC7vP3URmlibT-7" target="J4eak5XjC7vP3URmlibT-19">
          <mxGeometry relative="1" as="geometry" />
        </mxCell>
        <mxCell id="J4eak5XjC7vP3URmlibT-41" style="edgeStyle=orthogonalEdgeStyle;rounded=0;orthogonalLoop=1;jettySize=auto;html=1;exitX=0.5;exitY=1;exitDx=0;exitDy=0;" edge="1" parent="1" source="J4eak5XjC7vP3URmlibT-7" target="J4eak5XjC7vP3URmlibT-18">
          <mxGeometry relative="1" as="geometry">
            <Array as="points">
              <mxPoint x="315" y="470" />
            </Array>
          </mxGeometry>
        </mxCell>
        <mxCell id="J4eak5XjC7vP3URmlibT-49" style="edgeStyle=orthogonalEdgeStyle;rounded=0;orthogonalLoop=1;jettySize=auto;html=1;exitX=0;exitY=0.5;exitDx=0;exitDy=0;entryX=1;entryY=0.5;entryDx=0;entryDy=0;" edge="1" parent="1" source="J4eak5XjC7vP3URmlibT-7" target="J4eak5XjC7vP3URmlibT-47">
          <mxGeometry relative="1" as="geometry" />
        </mxCell>
        <mxCell id="J4eak5XjC7vP3URmlibT-7" value="core" style="rounded=1;whiteSpace=wrap;html=1;fillColor=#f5f5f5;fontColor=#333333;strokeColor=#666666;" vertex="1" parent="1">
          <mxGeometry x="240" y="430" width="150" height="50" as="geometry" />
        </mxCell>
        <mxCell id="J4eak5XjC7vP3URmlibT-2" value="" style="aspect=fixed;sketch=0;html=1;dashed=0;whitespace=wrap;verticalLabelPosition=bottom;verticalAlign=top;fillColor=#2875E2;strokeColor=#ffffff;points=[[0.005,0.63,0],[0.1,0.2,0],[0.9,0.2,0],[0.5,0,0],[0.995,0.63,0],[0.72,0.99,0],[0.5,1,0],[0.28,0.99,0]];shape=mxgraph.kubernetes.icon2;prIcon=pod" vertex="1" parent="1">
          <mxGeometry x="350" y="410" width="50" height="48" as="geometry" />
        </mxCell>
        <mxCell id="J4eak5XjC7vP3URmlibT-17" style="edgeStyle=orthogonalEdgeStyle;rounded=0;orthogonalLoop=1;jettySize=auto;html=1;exitX=0.5;exitY=1;exitDx=0;exitDy=0;" edge="1" parent="1" source="J4eak5XjC7vP3URmlibT-12" target="J4eak5XjC7vP3URmlibT-7">
          <mxGeometry relative="1" as="geometry" />
        </mxCell>
        <mxCell id="J4eak5XjC7vP3URmlibT-12" value="cloudflared" style="rounded=1;whiteSpace=wrap;html=1;fillColor=#f5f5f5;fontColor=#333333;strokeColor=#666666;" vertex="1" parent="1">
          <mxGeometry x="240" y="340" width="150" height="50" as="geometry" />
        </mxCell>
        <mxCell id="J4eak5XjC7vP3URmlibT-11" value="" style="shape=image;verticalLabelPosition=bottom;labelBackgroundColor=default;verticalAlign=top;aspect=fixed;imageAspect=0;editableCssRules=.*;image=data:image/svg+xml,PHN2ZyB4bWxucz0iaHR0cDovL3d3dy53My5vcmcvMjAwMC9zdmciIHZpZXdCb3g9IjAgMCAxMDI0IDEwMjQiIHdpZHRoPSIxMDI0IiBoZWlnaHQ9IjEwMjQiPjxjaXJjbGUgcj0iNTEyIiBmaWxsPSIjZjM4MDIwIiBjeT0iNTEyIiBjeD0iNTEyIi8+PHBhdGggZmlsbD0iI2ZmZiIgZD0ibTYwOC4yIDU5Mi40YzMuMS0xMC44IDEuOS0yMC43LTMuMy0yOC4xLTQuOC02LjctMTIuOS0xMC42LTIyLjYtMTEuMWwtMTg0LjctMi40Yy0xLjEgMC0yLjItLjYtMi44LTEuNXMtLjctMi4xLS40LTMuM2MuNi0xLjggMi40LTMuMiA0LjMtMy4zbDE4Ni40LTIuNGMyMi4xLTEgNDYuMS0xOC45IDU0LjUtNDAuOGwxMC42LTI3LjhjLjUtMS4yLjYtMi40LjMtMy42LTEyLTU0LjMtNjAuNS05NC44LTExOC40LTk0LjgtNTMuNCAwLTk4LjcgMzQuNS0xMTQuOSA4Mi40LTEwLjUtNy44LTIzLjktMTItMzguMy0xMC42LTI1LjcgMi41LTQ2LjIgMjMuMS00OC44IDQ4LjgtLjYgNi42LS4xIDEzLjEgMS40IDE5LjEtNDEuOSAxLjItNzUuMyAzNS40LTc1LjMgNzcuNiAwIDMuNy4zIDcuNS44IDExLjIuMyAxLjggMS44IDMuMSAzLjYgMy4xaDM0MC45YzEuOSAwIDMuOC0xLjQgNC4zLTMuM3ptNTguOC0xMTguN2MtMS42IDAtMy40IDAtNS4xLjItMS4yIDAtMi4yLjktMi43IDIuMWwtNy4yIDI1Yy0zLjEgMTAuOC0yIDIwLjcgMy4zIDI4LjEgNC44IDYuNyAxMi45IDEwLjYgMjIuNyAxMS4xbDM5LjMgMi40YzEuMiAwIDIuMy42IDIuOCAxLjUuNi45LjcgMi4zLjUgMy4zLS42IDEuOC0yLjQgMy4yLTQuNCAzLjNsLTQxIDIuNGMtMjIuMiAxLTQ2IDE4LjktNTQuNSA0MC44bC0zIDcuNmMtLjYgMS41LjUgMyAyLjEgM2gxNDAuOGMxLjYgMCAzLjEtMSAzLjYtMi43IDIuNC04LjcgMy43LTE3LjkgMy43LTI3LjMgMC01NS41LTQ1LjMtMTAwLjgtMTAxLTEwMC44Ii8+PC9zdmc+;" vertex="1" parent="1">
          <mxGeometry x="360" y="320" width="50" height="50" as="geometry" />
        </mxCell>
        <mxCell id="J4eak5XjC7vP3URmlibT-15" style="edgeStyle=orthogonalEdgeStyle;rounded=0;orthogonalLoop=1;jettySize=auto;html=1;exitX=0.5;exitY=1;exitDx=0;exitDy=0;" edge="1" parent="1" source="J4eak5XjC7vP3URmlibT-13" target="J4eak5XjC7vP3URmlibT-12">
          <mxGeometry relative="1" as="geometry" />
        </mxCell>
        <mxCell id="J4eak5XjC7vP3URmlibT-16" value="REST" style="edgeLabel;html=1;align=center;verticalAlign=middle;resizable=0;points=[];" vertex="1" connectable="0" parent="J4eak5XjC7vP3URmlibT-15">
          <mxGeometry x="-0.1455" relative="1" as="geometry">
            <mxPoint as="offset" />
          </mxGeometry>
        </mxCell>
        <mxCell id="J4eak5XjC7vP3URmlibT-13" value="grammr-ui" style="rounded=1;whiteSpace=wrap;html=1;" vertex="1" parent="1">
          <mxGeometry x="190" y="184" width="250" height="60" as="geometry" />
        </mxCell>
        <mxCell id="J4eak5XjC7vP3URmlibT-14" value="" style="aspect=fixed;sketch=0;html=1;dashed=0;whitespace=wrap;verticalLabelPosition=bottom;verticalAlign=top;fillColor=#2875E2;strokeColor=#ffffff;points=[[0.005,0.63,0],[0.1,0.2,0],[0.9,0.2,0],[0.5,0,0],[0.995,0.63,0],[0.72,0.99,0],[0.5,1,0],[0.28,0.99,0]];shape=mxgraph.kubernetes.icon2;kubernetesLabel=1;prIcon=user" vertex="1" parent="1">
          <mxGeometry x="410" y="160" width="50" height="48" as="geometry" />
        </mxCell>
        <mxCell id="J4eak5XjC7vP3URmlibT-18" value="inflection-ru" style="rounded=1;whiteSpace=wrap;html=1;fillColor=#f5f5f5;fontColor=#333333;strokeColor=#666666;" vertex="1" parent="1">
          <mxGeometry x="550" y="445" width="150" height="50" as="geometry" />
        </mxCell>
        <mxCell id="J4eak5XjC7vP3URmlibT-19" value="morphology-en" style="rounded=1;whiteSpace=wrap;html=1;fillColor=#f5f5f5;fontColor=#333333;strokeColor=#666666;" vertex="1" parent="1">
          <mxGeometry x="550" y="505" width="150" height="50" as="geometry" />
        </mxCell>
        <mxCell id="J4eak5XjC7vP3URmlibT-20" value="anki" style="rounded=1;whiteSpace=wrap;html=1;fillColor=#f5f5f5;fontColor=#333333;strokeColor=#666666;" vertex="1" parent="1">
          <mxGeometry x="550" y="565" width="150" height="50" as="geometry" />
        </mxCell>
        <mxCell id="J4eak5XjC7vP3URmlibT-21" value="..." style="rounded=1;whiteSpace=wrap;html=1;fillColor=#f5f5f5;fontColor=#333333;strokeColor=#666666;" vertex="1" parent="1">
          <mxGeometry x="550" y="625" width="150" height="50" as="geometry" />
        </mxCell>
        <mxCell id="J4eak5XjC7vP3URmlibT-24" value="" style="aspect=fixed;sketch=0;html=1;dashed=0;whitespace=wrap;verticalLabelPosition=bottom;verticalAlign=top;fillColor=#2875E2;strokeColor=#ffffff;points=[[0.005,0.63,0],[0.1,0.2,0],[0.9,0.2,0],[0.5,0,0],[0.995,0.63,0],[0.72,0.99,0],[0.5,1,0],[0.28,0.99,0]];shape=mxgraph.kubernetes.icon2;prIcon=pod" vertex="1" parent="1">
          <mxGeometry x="670" y="426" width="50" height="48" as="geometry" />
        </mxCell>
        <mxCell id="J4eak5XjC7vP3URmlibT-25" value="" style="aspect=fixed;sketch=0;html=1;dashed=0;whitespace=wrap;verticalLabelPosition=bottom;verticalAlign=top;fillColor=#2875E2;strokeColor=#ffffff;points=[[0.005,0.63,0],[0.1,0.2,0],[0.9,0.2,0],[0.5,0,0],[0.995,0.63,0],[0.72,0.99,0],[0.5,1,0],[0.28,0.99,0]];shape=mxgraph.kubernetes.icon2;prIcon=pod" vertex="1" parent="1">
          <mxGeometry x="670" y="494.25" width="50" height="48" as="geometry" />
        </mxCell>
        <mxCell id="J4eak5XjC7vP3URmlibT-26" value="" style="aspect=fixed;sketch=0;html=1;dashed=0;whitespace=wrap;verticalLabelPosition=bottom;verticalAlign=top;fillColor=#2875E2;strokeColor=#ffffff;points=[[0.005,0.63,0],[0.1,0.2,0],[0.9,0.2,0],[0.5,0,0],[0.995,0.63,0],[0.72,0.99,0],[0.5,1,0],[0.28,0.99,0]];shape=mxgraph.kubernetes.icon2;prIcon=pod" vertex="1" parent="1">
          <mxGeometry x="670" y="555" width="50" height="48" as="geometry" />
        </mxCell>
        <mxCell id="J4eak5XjC7vP3URmlibT-27" value="" style="aspect=fixed;sketch=0;html=1;dashed=0;whitespace=wrap;verticalLabelPosition=bottom;verticalAlign=top;fillColor=#2875E2;strokeColor=#ffffff;points=[[0.005,0.63,0],[0.1,0.2,0],[0.9,0.2,0],[0.5,0,0],[0.995,0.63,0],[0.72,0.99,0],[0.5,1,0],[0.28,0.99,0]];shape=mxgraph.kubernetes.icon2;prIcon=pod" vertex="1" parent="1">
          <mxGeometry x="670" y="615" width="50" height="48" as="geometry" />
        </mxCell>
        <mxCell id="J4eak5XjC7vP3URmlibT-31" value="Sidecars" style="rounded=1;whiteSpace=wrap;html=1;" vertex="1" parent="1">
          <mxGeometry x="580" y="410" width="100" height="20" as="geometry" />
        </mxCell>
        <mxCell id="J4eak5XjC7vP3URmlibT-32" value="grammr" style="rounded=1;whiteSpace=wrap;html=1;" vertex="1" parent="1">
          <mxGeometry x="760" y="404" width="100" height="20" as="geometry" />
        </mxCell>
        <mxCell id="J4eak5XjC7vP3URmlibT-71" style="edgeStyle=orthogonalEdgeStyle;rounded=0;orthogonalLoop=1;jettySize=auto;html=1;exitX=0.5;exitY=1;exitDx=0;exitDy=0;entryX=0.5;entryY=0;entryDx=0;entryDy=0;" edge="1" parent="1" source="J4eak5XjC7vP3URmlibT-33" target="J4eak5XjC7vP3URmlibT-70">
          <mxGeometry relative="1" as="geometry" />
        </mxCell>
        <mxCell id="J4eak5XjC7vP3URmlibT-33" value="PostgreSQL Database" style="rounded=1;whiteSpace=wrap;html=1;" vertex="1" parent="1">
          <mxGeometry x="250" y="625" width="230" height="51.75" as="geometry" />
        </mxCell>
        <mxCell id="J4eak5XjC7vP3URmlibT-23" value="" style="image;aspect=fixed;html=1;points=[];align=center;fontSize=12;image=img/lib/azure2/databases/Azure_Database_PostgreSQL_Server.svg;" vertex="1" parent="1">
          <mxGeometry x="450" y="600" width="39.19" height="52.25" as="geometry" />
        </mxCell>
        <mxCell id="J4eak5XjC7vP3URmlibT-42" style="edgeStyle=orthogonalEdgeStyle;rounded=0;orthogonalLoop=1;jettySize=auto;html=1;exitX=0.5;exitY=1;exitDx=0;exitDy=0;entryX=0.283;entryY=0.019;entryDx=0;entryDy=0;entryPerimeter=0;" edge="1" parent="1" source="J4eak5XjC7vP3URmlibT-7" target="J4eak5XjC7vP3URmlibT-33">
          <mxGeometry relative="1" as="geometry" />
        </mxCell>
        <mxCell id="J4eak5XjC7vP3URmlibT-59" style="edgeStyle=orthogonalEdgeStyle;rounded=0;orthogonalLoop=1;jettySize=auto;html=1;exitX=0;exitY=0.5;exitDx=0;exitDy=0;entryX=1;entryY=0.5;entryDx=0;entryDy=0;" edge="1" parent="1" source="J4eak5XjC7vP3URmlibT-47" target="J4eak5XjC7vP3URmlibT-51">
          <mxGeometry relative="1" as="geometry" />
        </mxCell>
        <mxCell id="J4eak5XjC7vP3URmlibT-60" style="edgeStyle=orthogonalEdgeStyle;rounded=0;orthogonalLoop=1;jettySize=auto;html=1;exitX=0;exitY=0.5;exitDx=0;exitDy=0;entryX=1;entryY=0.5;entryDx=0;entryDy=0;" edge="1" parent="1" source="J4eak5XjC7vP3URmlibT-47" target="J4eak5XjC7vP3URmlibT-53">
          <mxGeometry relative="1" as="geometry" />
        </mxCell>
        <mxCell id="J4eak5XjC7vP3URmlibT-61" style="edgeStyle=orthogonalEdgeStyle;rounded=0;orthogonalLoop=1;jettySize=auto;html=1;exitX=0;exitY=0.5;exitDx=0;exitDy=0;entryX=1;entryY=0.5;entryDx=0;entryDy=0;" edge="1" parent="1" source="J4eak5XjC7vP3URmlibT-47" target="J4eak5XjC7vP3URmlibT-55">
          <mxGeometry relative="1" as="geometry" />
        </mxCell>
        <mxCell id="J4eak5XjC7vP3URmlibT-62" style="edgeStyle=orthogonalEdgeStyle;rounded=0;orthogonalLoop=1;jettySize=auto;html=1;exitX=0;exitY=0.5;exitDx=0;exitDy=0;entryX=1;entryY=0.5;entryDx=0;entryDy=0;" edge="1" parent="1" source="J4eak5XjC7vP3URmlibT-47" target="J4eak5XjC7vP3URmlibT-57">
          <mxGeometry relative="1" as="geometry" />
        </mxCell>
        <mxCell id="J4eak5XjC7vP3URmlibT-47" value="API Gateway" style="rounded=1;whiteSpace=wrap;html=1;fillColor=#f5f5f5;fontColor=#333333;strokeColor=#666666;" vertex="1" parent="1">
          <mxGeometry x="-50" y="430" width="150" height="50" as="geometry" />
        </mxCell>
        <mxCell id="J4eak5XjC7vP3URmlibT-43" value="" style="sketch=0;points=[[0,0,0],[0.25,0,0],[0.5,0,0],[0.75,0,0],[1,0,0],[0,1,0],[0.25,1,0],[0.5,1,0],[0.75,1,0],[1,1,0],[0,0.25,0],[0,0.5,0],[0,0.75,0],[1,0.25,0],[1,0.5,0],[1,0.75,0]];outlineConnect=0;fontColor=#232F3E;fillColor=#8C4FFF;strokeColor=#ffffff;dashed=0;verticalLabelPosition=bottom;verticalAlign=top;align=center;html=1;fontSize=12;fontStyle=0;aspect=fixed;shape=mxgraph.aws4.resourceIcon;resIcon=mxgraph.aws4.api_gateway;" vertex="1" parent="1">
          <mxGeometry x="80" y="414" width="35" height="35" as="geometry" />
        </mxCell>
        <mxCell id="J4eak5XjC7vP3URmlibT-51" value="morphology-ru" style="rounded=1;whiteSpace=wrap;html=1;fillColor=#f5f5f5;fontColor=#333333;strokeColor=#666666;" vertex="1" parent="1">
          <mxGeometry x="-270" y="430" width="150" height="50" as="geometry" />
        </mxCell>
        <mxCell id="J4eak5XjC7vP3URmlibT-52" value="" style="outlineConnect=0;dashed=0;verticalLabelPosition=bottom;verticalAlign=top;align=center;html=1;shape=mxgraph.aws3.lambda_function;fillColor=#F58534;gradientColor=none;" vertex="1" parent="1">
          <mxGeometry x="-140" y="411.5" width="40" height="40" as="geometry" />
        </mxCell>
        <mxCell id="J4eak5XjC7vP3URmlibT-53" value="morphology-it" style="rounded=1;whiteSpace=wrap;html=1;fillColor=#f5f5f5;fontColor=#333333;strokeColor=#666666;" vertex="1" parent="1">
          <mxGeometry x="-270" y="512.75" width="150" height="50" as="geometry" />
        </mxCell>
        <mxCell id="J4eak5XjC7vP3URmlibT-54" value="" style="outlineConnect=0;dashed=0;verticalLabelPosition=bottom;verticalAlign=top;align=center;html=1;shape=mxgraph.aws3.lambda_function;fillColor=#F58534;gradientColor=none;" vertex="1" parent="1">
          <mxGeometry x="-140" y="494.25" width="40" height="40" as="geometry" />
        </mxCell>
        <mxCell id="J4eak5XjC7vP3URmlibT-55" value="multi-inflection" style="rounded=1;whiteSpace=wrap;html=1;fillColor=#f5f5f5;fontColor=#333333;strokeColor=#666666;" vertex="1" parent="1">
          <mxGeometry x="-270" y="588.5" width="150" height="50" as="geometry" />
        </mxCell>
        <mxCell id="J4eak5XjC7vP3URmlibT-56" value="" style="outlineConnect=0;dashed=0;verticalLabelPosition=bottom;verticalAlign=top;align=center;html=1;shape=mxgraph.aws3.lambda_function;fillColor=#F58534;gradientColor=none;" vertex="1" parent="1">
          <mxGeometry x="-140" y="570" width="40" height="40" as="geometry" />
        </mxCell>
        <mxCell id="J4eak5XjC7vP3URmlibT-57" value="..." style="rounded=1;whiteSpace=wrap;html=1;fillColor=#f5f5f5;fontColor=#333333;strokeColor=#666666;" vertex="1" parent="1">
          <mxGeometry x="-270" y="660" width="150" height="50" as="geometry" />
        </mxCell>
        <mxCell id="J4eak5XjC7vP3URmlibT-58" value="" style="outlineConnect=0;dashed=0;verticalLabelPosition=bottom;verticalAlign=top;align=center;html=1;shape=mxgraph.aws3.lambda_function;fillColor=#F58534;gradientColor=none;" vertex="1" parent="1">
          <mxGeometry x="-140" y="641.5" width="40" height="40" as="geometry" />
        </mxCell>
        <mxCell id="J4eak5XjC7vP3URmlibT-63" value="Optional serverless deployments for large, memory-intensive workloads" style="rounded=1;whiteSpace=wrap;html=1;" vertex="1" parent="1">
          <mxGeometry x="-120" y="300" width="270" height="60" as="geometry" />
        </mxCell>
        <mxCell id="J4eak5XjC7vP3URmlibT-66" style="edgeStyle=orthogonalEdgeStyle;rounded=0;orthogonalLoop=1;jettySize=auto;html=1;exitX=1;exitY=0.5;exitDx=0;exitDy=0;entryX=0;entryY=0.5;entryDx=0;entryDy=0;" edge="1" parent="1" source="J4eak5XjC7vP3URmlibT-65" target="J4eak5XjC7vP3URmlibT-51">
          <mxGeometry relative="1" as="geometry" />
        </mxCell>
        <mxCell id="J4eak5XjC7vP3URmlibT-67" style="edgeStyle=orthogonalEdgeStyle;rounded=0;orthogonalLoop=1;jettySize=auto;html=1;exitX=1;exitY=0.5;exitDx=0;exitDy=0;entryX=0;entryY=0.5;entryDx=0;entryDy=0;" edge="1" parent="1" source="J4eak5XjC7vP3URmlibT-65" target="J4eak5XjC7vP3URmlibT-53">
          <mxGeometry relative="1" as="geometry" />
        </mxCell>
        <mxCell id="J4eak5XjC7vP3URmlibT-68" style="edgeStyle=orthogonalEdgeStyle;rounded=0;orthogonalLoop=1;jettySize=auto;html=1;exitX=1;exitY=0.5;exitDx=0;exitDy=0;entryX=0;entryY=0.5;entryDx=0;entryDy=0;" edge="1" parent="1" source="J4eak5XjC7vP3URmlibT-65" target="J4eak5XjC7vP3URmlibT-55">
          <mxGeometry relative="1" as="geometry" />
        </mxCell>
        <mxCell id="J4eak5XjC7vP3URmlibT-69" style="edgeStyle=orthogonalEdgeStyle;rounded=0;orthogonalLoop=1;jettySize=auto;html=1;exitX=1;exitY=0.5;exitDx=0;exitDy=0;entryX=0;entryY=0.5;entryDx=0;entryDy=0;" edge="1" parent="1" source="J4eak5XjC7vP3URmlibT-65" target="J4eak5XjC7vP3URmlibT-57">
          <mxGeometry relative="1" as="geometry" />
        </mxCell>
        <mxCell id="J4eak5XjC7vP3URmlibT-65" value="Eventbridge keep-warm events" style="rounded=1;whiteSpace=wrap;html=1;" vertex="1" parent="1">
          <mxGeometry x="-510" y="542" width="120" height="60" as="geometry" />
        </mxCell>
        <mxCell id="J4eak5XjC7vP3URmlibT-64" value="" style="sketch=0;points=[[0,0,0],[0.25,0,0],[0.5,0,0],[0.75,0,0],[1,0,0],[0,1,0],[0.25,1,0],[0.5,1,0],[0.75,1,0],[1,1,0],[0,0.25,0],[0,0.5,0],[0,0.75,0],[1,0.25,0],[1,0.5,0],[1,0.75,0]];outlineConnect=0;fontColor=#232F3E;fillColor=#E7157B;strokeColor=#ffffff;dashed=0;verticalLabelPosition=bottom;verticalAlign=top;align=center;html=1;fontSize=12;fontStyle=0;aspect=fixed;shape=mxgraph.aws4.resourceIcon;resIcon=mxgraph.aws4.eventbridge;" vertex="1" parent="1">
          <mxGeometry x="-410" y="520.75" width="38" height="38" as="geometry" />
        </mxCell>
        <mxCell id="J4eak5XjC7vP3URmlibT-70" value="backed by PVC" style="rounded=1;whiteSpace=wrap;html=1;" vertex="1" parent="1">
          <mxGeometry x="290" y="690" width="150" height="40" as="geometry" />
        </mxCell>
        <mxCell id="J4eak5XjC7vP3URmlibT-4" value="" style="aspect=fixed;sketch=0;html=1;dashed=0;whitespace=wrap;verticalLabelPosition=bottom;verticalAlign=top;fillColor=#2875E2;strokeColor=#ffffff;points=[[0.005,0.63,0],[0.1,0.2,0],[0.9,0.2,0],[0.5,0,0],[0.995,0.63,0],[0.72,0.99,0],[0.5,1,0],[0.28,0.99,0]];shape=mxgraph.kubernetes.icon2;prIcon=pvc" vertex="1" parent="1">
          <mxGeometry x="416.77" y="681.5" width="36.46" height="35" as="geometry" />
        </mxCell>
        <mxCell id="J4eak5XjC7vP3URmlibT-74" value="" style="rounded=1;whiteSpace=wrap;html=1;fillColor=#f5f5f5;fontColor=#333333;strokeColor=#666666;" vertex="1" parent="1">
          <mxGeometry x="440" y="340" width="360" height="50" as="geometry" />
        </mxCell>
        <mxCell id="J4eak5XjC7vP3URmlibT-73" value="" style="points=[];aspect=fixed;html=1;align=center;shadow=0;dashed=0;fillColor=#FF6A00;strokeColor=none;shape=mxgraph.alibaba_cloud.prometheus;" vertex="1" parent="1">
          <mxGeometry x="460" y="345.55" width="38.9" height="38.9" as="geometry" />
        </mxCell>
        <mxCell id="J4eak5XjC7vP3URmlibT-76" value="" style="shape=image;verticalLabelPosition=bottom;labelBackgroundColor=default;verticalAlign=top;aspect=fixed;imageAspect=0;image=data:image/png,iVBORw0KGgoAAAANSUhEUgAABAAAAAQXCAYAAABhzhmgAAAABGdBTUEAALGPC/xhBQAAACBjSFJNAAB6JgAAgIQAAPoAAACA6AAAdTAAAOpgAAA6mAAAF3CculE8AAAABmJLR0QA/wD/AP+gvaeTAAAAB3RJTUUH6AcIBhYwf5s+eQAAgABJREFUeNrs3XeYXGXdxvH7d2a2txQILUKAzdYQhdCkaAREQUQQgpCEDgkEQpMmWFZB6Qkk1NBJQYgFARuIBkFRMIKQze4mAZEmPdnZmt2Z83v/CK8FKSkzuzNnvp/rOtf1vpckmb2fM+c8z72nmAAAAAbYqokNE8z0fXe7taq/fZYtfKWHVAAAyCwjAgAAMFDePapxy1gqvFmyff9jMvKKS9+onL90vklOSgAAUAAAAIAc9t5v/W+SNPQD/wP3v5j7aZV3tz5BWgAAUAAAAIAc8+5RjVvGkrpF5p9fi/88dLPb4ym7sPzuJW+QHgAAFAAAACAHrJrUeKjJb5I0bB3/aJdMV1a+03eJ/XLFapIEAIACAAAAZKG3jqutKOqLXemuKRvy97i0xAKdUDV36Z9JFQAACgAAAJBF2ic17iT5fEmj0/RXhma6pXe1fX3EwuZOEgYAgAIAAAAMIm9S0L68/hsma5IUz8A/8YIHduKQuc2/JW0AACgAAADAIEgcUbORB/G5kr6Y4X/KzXRzZ2nJmZvPWdxN8gAAUAAAAIABsurIMTtaGC6UNGoA/9kWN588ZF7LXxkBAAAoAAAAQKYX/xMbp5j5bEmFg/DP98v0g8rVSy+yhUoxGgAAUAAAAIA0e+u42oqi3tjtbjpk8Cczvihmmlg2r+WfjAwAABQAAAAgTVZ9bcy2iof3mTQme2Y09pa7TR4yf8lDjBAAABQAAABgA3VMrP9MGAQ/kvvGWTitScn84srqpd+zJoWMFgAAFAAAAGA9vHe//7WSCrL8oz4SC4NJ5XcveYNRAwCAAgAAAKwlnzKuoL2z93ozPyGHPvZLHgSHDJm75C+MIAAAFAAAAOBjvHVcbUXh6tg9kvbLwY/fK9cJVQuWzmckAQCgAAAAAB+i+6iaLfpT8QclfSqHfww388srqlsu4LkAAAAKAAAAgPd594gxY+NB+HOXRkZiwmNa2FlacszmcxZ3M7oAAAoAAAAASe2TGvaTdK+k8oj9aE/GzQ8qm9fyT0YZAJCPAiIAAAD/Xvw3TpT0swgu/iVp55Tbk52T6rZjpAEAFAAAACBvrZpYf7Lkc5X9r/lbby6NTCn4feKIxj0YcQAABQAAAMjDxX/jeWZ2fZ7MDYZ44L9un1i/PyMPAMgnPAMAAIA85pIlJjXOkPyMPPzx+yU7pmp+8wL2BABAPuAKAAAA8nrx33BNni7+JalA8nmJyY1nsTcAACgAAABAhBf/9bMlTc/zKMzdr0pMrr+UvQIAEPmTHhEAAJBni/8mBe3LG2426TjS+I9cZFcMmd98LkkAAKKKKwAAAMizxX9ief1tLP7/l8nPaZ/UeBFJAAAoAAAAQG4v/iVLLG+4TrKjSeNDU/pm+8T6b5IDAIACAAAA5Kz2SY2XSTqJJD6G2UWrJjV8gyAAABQAAAAg9xb/E+u/Z/JzSGItOwDpB4lJ9TwPAAAQtfMbAACIssSk+nNddhlJrDN391OGLGi5gSgAABQAAAAguxf/kxuOddetnPPXvwQw2bGV85vvJAoAAAUAAADISu2T678kt/skxUljg/S7+ZeGzGt5mCgAABQAAAAguxb/Ext3lvlvJZWRRlokUmGw57C7lzxLFAAACgAAAJAVOo4cUx+G4WOShpNGWv0jbv7psnkt/yQKAEAu4i0AAABESOKouuFhGN7P4j8jtkq6PfjmhMZyogAAUAAAAIBB4xMaC5WyH0mqJo2M2aGoyO/x8eN5rgIAgAIAAAAMwuJfskShbnHZeNLIeNj7d4x88zqCAABQAAAAgAGXmNz4TcmPJIkB6gBcU9onNpxGEgCAXMJDAAEAyHGrJtd/3jz4peQx0hhQydCCzw+dt2QRUQAAKAAAAEBGrZxYv1Vgtlg89G+wvJlUfNzw+c++QhQAgGzHLQAAAOQoP2ZUcWDBj1n8D6oRcSV/5PtVFxEFAIACAAAAZER7X+n1ko8jiUG3S2JYwVXEAADIdtwCAABADlo1uWGquW4kiezh8sOHzG+5hyQAABQAAAAgLVYe3rC9xewPJi8hjayyKkyF2w/9YeuLRAEAyEbcAgAAQA5pn9A4LIjZj1n8Z6UhQSy4x6eMKyAKAAAFAAAAWG8umQp9geRbk0bW2jnR1fttYgAAZCNuAQAAIEe0T64/XW5Xk0TWSyrQHlVzl/6ZKAAAFAAAAGCddBw5pj4V+mIu/c+ZKVZbZV/79rbwlR6yAABkC24BAAAgy/n48fEwDO9k8Z9To1abKKi6hBwAABQAAABgrXVs/uZ3Je1EEjnGfHrHEXWfJQgAQNacmogAAIDslZg8Zjd3/73kMdLIScsrC7rH2h0v9hIFAGCwcQUAAABZ6vUjx5a5h3ew+M9poxN9JRcQAwCAAgAAAHyoYk9dI2k0SeQ4s/M6jmhoJAgAAAUAAAD4H6sm13/e3I8niUgoDAPd5E3MuwAAFAAAAOA/+H7VRebBbJKIlN07ljUeRQwAAAoAAADwL4mhBRdKXksS0eLml747YZsqkgAAUAAAAAAljqqrkdk5JBFJmwSFPBAQAEABAABA3nPJlAxukFRMGtFk8jMSR9XVkAQAgAIAAIA8lphcf6Sb9iKJSCv0VHAFMQAABoMRAQAAg699QuMwFXqLpBGkEX1BGI6vuLv1UZIAAAzo+YcIAADIAkW6mMV//giD4CJSAAAMNK4AAABgkCWO2K7Og9RzkuKkkU+zMD+gal7LzwkCADBQuAIAAIBB5rHUVSz+83DcPbjEm5iLAQAoAAAAyAurJjXsLdf+JJF/TL5d+4qGQ0kCAEABAABAxHmTApNdRhJ5PBFzXeDckgkAoAAAACDaOlY0HC35OJLIXy59suOIxgNIAgBAAQAAQES9NmVcaejGk+AhD/xCUgAAUAAAABBR5Z0900y+BUlA0i6rJjXsTQwAAAoAAAAi5rUp40rddDZJ4P+Z23mkAACgAAAAIGLKu3tPkrQJSeA/GoDPd06q244gAAAUAAAARIQfM6rY3b9OEni/lIJppAAAoAAAACAiEn1lJ0vanCTwAY5qn9A4jBgAABQAAADkOJ8wskTm55AEPkSpFfhxxAAAoAAAACDHtRdWHi1pM5LAh3Gzad7E/AwAQAEAAEDuLuwkM+k0ksDH7Clbtz/fOJ4cAAAUAAAA5KiOIxoPkFRPEvg4FvqxpAAAoAAAACBnz7h+JiFgbbjskJXHfGoISQAAKAAAAMgx7x4xZqxL40kCa8PkJZbs+xpJAAAoAAAAyDGxIDxTkpEE1roEcHEbAAAg/ecXIgAAIHPenbBNVayw+DVJpaSBdeHJoHrIPUueJwkAQLpwBQAAABkUKyyZzOIf67fz+KGEAACgAAAAIFeYH08IWK9dxzSBFAAAaT23EAEAAJnRPqlxJ8mfJAlsQAswumpe8wqCAACkA1cAAACQOccQATaEhzqEFAAA6cIVAAAAZGLhNmVcQaKr5zVJG5EG1n+mZm956H8ws6fdwz8WhOHS0rq2161JIeEAACgAAADIAolJYw5whQ+QBDKgT9IKyRa7qzlwLQ0taB6y4LkXiAYAQAEAAMAAa59Uv0CyI0gCA+htcz3rpiUuW2KBP9tXkFq68W1tHUQT4WPNhMZhYZE+EUtpyzDQpnINC8yHSBrqsiGSD5E0RGv+74L3/fGh7/v/V0rqk6zLTZ0Wqs8CX+Wu1akwuGLY3UueJXGAAgAAAPwHP2ZUcaK/9E1JFaSBwd4dJf3dXE+Hsqdk/pewr/cvwxa+0E40ueOdw8d8IhZTfWA+RvJad20paUtJW0kqG6CP8YfK+Uv3tDX7FAAKAAAAIEntk+u/JLcHSQJZWwq4livQU5L9KbBwUfnclmYWdlkwMFPGFSS6ej8l+a7uNtbMx0hWL3lVluw4hw+Z33IPIwVQAAAAgPckJtXPcdmJJIEc8rbLHjMLHw0VLBpS3fwcDxrMvK7Dazfvj8f2sFC7yHxXyXaQVJzFH3l55asjGmzRoiSjB1AAAAAASe2TGv4uaRRJIId1SvqbmT+uVPAHqf+JyruXvU0sG+a1KeNKSzu7dwsC7eMe7CP5Drk2H3e3qUMWNM9hNAEKAAAA8l7iqLoaTwVtJIGIcUmtJv1e8l/3q/+R4fNXJIjl47VPbqw2D7/qsgMk7SqpIMcXD69U9CVqbOErPYwukHviRAAAQBpXSclgJ+p1RJBJqnepXrKpcRUmV01q+KNMv1YY/rqqpvVpbhn4t3ePGDM2ZuHBFvhX3X2sR+ig4NLIjoLKUyRdyUgDuXkwBwAAadI+qfFiyS8kCeSZN9z1CwX28/7C5EP5+OrBNU/qDyebdJSkuoj/uG/3BPFRm859totdH6AAAAAgjwuAhmZJDSSBPNanNbcK/FwWPFg1r3lFVH/Q148cW1bi/YfI7ShJn5MU5M0ou51VtaB5Jrs7QAEAAEDeSBxVN9yTtr/M9pI0Xjz8D3j/dLPN5Q8qsF9UlRQ/ZnMW90fge1/jqdjJkh8jaUieLiJeqeizbW1hcx/7OEABAABAZHVNrt+sP9RBZvbV9xb9PFMHWLupZ7uZPxTK7ql6Z/WD9ssVq3Plk7tkHUc0HuBBeKpkn2ceLZl0fOX8pbexXwMUAAAARIYfM6q4vb90d5N9TvK9Je2sfLrUF8iMlZLuMQvmVsxb8oStedNA9n3/p4wr6Ojqnejyc8XtPe/XXDl/6XbZOnYAKAAAAFgrr00ZV1ra3bufeXiI1ry+q4JUgIxZIdlc92DekAXPvZAVC/8JI0sShRVTJTtL0icYog/JSdpnyPylj5AEQAEAAEBuTWQnjCzpiFft44EmSH4Qi35gUKani2XhXEul5lfeveztAT8OTBlX0N7Ze6xM3zb5FozHx7q/av7SrxADQAEAAEAOLPoVSxTUf0EWHOXSgSYvIRUgK/RKut8UzK14daNf2aJFyYweCyRLTGqYJOki8TDPdRG6x0Zny5UbACgAAAD4H2ve2e2nmvwoSZuSCJDV/mnmd0nh7ZXz2trS/ZevOnLMjhb6LMk/TdTrzmVXDJnffC5JABQAAABklVUT68aZBWdJmiCpgESAnJu9Pm7Sbb2rbeGIhc2dG/JXdR4xZpNkEP7ApGPEgz03xBuVZSWfiMIrHgEKAAAAcpxL1j6xfm8znf7eA/0A5Pz32noC8wfD0OdULWh5ZF2eRO9TxhUkurunyYPvSl5FmmlYVJgfXDmv5T6SACgAAAAYFCuP+dSQINk/Wa5TJa8lESCyWs38tiAezC2/o/n1j/oP2yc17iT57ZIaiS2d/MGq+S1fJgeAAgAAgIGbgkrWMblhD3c70aVDeagfkFeSZvqpUjar8u7mx//r2DChsTBRqG9Lfp6kOFGlP/t4KrVV2Q/bXiMKgAIAAICM6jhy7AhPJY9ysxP4bT8AmZ42aXZFvPvuVX1ldbEgvNPdxhJMBiM3P7dyXssVJAFQAAAAkBGrJtfvYG5fl3SopEISAfA+70iqFA/9HIilxeKq+c07kgNAAQAAQNq4ZImJ9fuZ2dkufY5EACBLjs/JoHrIPUueJwkgO3H/EwAgdyaWTQo62hq/lAj8W5J2ciIBgCxbXYSHSbqEIIDsxPtOAQA5sfBfNbFhQmJ5wxIP/H5JO5EKAGQfkw4jBSCrv6MAAGTpwv+YUcXtfSXHmtm5kkaRCADkwsHba6oWtCwnCCD7cAsAACDrvH7k2LIS7z+hvT84x8y3IBEAyB0WBF+WNIMkAAoAAAA+1FvH1VYU9gXHKUyeL9mmJu7yB4Bc4+77UQAA2YlbAAAAg65jQvXGYVHhKXKdLmkIiQBATutb3WfDRyxs7iQKILtwBQAAYHAX/gWF56fMTjb3EhIBgEgoLI7rc5IeIAqAAgAAkOfenNBYXligU0LTNySv4lJ/AIgWD/RFCgCAAgAAkMdeP3JsWXGYPM3k50gaSiIAEFn7EQGQfXgGAAAg43xCY2F7gY4x8yZJm5EIAERf6D5q6IKWf5AEkD24AgAAkLmF//jx8cTINyYm3L9j0jYkAgD5I7Bgd0kUAAAFAAAg0gv/JgXtyxoOSejNi+VWQyIAkJd2l7SAGAAKAABARK2aWL9PYoVdbqbtSQMA8pfJdycFINu+lwAApEH7pPpdJbtG0s6kAQCQLJXU6mHD569IkAWQHbgCAEDO8P2qi9qHlpQWBMni/jD+oe+Mj1lYnPKg15VMmeIJL4z50DueWUWCmdFx5NgRqVTyUknHiGIZAPDvM3cspuJdJT1EFgAFAIA81T6hcVhQqE1TgTa10Dc3sxFy31jSUJeGym2oFA5VYEPlGiapQFJ5QpIppaSbzFIf+veHksxSMpmklKw/pfZJDf//P690WbfkK01aKdMqhbZS5qtkWumhvxEEwauh2WsF/f2vlaba3rCFSjFqHzCtGz8+ntj8zWlhmPyumYaQCADg/UxOAQBk1XcSANK5KJTs3cPHjCwMUluHgUYptK1lvrVbMMrct5JpM7mKcugwmZL8DUmvmOtlBb5C0oqUYitCD1YMm//sqyZ5vo1zxxF1n00Fsdkm3469HgDwEYuNH1XOXzqBJAAKAAC5vNA/ZlRxe7KkwTyok4d1MquVVPPeVpo3Och6JH8+kC9z2RI3e9akv1VWN79gTQqj9vN2H1WzRX8qdoVkh3MOAQCshdaq+UvriQGgAACQIzqPGLNJylLj3IKxZvqk3Me+t9DnNqKPiE3SEjM96+5/U2CLK3vtaVvY3JeLP4xPaCzsKAzPcNm3JJUzvACAtZSsfLev3H65YjVRABQAALJtoTd+fLxzszdrU2a7m2kPycdJqud4kRb9kj0r+R9kvtgtfGzI3La/Z/uHXjmx8XOB+WxJjQwhAGBdhWafGjqv+W8kAVAAABhk7x7VuGWQCj9tCnaVtIvMd8ite/Rz3kuS/8EV/E5B8jfZVAisnFi/Vcw0w2VfZZgAAOvNNblqwdL5BAEMPi7fBfJM1+T6zZKh9pGCfdy0t6V8izVdoP//SRoDa0vJtjT5EQpjap/c8Ly5fhPKfhPEUr+rvKv1nQGfp40fH+/Y4s3TXfqe59HzHAAAmWHGFWRA1nwfiQCItjcnNJYXFYWflQf7uHwfk8aQSs4I5f5Xkz3kZvdVzm/+S6bfOLDy8Ibtg5jd/N6tHwAAbDB33TdkwdKDSQKgAACQqUVc3A6Q++cl7SqpgFQiMIGSvWqm+93tvqo+X5TOBwq+NmVcaWlXb5PJzxRXhwEA0rvkWFw1v3lHcgAoAACkY2E4fnx81eZv7RmYHyTpK5K2IpXIH77bpfAXbnZf32r7xYiFzZ3r+zetmlz/eXO7UdI25AoAyIDXq+Yv3YwYAAoAAOu76J8wsqQjXrWPYn6Au74iaRNSyVu9kv/G3e6qKi+5z+Ys7l/bfShRWHmppOmcDwAAGRRW9llJrr4KF6AAADBIi/7Gwo4C30+BJoVuB5i8hFTwPm9IukeyeVXzm5/6sP+ofVL9rpLdJWk0kQEAMt4AuI8auqDlHyQBUAAA+KhFv2Qdkxv2kGuSSxMkDSMVrKVWuc/vKw6v2fi2tg5J8injChJdvd+W/Hxxrz8AYMAWHbZH5fzmP5AEQAEA4AMkjqqrUSo4xqWJ4p5+bJjl7j4tFou9GoY+lyf8AwAGmpu+NmTe0ntJAhhc/PYHyKaT4zGjihN9pYd4YCd6yj8jSjqkx2gzezgMwz5JhcQBABhoFtoWpABQAACQ1HFEQ2MYaEqiX5NlGmbuhIJMYPEPABikBsCHEAJAAQDkLW9S0L6sfi8znR5KXxK/7QcAAFGd98h4cDFAAQDkn9emjCst6+o5PrFcp5mpmkQAAEDUmcJSUgAoAIC88dZxtRWFfcFx6uo5T9JmJAIAAPIFVwAAFABAXilYHf+D5NuRBAAAyDdmxhUAQBYIiAAYoBOffAQpAACAvOTOFQAABQCQR+c9WSUpAACA/JwIcQUAQAEA5Ms5b8q4AhPNNwAAyFPmxYQAUAAAeaGjo6OKFAAAQN6u/+UpUgAoAIC8EIaFFAAAACBvuSxJCgAFAJAfJz0Luf8fAADks34iACgAgPwQD7gCAAAAUAAAoAAAoi6W8gpSAAAAecvUQQgABQCQF0KefAsAAPKZWzshABQAQF4wUxEpAACAvJ0LyROkAFAAAHly0lMhKQAAgHwVShQAAAUAkCcnPXeuAAAAAPm76HD7JykAFABAXuAWAAAAkM9cogAAKACAPDnpeUABAAAA8lYY6HVSACgAgLxgAc8AAAAA+StuMa4AACgAgDzhFAAAACBvdZbPffYtYgAoAIB8YUQAAADydBL0vElOEgAFAJAvOOkBAIB8nQY9TwYABQCQR+e9kAIAAADkpVABBQBAAQDkETMKAAAAkJ/TIA+fIwWAAgDIozMftwAAAID8lPLY30gBoAAA8kdIAQAAAPJS39CktxIDQAEA5A9uAQAAAPk4BZJabGFzH0kAFABA/vAwJAQAAJBvQrenSAHIHnEiADLPZL1cAgAAWX+0bpf8HUlL5HrEpX8OxqcITBVyDZM01E3DJA2T21CZD5dsqKRhklcxXsgFQeB/JAWAAgDIK27WIx4DAAADuZhPSf6KpJdkWuWhvREEeqCiuvlBa1LOX5XlExoL343ZJgWWHCkLRrj5FpJt4mZbmIebSLa5pM0kbSrJ2B8weFIUAAAFAJBn01B5D8t/AEi7f0r+nBQsleldC/VySvqHxZIvVpWUv2JzFvdH9ryy5p7ql9/bPrwo2K+6qGN4bJSH8VFuvnVgPsrdtpY06r1tBLsRMujtinlty4gBoAAA8oqb9cipAABgHSXlekGml1z6m0nPWGgvKpZ8KxUveWPoHc+sIqKPKQp+uWK1pLb3tv/x+pFjy4o8VW0e1plZvVz1Zl7nslq5ikgQGyjWcVTdaN3VSgkAZMt5gQiAzEtMqj/YZT8hCQD4mAW/9Bczf9TdHl3dZ4+NWNjcSSwDzycolihq3NpSqlcQ1rus3qTtXWqQVEBCWAcvJVPBHsN/uORlogAoAIC80D658Yty/yVJAMC/vG3Sc27+jIdaLos939fnf2TBn+XFwH7VRe0bFW+nlO8QmO/g0g6StpNUTDr4CK1BX99nKhaueIsoAAoAIPI6jqj7bBgEi0gCQJ7NMla768/m9qIF4ZJQesZDLRtS2POG3fFiLwFFpBSYMq5gVXdvQ0y+Qxjabma+u6Q65pl43wFhcVKr9xo+f0WCLAAKACDSVh05ZkcLQ96DCyDqQklPuOyPgcInUgVFv+M+/fyUOKJmI1l89zDQHua2u+TjJBWSTL4vPHxRRUHPfhSAAAUAEGntkxur5b6cJABE1FKXzU0pNm/4/GdfIQ68n08YWdJZULFTyrRnINvbpd0pBPLW/ZWvjjjEFi1KEgVAAQBEUuKImo08iHPfG4DIrOck/U3S/W7+syHzWv5KJFgXrx85tqwk1f9ZKdhX5vtKqieVvFqCzK2c33y0rTmWAKAAACI2U54yriDR1dNHEgBydLawWq6/uOwPgekPSvX/sfLuZW8TDNLlnUljRxYoua+bfV7u+0jaiFQib3bV/KWnEQNAAQBEUvukhg5J5SQBIAeEklrc7E+Bwgcr4j2/4p5dDBSfoFhHUcNuHuogmQ6StA2pRHYl8t2qeUubCAKgAAAiJzGp4WWXRpIEgCydEqTM/VEFmpeKF/6Uh/chW7x7xJixsZh/Re4Hac1rBxElrtOrFiydRRAABQAQKasmNTxn0hiSAJBFs4CnFfpP3OyJ/qLUkxvf1tZBKMhmKyfWbxXIvuKBfdXc95QUkEoEKgD3o6sWtMwlCoACAIiM9skNj8m1B0kAGGStMt0TWHBPxdwlLcSBXPXO4WM+URBPHS63SS59kkRyWtLMDqmc13w/UQAUAEAkJCbV/9hlXyUJAIPgJUn3WWgLK+9ufpw4EDUdR46pDz38mlyTJFWTSE7qDdy/ULGg5fdEAVAAADmvfVLjdZJPIwkAA8Flr5qF98rsnqq5S/9MIsiP/V7WMXnMp91TEyU7QtIwUskpq1Jh8Nlhdy95ligACgAg1wuAb0v+XZIAkEEdLi2Mud9ZXtPyuDUpJBLkbRlwzKjiRH/poS6daNJnSCRnvOZBao8hc9v+ThQABQCQs1ZNbJxi5jeRBIA0CyU94W539fVrwYiFzZ1EAvy3xFF1NQrtOFdwnNw3JpGsX6E8H0sFu5ffveQNwgAoAIDcnHxMbjzQ3X9GEgDS5F2X3SoPbhyy4LkXiAP4eL5fdVFiaMHBZjbFpfHMhbN6mbK4ryj5Od5OAlAAADmpfWLjzjLnPlwAG+qvJl1X0Ze42xa+0kMcwPpJTK6tdY+dIekoSaUkkoXcHq4sL/6SzVncTxgABQCQU1ZOrN8qMHuRJACsz1rF5Pd4YLfyQD8gzV+uo+qGh2Ew1VynSNqcRLKsA3C7ZciC5hNJAqAAAHLrBDahsTBR6D2SAtIAsJZedPfLe2MFd20699ku4gAyfJ4uCL+mwM6Ua3sSyaYFi59XOb/lcpIAKACAnJKY1PCySyNJAsBHrUNMWuRmN1eWFv+IS1+Bgbdy8pjxgcKz5DqA+XJWCN3ssCHzmn9MFAAFAJAz2ic1PC5pd5IA8AG65LrJU8H1Q+5Z8jxxAFlQBExs/FRM/k03HSyu4Bts3XL7XNWC5ieJAqAAAHKlAJgvaSJJAPgPb0q60cLk7Mq7l71NHED26TiyfkwYBt+UfAJFwKB6PXTfdeiCln8QBUABAGS9xMSG77vpApIAYNLfZLqmIt59t93xYi+JALlQBIypDz28UG6HSx4jkYHnsuf6+rTbiIXNnaQBrLs4EQADJ5T9w+QEAeTz3FX+89CDGUMXNP+OOIDcUjF3SYukye0T678r04WSTWI+PbBMvl1hod3l0iEmJlXAun+HAAyY9smNX5T7L0kCyM+FvxR8r2p+81PEAUTDysPrRsXiwTfcdRxFwID7XtX8pd8hBoACAMjeAmBi/WiZLSMJIG+Eki0MgvDiirktS4gDiKbE5NpaV+xb3BowoNzNJvBmAIACAMjeM9X48fHEFm92SSokDSDS+iX7oYXBDyrvfq6VOID8sGridtsEQeo8dzueImAA5lWyHnlqzyELWheTBkABAGSl9kkNLZLqSAKIpF7JbgtTqSuG/rD1ReIA8lPHpMYGl3/XpUOYb2fci0Ff384VC1e8RRQABQCQjQXAfZK+QhJApITuujNl8W8Pn//sK8QBYM05v35XmV0h1x6kkTlu9mhVafHnbc7iftIAPhrvMQUG+iQlayMFIFJ+lQqD7YcsWHoci38A/6lqfsufquYt3dPMD5bE7UAZYu6fTXT1Xk0SAAUAkH1fOg95CCAQAS4tcffPV81fut+wu5c8SyIAPkzlvJb7Kl8dsZ2bTpL0Oolk5Kg8rX1y4xHkAFAAAFl2fgq4AgDIbZ3mOqeqrGSHIQtafkMcANaGLVqUHDJv6U2r+2y0TN+V1E0q6Z5j+U2JybW1BAF8xLGICICB1T6hcZgK/R2SAHJydvlg6Dp16IKWf5AFgA3RfVTNFv2pgkskn8ycPI1HaWlJd1nJLpvPWUzBAlAAANkhManhZZdGkgSQM2fL5xX6aVULWn5BGADSaeXkMePNfZbJtyONtJUAtw2Zv/R4kgD+F7cAAINxYjJxvzCQG/rM/LLKePcYFv8AMmHovCWLql7deAd3myqJKwTTwKTjEhMbjyEJgAIAyJITkz9HCkDW+5Ung4bKeS3n2x0v9hIHgIzNCxYtSg5Z0DwnFgaNLt0mKSSVDePm13Uc0dBIEsD71yEABlz7pMaJks8nCSArrTLZGZXzm+8kCgCDITF5zG7u4RxJLGA3TMvqPtt5xMLmTqIA1uAKAGAQxJTiCgAgO/06qfh2LP4BDKbKeUv+WFlWsr27nS+JK5DWX31hka4mBuDfuAIAGAQ+ZVxBorunQ64i0gCyQqdJp1fOX3obUQDIJonJtbWhx+aY9BnSWM8Fj/nBlfNa7iMJgAIAGDTtkxqelLQTSQCDrjUIfELF3JYlRAEgG7lkicn1R8pthqThJLLO3o6bjy2b1/JPokC+4xYAYPBO50+SATDYX0O7qyeI78jiH0A2M8mr5rXcFSuwMSb9iETW2UZJt1udX34CFADA4J3Mg6dIARg0/e42tWpB89Gbzn22izgA5ILyO5pfr5y/dILMJkp6l0TWyX6JSY3TiAEUAAAGqQAQBQAwON71wL44ZEHzHKIAkIuq5jXfHQuDBkk/I4114Vd2HFk/hhyQ52sQAINyCmpSkFjesEpSBWkAA6ZVZl+umte8gigAREFicv0J7naVpErSWKvlz+LKsuJP25zF/WSBfMQVAMBgnX6aFJp8MUkAA+ZJi4V7sPgHECWV81puCVPhJ036HWmsDR+X6Or9DjmAAgDAYNQAT5ABMADfNNdv+4pS+1Te1foOaQCImqE/bH2xYv7SveV2lkyrSeRjS4DzVh7esD05gAIAwMCefsz/QApAhhf/pjkV/bbfxre1dZAGgMge6ySvWtA8M0hpnEu82eSjxWNxv8OnjCsgClAAABgwYbzoD5JCkgAyolPuR1TOWzrVFjb3EQeAfFBx99Lmqr7EzpJmkcaHc7exic7u80gC+YaHAAKDbNWkxmdNvh1JAGk9vbUFQXhoxdwWfgsGIH/nGJMbDzH3myUNJY0P1BcEPo5zBfIJVwAAg71MkR4jBSCt7u8rSu7EhA5Avhsyr/nH7rEdJT1JGh+oMAztFp+gGFGAAgDAQDUAjxMCkKavk/lllaOXHsz9/gDwXgmw4LkXKstK9pD5TNL4QLt0FDacQQzIn6UHgEHVfVTNFv2p+CskAWzQ2Wy1Qj+xakHLXMIAgA+2anLDYea6VVI5afyby3rMw09WLWhZThqIOq4AAAZZ6V3LXpXUShLAenvbUuHnWPwDwEcbMm/pvYFsF+Yd/83kJSa7kSRAAQBggPgjZACslxfNUntU3t36BFEAwMermN+8dHWf7STpXtL4j5mYaa/2SY0TSQIUAAAyziQKAGBdJ2uy5wpiyT0q57W1kQYArL0RC5s7q+Yv/Zq7TZXUTyL/OrPMWDVxO96YAAoAAJmVKij6nWQpkgDWdo5mD/cXJXd/7xYaAMB6GLKgeY4H9kVJ75KGJGkTs/BiYkCU8RBAIEu0T2r4s6SdSQL42NX/g5UFPRPsjhd7yQIANtyqr43Z1uLhA5LqSUOh5LtXzW/5E1EgirgCAMga9jAZAB/r3sqy0q+y+AeA9Blyz5Lnw4LC3SR/iDQUSHadT1CMKEABACBzy3+zX5AC8FH87spXR0yyOYu5XxUA0mzoHc+squxr2d/MLyMN7ZAobJhGDIjkmoMIgCxZ2kxQLFHY8Iak4aQBvO/7YXZrVXXzFGtSSBoAkFmrJtafbGazJMXzOIZE3LyubF7LP9kjECVcAQBkCVuolEy/Igngfyxg8Q8AA2fIgpYbPLAvSHonj2OoTLr9gL0BFAAAMse5DQD4r6+E677KV0cczeIfAAa4BJjb/Fv32M6SludxDEe1T2zkAc2gAACQGRZL/ZrXAQL/Wv4/VLWy73BbtChJFgAwCCXAgudeSCq+l6SVebtWMr/GuW0aFAAAMqHyrtZ3JP8jSQB6rKus9GD75YrVRAEAg2f4/GdfMdNXZPZWnkawa2Jy/ZHsCaAAAJAh/hMyQJ57Kqm+Azafs7ibKABg8FXOW/pYGIY7ybUsP6dmdsmbExrL2RNAAQAg7cKU3yfJSQJ5OceSPac+++Lw+SsSpAEA2WPogpZ/eCz1RUkdefjjb15c6BeyFyAKuJ8FyELtkxoWS9qBJJBnVsTNP8MrlwAge62aWDfOLPixpK3y7Efvk/uYqgUty9kLkMu4AgDIQs5tAMg/r4ep8PMs/gEguw1Z0Lo4VmC7urQkz370QpNdwh4ACgAAaRcLYhQAyCfdkh049IetLxIFAGS/8juaXw/C5Odkejqffm43HZKY1Lg7ewAoAACkVcXcJS2SniEJ5IHQzCdVzW9+iigAIHdU3r3sbQ9je0v6c16VANIVvBYQFAAA0s5c80kBeTCV+nrlvJb7yAEAcs+QBc+trCzoHu/SbXl03vp0+8SGQxl95OwagwiA7NR1eO3myVj8JcljpIGITqKuq5rfcio5AEDua5/ceKrcZ0gqyIMV1POVq63BFjb3MfLINVwBAGSpsh+2vSb570gCEV38P1jZ13I6OQBANFTNa742tGBfSZ3RP4Vp20RReDKjDgoAAGllsnmkgAju2E+v7guOsIVKEQYARMfQeUsWWRjuK1l79EsA+9bKYz41hFEHBQCAtFldlPyJpG6SQIS8HE+mDhixsLmTKAAgeirvbn3CPbW3pHci/qMOt/7+bzDioAAAkDYb39bWIbP7SQIR0etB8NU1t7cAAKJqyILWxamY7SD3v0T55zT5ae9MGjuSEQcFAIA0CrkNANGYKJmmDZm75C8kAQDRN+yu5pf6isO9JLVE+McsLlDym4w2KAAApE1laelDkt4kCeS4GyvnLb2dGAAgf2x8W1uHhbGvSno3qj+jS8e1T6wfzWiDAgBAWticxf2S7iEJ5LA/Vb7bdwYxAED+qbz7uVbJvhjhBwMWKAi+x0iDAgBA2oRmt5ICctSbScUn2C9XrCYKAMhPVfObn7IwtZ+kjkj+gO5fWzW5fgdGGhQAANJi6Lzmv0n2BEkgxyRDC742fP6zrxAFAOS3yrtbn3DzQyQlI/jjmckuYpRBAQAgfTy8gRCQU7Mh6fyh85YsIgkAgCQNmdfysLmi+eo81/6JyQ17MsqgAACQFpXD+++V6U3ZmpUVG1s2b27204r5S2fwzQUA/Nd8ZsHSK112eSTPfdL5jDAoAACkhc1esdpld5IEcmBvbetbraPWzIUAAPhvVfObzzfppgj+aPt1HDmmnhEGBQCA9AiDGyWFBIEs1q9QR41Y2NxJFACAD2KSV8xberIrcg85NvfwDEYYFAAA0mLIgudekPRrkkAWT+ouqFrQ/CRJAAA+rgSoWt08VWaRetWxS0d3HjFmE0YYFAAA0nPCNONhgMjSSY89WlHNff8AgLWc0yxUqrKk+EiZPxihH6soFfhURhdZ+70jAiDHFlkTFEsUNzwvaSvSQBZ5O96f+mTZD9teIwoAwLrNbUaWJIorfy0pKk/Rf71ySN8om71iNaOLbMMVAECOsYVKeTQfnINc3i/dT2TxDwBYv7nNKz2ein1FUktEfqRNO1YWTmRkQQEAIC3C3t7rZdZOEsgSN1bOa7mPGAAA62vIgudWJsP4vpJejsRczXSWc7U1KAAApMOwhS+0u/stJIEs0NJVUvJ1YgAAbKjh8599JZDvL2lVrv8sJo1pn1y/D6MKCgAAaVFoyZmS+kgCg2h1aJq0+ZzF3UQBAEiHirktS0Kzr0ZhjmOyMxlRZN9+CSBnrTqq4TaTjiUJDAaXfWPIXc2XkgQAIN0SRzUe7fLbc3y94kHKxlTMb17KiCJbcAUAkMtf4DB1maSQJDAInqkqLr6KGAAAmVB5V/Odkl+c4z+GeSw8g9FEVu2URADktvajGu6T9BWSwABKhtLOQ+9a+jRRAAAyxSVLHN24QO6H5/CPsTrWH2xVfveSNxhRZAOuAABynv2ADDDAvs/iHwCQ8RmO5JXd7cdJejKHf4yiVNynMpqgAACQFlV3NT8p02MkgYHg0pLKHkonAMAAlQALX+kpUPKrkl7L3RWXT/Pp1UWMJigAAKRpURZcLJPY2DK7WcoCO84WNvP2CQDAgCm9a9mrHvMvy9SVk+dPaZNER9EhjCQoAACkxZA7lzzk0u9JApktmnxm1R3NT5EEAGDA5zq3t/zVTcdK8tw8ifrJjCIoAACk78vsdiEpIIOWVXUnvk0MAIBBKwHuWLowh599tMfKoxq2ZxRBAQAgLSrvan5c8odIAhkQBvITbeErPUQBABjU+c7Wzd+W9EBOLrzMTmQEQQEAIH0s+KZy9dI4ZO9uZbq54s4WbjEBAAz+OalJYaqo90hJrbn36X3yW8fVVjCKoAAAkBZVdzQ/JdP9PKyOLY3buypMfpNvFwAgWwyb80K7efgVmVbl2Dm1osCDyYwgKAAApE0qDL4tKSQJpIO7faNyzrK3SQIAkE0q72pdJvfJOTfn8YCHAYICAED6DLtrybNyv4ckkAZPVW3dfAsxAACyUdWdLT+XdFEufWaTb9d+TP2ujB4oAACkTTKInSepmySwAUKZplsTV5MAALJX5ail35PrN7n0md2D4xk5UAAASJvhty952VzXkATWf3Jit1XdvvTPJAEAyGbWpDBWEEyW9HrOfGb54TwMEBQAANKqt8x+IOmfPMSObZ23QCtjweoL+BYBAHJB+S1L3ggDmyizVI6cZ8uLwtgERg6DwYgAiK7EsfUnuOxmksA6cT+l6o6W6wkCyODXbMLIkpUlQ0YHMa+Re41JnzBL7y9m3BVa4O3///+HYbDyX/9j4O1BqL7QLCELV0mxVRam2mPxWKIs2dlud7zYyygh5+Y9xzV83105UmDbE1W3N+/GqIECAEAaJ5iKdZQ3LHbpk6SBtfR0ZefSnWyhUkQBbPgxuL2qdktLxWvkXiN5rSyokbxG0pZZPg/rlvQPSS+57GWTXpaFL4YKXraUvVRVVPSSzVnczygjq75zTePjiX+8+TtJe+TC5w1kjRW3Ny9l5EABACBtVh3buJfJHyEJrM3cyRTsUXn7kj8SBbAOXxzJOo6rrXGP7WTmY+Qa7bJaSdWSiiI6hUxJ/orJ/x7K/m5mf5f8BVP4Qiosbhl6xzOr2DMwGFYeX79VENozkobkwEpsRtVtS7/OqIECAEBaJY5tWOjSoSSBj3Fv1e1Lv0YMwEfrPqpmi2QQ20mB7eSunSXtmBOLjYGdYL7iUrNLSwLXUpc9t7pULSOub+4kHWRa+7GNR0i+IAc+6huVW40YaU2LkowaKAAApHWy2h+Pt0jiibP4MH0ya6y6tXkFUQD/7Z0Txo6Mh/17ybWXzPaS9AlSWS+hpDa5PykLnlKoJysLi5/hVgJkpAQ4rmGepEk58FH3r7pt6S8ZMVAAAEjzibD+DJNmkgQ++GTgsytuaz2NJAApcVTdcIvFPhcG4V7m2ktSLalkzGq5njbzp2TBY+qLP1ox99k3iQUb6t0p21TFk0XPSBqV1edftwUVty+dxIiBAgBAWvkExRIV9U+ZtD1p4H06giA2uvyWJW8QBfLVqhNqtzYPDpTrAJM+K6mAVAZtevqCpN+Y6TfeH/628q7Wd8gE6yNxfO3u8uBRSbEsXox19yrcdOPb2joYMVAAAEir9mMbdjHzP0rpfdUUcvxE4Ppmxe0t3ycJ5BOXLHF8404W+kGSHyhTI6lkpdCkZ1z2kCz1YEWi7U+8pQTrVAIcV/d9ybL61YAuHV11W8tdjBYoAACkvwQ4vv56c51MEnjPa53x0tGbz1ncTRTIB53H1G0Xxmyy3CdKNpJEcs7bkn5psgf7472/HjbnhXYiwUcuric0FnZUpJ6ULGtfiWyuhytub9mX0QIFAIC0e2dSdWVhccFzvuYd1MCJlbe23EIMiLLuE8aOTIb9R8g0WdJYEomMfrk/5qafxiy+kNuY8GE6T2z8VBiGf5ZUmKUfMRXzcMuy29peY7RAAQAg7VadUP/5wPVrjgF5b2lFomUsl9Miinx6dVGip3CCheGxMhsvbn2KupRLi0z6oSv4SdWtze8SCf5Txwn133LX97L2mCWdUXVryzWMFCgAAGRE4vj6OZJOJIm8XiIdWHlr6wPkgChpP76x2pSaKtkxkjYikbzUJ9dDHtg9qwvtvhHXN3cSCbxpfLzj5TeekLRjln7ExytvbdmTkQIFAICM4FaAvPdY5a0tnyEGRGVi3/nK6wfK7SSX9mF+g//QIekeD+2WqtuX/pk48nxnOLGh0UP/i6TiLPx4Ybw/tWXpXcteZaRAAQAgMyfCExr3cg8fFpfG5t/B34K9K25p/i1JIJe9M6m6sqCoYKoCnS7XFiSCj7HEpVus3+fxasH8lTiu4QKZZ+Wbb9zs9Kpbls5ilEABACBj2k+ov9ikC0kirzxWeQu//Ufu6jqudvNULDhdrqmSqkgE62i1u34aBH5jxc2tjxJHfvEp4wo6vOspeRa+FcC5DQAUAAAyfa5pGh/veOXNRZLvThr5IXDbp/zWpY+QBHJN+/GN1YGlprtsirLzEl7k2jlQeiaQ31Be0TnXZr7SQyL5ofPExk+FHj4lKZ5lHy2Mx1Nblt7IbQCgAACQQe9OadwyHobPSBpKGpE/7P+h8pale5ADcknH8fVjXNYk868yd0GGvG7uN6ig8MaKG599kziiL3Fi3RVyOzvbPpebnVZ189LZjBAyhft+AWjYnOaXZDqeJKIvlH+XFJAzE/Tjams7Tqhf4Ka/yfwQFv/IoE3d7Lue7H8pcULdbZ0n1I4lkmjrtLLvSHo+6z6Y+1cYHWQSJ1IA/9J+fP11ZppGEpH1ROUtLbsRA7Ldqiljtg3C1LclTZIUIxEMxjLMTA+nUn5V1W2tD5vkRBLBEuD4hr1D84ezbE3UnwxWbzxszgvtjBAoAABktgCYUv8lcz1IEhGdzcq/WHVz669JAtmq46SxIzzV9z3JjpNUQCLIEs9JPqNiVWyBLWzuI46IHXdOaJjv5hOzaoHmOrzilpZ7GB1kArcAAPj3CUc6nBQi608s/pGt/JhRxYkT68/zVP9yyaay+EeW2U6y2zuGhC8mTqz7xspjPjWESCI09ym0r0vKrt+2m3+ZkUEG5/sAsGYC3lFQ8oakStKI4PgGwX5VNzX/iiSQbRLH131ZseBquW9DGsgRHZKuT/UXXTr0jmdWEUfuaz+xYbrJZ2XRR3q3YotNNrGmRUlGB+nGFQAAJEmdhaVfZvEf2eX/Uyz+kW1WTa3dMXFiw+MK7H4W/8gxFZLOixWsfj5xQsMFb05rLCeS3Fa5aun1Jv01iz7SsM5/vsEze0ABACCDS0T3I0ghmkzBlaSAbPHO9OrKjhPrZgVh8CfJdycR5LBhMv9+cX/498SU+nNfP3JsGZHk6HlyoVJhGJwsKcyeeZkOYGSQmXkhgLz37pRtquIqel1SMWlEzj8qNt+kmssIkQ06Tqw7xM2ukbQFaSCC3jDpu+Wbb3Izx9zclJhaP0euE7OiAJCerprTsgOjgnTjCgAAilvxV1n8R5T5LCaiGGzdJ9VskZjS8CM3+xGLf0TYJi5d3/HaG0s6pjRMII4cPGVawTclrcqKzyJ9quOksSMYFVAAAMjAGtF5+n80dSS971ZiwGBxydqnNJyWDGNtkh9CIsgTtS6/t2NK/a87TqofQxy5o+LGZ9+U+UXZMj1Tqn8vRgUUAADSqvOEMZu4xAkmgsx027A5L7STBAZD97Qxn0hMqX/Y5NdI4t5o5B2X9vVQzySmNNzUecKYTUgkR0oAL5stqS0r9iHT5xkRUAAASKtUkJwgKU4S0RvalMdmEwMGQ8eUhgnJZOoZk/YmDeS5mORTwiDV1n5i/ek+QTEiyW42Z3F/aJqeFZ9F2ocRQQb2KwD5LDG14XGexB1JP6m8qYVLrjGwx5NT6oYrZTfIxf3PwAfOvP2pMLSThsxp+SthZPv8qP7nkvYf9A8Sem3lza3LGBGkC1cAAHls5Sn1W0nOe2ajyIOZhICB1HFS3Xgl7TkW/8BHHZttp8D0ZMfU+qvfmV5dSSDZy0I7V1Jq0D9HoPGMBigAAKRFrN+PEFcCRW/SIi2unNP8OElgQNYzkrVPrT/d3R6StBmJAB9/+nXp9IK+gtb2qfVHEUd2qrh5abNMtw/6MdZtD0YDFAAA0rVUPIIMoieUX0UKGAiJU+qGd0ytf9CkqyUVkAiwTjYz6c7E1Pqfd59Uw+sxs1AsHn5HUtfgTtVEAQAKAAAbrmPamHqZxpJE1PiblV72I3JAprWfXL+rJe2vyoZ7ZIHctn/SY890TK3/GlFkl7Jr215zabBvqdu6+4SxIxkNpAtP/gbyVBimjjAu/o8e0112w+J+gkAmdUytn+aumW4qJA0gLTZy6YeJk+oOtYLktIrZK94ikuyQLOy/oqA/PkWyEYP1GfpjfXtKupvRQDpwBQCQr+tEE79piOS4xm8jBWSKN42Pt59Uf52brpNY/AMZOIof6v3xJR0n1fEWlywxfPaKhCv4/iCf3LkNABQAANZfxykNjXLVkETk/LHi+iUtxIBMWHXydkMTr7/xS5OmkQaQ0dXeCJf9qOOkunm8KSA7VBb03eTSy4O2R/C6ZlAAANggKT+IEKI4Z7RbCAGZ0D6tsTrw5B9M2oc0gIHhskkF/QXPJk6qZfE32KfX2StWB+YXD+InGPPmtMZyRgIUAADWb1Jh+jIpRE5Hr9lCYkC6dU5t2NvC8ElJ9aQBDLitpOB3iZPqz/Um5u2DqTxVdruk5wfpn4+VpMIdGAVQAABYZ12n1m4uaWeZxBap7Z4R1zd3socjnTpOqjskDPxBmYbyHWNjG7StQKbLOt6oe/i9czgGgc1Z3O+BvjdY+4EH2oVRAAUAgHUWpuyA904niNTAOg//Q1q1n1x/hpvdK6mYNICsWILulUrZ0+3TGr9IFoOj8q2W+XI9Nyj/uPvOjAAoAACs+/lDdiApRM7SyptanyAGpOcYIUucXH+prXn3NfMEILtKgBHm4S/ap9V/j1sCBiH9hUq5ghMG5d82owAABQCAdfPeA2T2JonILdluJQOkZU9qGh/vOLn+dknnkQaQvetQc32r4426n7cf3ziMOAZW1Y3NT0r2hwE/Pktbdk5r3JQRAAUAgLVW7OE+4nLeqOm3eHIuMWCDJ5fTq4s63nj9x5KOJg0gJ3qAL1ph+JdVp9TzcLiBz/7ywfhXU2Hqk2QPCgAAaz/BN32BhylFbnu4YvaKt9i7sUHHhmNGFXekCn4iswP5TrGx5dS2deD6Q2Ja3TEcyQZO5Q3N98v0i4Eeb4vZWNIHBQCAtWbSF0ghais3v5cQsEG70JkjSzpLSu+TtD9pADmpWLLbE9PqbvQJjYXEMUDHzsBnDfw/KgoAUAAAWDuJU+pqJG1NEpGyOpnqu48YsL5emzKuNLG64gE3pxwEcp5N7dg4fDgxpWYjssi8ymtbH5KsdYD/WW4BAAUAgLXjYcAEP3p+NWzOC+3EgPXx+tljy8pj3T83HgwKRMlnFI//uWNqYwNRZJZJLvmVA/zP1nGVBygAAKzdiYrf8EWOy+8hBazXvnPMqOKS7v6fyTSeNIDIfcO38Vj4x/ZpjV8ki8yqiPXPk/TaAP6TBV2bqp7kQQEA4KOnAtOri2T6LA9Lis5mpu7Vij3A3o11Ph5MUKyjrHiumfbmu8TGFtmtyix8MHFKPa/0zCCbvWK1yb43kGObCkOeAwAKAAAfrSss3ENSOUlEaBEn/8WI65s7SQLrtN80KegcUXenZIeSBhB5MUmXJk6pu9GbxseJIzPK31p6i6TfD1jp4E4BAAoAAB8t5B7fyDGPcfk/1m3xL1nizfrrXDaJNIC8OmNM7XjrjXt9enURWWQg3YVKWapggqTEgPx7Aa8CBAUAgI9fLX6OECKls7yo/efEgHXRcUr9JWY6iSSAvHRwIlXw4Otnjy0jivSruPHZN01+x0D8W86rAEEBAOCjvDmtsVyucSQRHSb/mc18pYcksNaL/1MbTpLEvcBAPp87TPuU9vT9LnFK3XDSSL/QY7MlhQPwT23aefqYTUgcFAAAPlBR4HvKVMADkaKzuYKF7NlYW4lT6w9y+bV8d9jY2GS2kwL7bee0xk05OqZX1fXNK2T61YCMY5jajsRBAQDgA5l8PClESk9nf8nDxIC1serU2h0lzdOah4EBgOQaGwbhH1dNH7MtYaQ52jCYPTD/jkaTNigAAHwYCoBIzS7sN5vPWdxNEPjYxf/JNdsEsp9L4p5fAO+3tXnqd5QA6VV5ffOv5WobgBVcDWmDAgDA/3hnenWlpB1IIkpH7fABQsDHSZxSNzwIYr+QbARpAPggJn0i8OSi9mmN1aSRtkzdA7820/+OuxgzUAAA+F9xFewpiXf/RofH3Hn6Pz56J2kaH5fpXplqSQPAxyxZR1qQ+h0lQPr0lfidyvQrAZ1bAEABAOCDTutuu/PAoyht/peya9teY8/GR+l8+/UZMtuL7wsbG9taPhhwpMXCxzrOGFPPEXTDbXx5W4cFuj2jYxZoa28azy94QAEA4H8agN0IIVKFDpf/4yO1T68/ys2mkwSAdbSpp1K/pQRIjzAZXKvMvhKwsL39tS1JGhQAAP7Fp4wrMGknkohQARAPKADwUYv/XU2aQxIA1rsESKYebj+tnsvLN1DV9c0r5PpVRucE/QHjBAoAAP+WKOn9lEulJBENLr1cdnXz30gCH6RzWuOm5vqRpCLSALD+q0ptYe6/XXlG3SjC2MDzdqDrMrqIC4znNoACAMB/CP3ThBCpSdkDJjlB4H8mmU3j42HMfyTTFqQBIA0nnJGxlP2646SxvEVkA1QOa/mVpOczd/B3XgUICgAA/3Vm2I0HG0Vp8/vZp/FBOla+cbHMeeAnGxtbOrcaL+x/uP3MxmEcZdezRmlSKLMbMzVGblwBAAoAAP+NBwBGR2dlmFxEDHi/9tMavyjXOSQBIAPGWip84PWzx5YRxfrxmN0mqSdDfz3PAAAFAIA1us+s2cJMnyCJqLDf2ewVq8kB//M9V3gX53IAGbRbWV//T3x6Nc8XWQ9VM5vfldk9Gfrrt/Imjv9Yd7w/EoigpMd4+n+EuPQwKeC/9omm8fGOd99YIGlj0sg5XZI6JCXkek3SSx7opcD9ZZnesdDa1+64EAzxILWVubZyBaMk30rSlpKGEDHSfA7at8MK53uTDrOmjL7aLpJMfrtLx2Tgry7sXlW/idTyT1IGBQCQ7yfrUDsaMURn8mCph0gB/ynx7pvfNOkzJJF1Vkp6TtIyuZbJbFkQ2D+S1p9Qb9HKqrefS9hCpTL5Ad6dsk1VYUnBVmFoW7nZNpLqzFUnU6MojLD+M4tDOlfWzZRaTyeLdVN+TctjHafVPy9p23T/3Um3LSVRAIACAMh3gdmOzgPjI7L61z8qr25rIwj8v/bTG3cyhReSxKBLyvVXC/zPoQdPWix8smJG6/LBflvHsDkvtEt69r3tvyROqRseFNr27trFQ9tFFu4iGU96x9pVALLT2k+vf7HqmpaZpLEup3F5h3Snm76X9vnemqt+/kzKoAAA8voELeuQ70gSkRlQfvuPf+8OZ44s6QjDOzl/D9KCX/ZnuX7vFj66uj/2hxHXN3fm0g9QeV3rO5J+894mSVo1fcy2MUvuHQa2t7n2krQRQ42PWMxe2XF63UsV17T+mDTWXr8Fd8YVNinNz2xxhVuSLigAgDzXfmbN1kGo4SQRlcmWcf8//qUzrPiBpHqSGDAvyuwhU/jr/qK+R4Zd9kJ71H7AIbOXPK817yqf400K2lfVfyoItY8F2ttde0oqYTfAfwhcNjdxWt0/K2e1/pE41s6wa5pfSpze8Kjkn0vrHMGMBz6DAgDId7GU7Sjj8v+ISIVB8AgxQJI6zqgbL/fTeL5HxrXKfKG5flR+Tduz+fSDr3nAW8tfJf1V0uU+vbqoMxbb3dw+79KBkhrYPSCpRKaftZ9Wv1vVrJblxLGW3y+F90hKawEgF1cAYD32RQCR0nl6/eUu573g0ThA/7n8mtZdSQJvnVtbUbLannVpFGlkxEuS3SXXPRWzWpYQxwdLnF5bK9nBgdvBbr4T88i8P0s970nf5b1bS/Bx35+v12xkyeA1SQXpW//rL5XXtPLmJ6wTrgAAIsaDcAc5c7JIjKWc+/8hSSru0/fcWPynWbfLfxyEsTvLhi39Ha83+3iV17S1SbpU0qU9X6/fqj/0I8w1SdIY0snLs9S2VqB7vWn8F6xpUZI8Pub7c9WytxOn1z1ipi+m6+80cQUA1mu/ARAlHWfUvSUe4hSNqZWHe1Zes+xxkshvXWfU7xDKn5QUI420TH1aJL+hv6jvrije0z8YOk+vHSvTJJcdKWkzEsk7syuubj2NGNbiu3Jm3dHuuiOdU4Vy6yyzma/0kC4oAIB8XCicWrt5GLdXSSISEuXdZRvZnMX9RJG/fIJiHVvUPWESl3humFCun8n82vKr23432K/qi+z+2jQ+3rHqjQMC+QkufVGUVvkz9vLjK69uu40kPtq7521TVbC68A1JRWk7uFlsdNXM5hWki7UVEAEQoRNwgcaSQjSY9CiLf3RuUTeNxf8GWS35Le7eUHFN61crrm77LYv/DB63mhYlK69uua/86tYDYqnkKMkvkvQmyeTDOcuuT5xWtxtJfLQ1Vx3Zr9L5d8bD/qEkCwoAIE+FYfBJUoiMRUSQ37pOrd1c0sUksV76ZJoVyLauuLrtxPfuXccAKp294pWKq9u+XT6kdyuXHy/pWVKJtCIz/bh7evVIovgYph+m869zj1cSKtYFDwEEonROCZwrACIzlnqUFPJbqiC4zORM7NZNKNPdqcC/NeTKtr8TRxYcy5pe7JV0m6TbOs9q2Ns99Q3J9iaZSC5sN03G4j/xplGfeW/c8QG6YgUPlKX6uiWVpuWgF3gFqWJdcAUAEC1cARAN7aUvtT5DDHm8A5xZs7PJJ5HEOi0+fm8W7lAxo3Uyi//sVD5j6SMVM9v2cdduJv1c3I4Rva+ha6fO9pKZJPHhNr3y2S7JHkzbYi4QRTEoAIB85NOriyTVkkQU1jF63BYqRRJ5+l2WLPDYVeJBvWvrDTM7unxG6/jyGcv+RhzZr/Lq1ifKZ7YeEFgwzqQHSSRyR7GTOs6sP5wcPioivyd9fxVXioECAMhLXQVBnbitJxJCOZf/57HOs2oPlfkeJPHx81653ZD04rryGS138XC/3FM2Y+nT5TNbv+xBuKekP5JIpL6ecxKn1/JLiQ9Rbp2/lNSZngMhVwCAAgDI01Vj0EAIkVnWMBHO16GfXl0kt0tJ4mMnvP+Q+z4VV7dMG3r1M6tIJLdVXrXs8YqZrbu7+VckLSWRSKiwwO71M0eWEMX/spmv9Mj0QHoWc1wBAAoAID8nxIHXyyS2nN+SFd3lT7NH56euePxUmbbhe/Dhm5nf2p9Mjq24uu237DERKwJmtN1fXrXpJy3wM2S+iv0957exnVY2iz37Q+ZtZvemI2cPxEMAQQEA5OmZpJ4QojCOWmpzFncTRP55/eyxZW46jyQ+mEl/Dyzcv3xG2wnDZ69IkEhEx7lpUbL8qrZr1J+qkXSzpJBUcnpET+j8ev2R5PC/Kip6fiWpY8OnDVZGmqAAAPJzdkwBEIVhNPsLKeSnUu8/RdLGJPE/kmZ2RVln2Ziyq5b9kjjyZHE0e8VbFTNapwSmnSX9lURyl7tf335mYzVJvO98v+ZVifdv8N/jVkqaoAAA8u3k2jQ+Lmk0SURhohQ+RQr5581pjeXmfg5J/I+/mcIdy69qOZcrY/JT2VWti8srN93FXGeb1EUiOak8CFJ3vTdXwX+d833hhhcATgEACgAg33R0vFYtqZAkInFQ5gqAPFRckjpV0kYk8Z+zWruxvLJ3V17tB2talCyf2XpVf6gxLv2KRHJxpatPd7b/83yC+G8VVat/rQ18G4CbKABAAQDknTDG5f/RkCytWr2EGPLLmt/+6yyS+JeEmSZWXNVy8nuXyAKSpKFXt75YOaN1P8kPk7SSRHKM2Xfaz6zZmSD+I5KmF3vlemiD/g6nAAAFAJCH32Sv5WnDkdiWseDJP6XFqZNk2pj9X5JphUs7lV/Vejd7Bj5MxYy2hclQO8i0iO9MTm3xIAju9KZxLFj/g5se2MC3AJAnKACA/Fv/Ow/XiYZniSDPJn5N4+MuTScJSe6PeaF2rZzRuoww8HGGXt36YnlF694mO0sSxWnuqOtMdF1GDP9m/cmfS0ptwF/BWwBAAQDk3bw5MAqAKIyjUQDkm66O1yfItCX7vs0r7099vvKS1nfYK7DWC6cmheVXtcwMPNhNEsVRzgycTuk8p25fglijYvaKt+T60wb8FVwBAAoAIP9mz7wBIApiofGws/ybCZ9BBn59RXnL0TZ7xWqywPoom7H06Z6e2Dg3m0cauXHg85Rufuvc2gqieO8oGNgDFACgAACwdieNNffSbUYSEZgRKfYcKeSPxDkNe7o83x+I9YOKq9pOsSaF7BHYECOub+6svLLlSHcdKxevjMz+E96WxUm7mCDeiyOZvH8D/ji3AIACAMgnXe1d28pkPFwo57eVpTOWvMwenU/z39RZ+bzPu3RhxVWtF7InIJ0qZ7TeESjYw6QXOa9k+Rbo1Paz6ndlr5Uqrl7eokAvrGeWMW8aVUyKoAAA8oQHXP4fEVz+n0e6z6zZQm5fztvjluvCyqtaf8CegEwom7H06VQYGydt2OvVkPl1SBD47T69uogoJIX65fr+0UR7GbcBgAIAyJuJtPm2pBAJS4ggf6QCO1ZSLB9/dpO+zuIfmVY1s/nd8n+07m/ul5NGVqvrLIqfTwxSENgv1vfPFphxGwAoAID8+RJbPSnkPucVgPkz1k0KtKYAyL/Fv9tZ5Ve2zmAvwIDsbwuVKr+q7TyXHyepj0Sy1jc6vt7YkO8hlJaVLpLUsz5/Nml9FACgAADyaOH4KVKIwjgGFAB5oivR8Dm5tsnDY9UF5Ve1zGQPwECrvLLtdgX+RUkrSSMrFclSc3zNHe15y5oWd7v06HodXy1exW4ECgAgHybUExSTqZGHCeX85qvLrZk9Ok++t/HwhLx74F+gGZVXtl7C6GOwVFze9jv3cDeZPc85Jyu33bvOrZ2Y7/upmX6xPvnFYuEQvuWgAADyQM8nxmwuqZAkct6rI5qaO4kh+trPbBwm10F5NaGV7qi4vPVsRh+DrfKqZa1WENtdpqdJI/u426Wvnz02ry9lD2Ox9XoQoKdsKHsQKACAPJCM9W9JCpGY9rSRQZ6cdOPJr0nKm9c1ufSrsrJNT1zz1j9g8JX/YMkb/db3OZl+TxpZZ2SZ9Z2bzwFUXdq8QqZl6/wHLaQAAAUAkBdfYNMoUojEKokCIG/G2ibn0U+7NNVffIQ1LUoy8Mgmwy57ob28J7mvpB+TRtY5p+fr9Vvl+Xnil+v+R2wIuw4oAIA8EMq4AiACbH3afuScVefXbCPTp/Pkx309Htr+Q69+ZhUjj6w87s5esbq8bNPDJS0gjaxSkgw8r58XYvJ1fh1gEHILACgAgHz5Ao/mwUER2MQVAPkgFsYmyWR5sE+vDj04qOSqln8w6sjqhVbTomT5i61HuWwe56Ks2g5PnFe3W77ul2Vlvb83U9c6PWg15sV8o0EBAOQBlz5JCrkvjNsLpJAX39j8uPzfdHrVlUv/zHgjJ3bXhUpVvNhyjMvnkkb2DEsgzcjX1wJa04u9cv123U4v9ha7DSgAgIjrOLf2c5IaSSL3VRSVvUIK0dZ1bu2Okmqiv/bX7RWXtd7EiCPnSoDStmNcupM0soO7duk4u/6g/N0pbeE6/ecePsVeAwoAIKISZ9d9uuPc2t9I9ltJRSSS896xpsXdxBDxyazsq3nwYz5d1t95CqONnFxvNSms+Hvr8ZJ+RBpZMiaBX+RN+blWKVtV+kPJWtYuKL1a1l7+CHsMKACAiOk8p/FTnefWPWCB/ijZ3iQSmaXhy2SQFwXAQVE/RHlMh9vMV3oYbeTsgnOhUuWlsUmSfk0aWaGxq6d2Yl7ui3MW9ysVHCrpnbU4w5xlcxb3s7tgrfcvIgCyW8e5o+tl8e9Kfijf2UgehB8ov6z1QJKIrsQ3auosDFqi/DO6+3GVl7fdzmgjEvtz07jSzu6uh2TanTQG3QvlK8vq8nWBmzi3tlZm80za8QP+5z5JZ1dc1jqb3QTrgisAgCzVeU7jpp3n1d4iiz0n+QQW/xGdaEovkULEpYKDo70T+z0s/hEl1rS4O9lXfIBcS0hj0G3TOazz+Hz94Ssvb2urKGndxUN9We63yPwxd/3K3C8LQxvD4h/rdYwjAiDL5tLTq4s6ygrOMPcLJFWSSNQPwn5G+WVt15BEdHWeV/9nl+8c0R/v1eTq4jFDr35mFSONqOk5r3HLpFJ/krQZaQyq18r7Oqu5xQhID64AALJI4vz6gztLC5rN/VIW/3lTAbSSQXR1XVC/mct3iurP56FOYvGPqCq5rPmlwPRlk7pIY1Bt3lVUPo0YAAoAIDI6zh1dnzi37pfm/hPJtyWRPDoIx+NLSSG6POn7KqJX27l0V+UVrQ8yyoiysktbF1tgh0lKksYgHm9c5/iZI0tIAthwcSIABs+bTY3lJb3hxZKfalKMRPJOZ8n3l7xCDBGetMa0rzySP9rrvjp2JiOMvCgBLmn5Ref5dee7dCVpDJpNOovKjpZ0I1EAG4YrAIBB0n5e/ZeKe1NLJD9dLP7zc3FoajVFdHkIeZMCufaJ4s9m8rOrZja/yygjX5Rf2nqVSXeQxCAed9zO9abx/PISoAAAckvXubWbd5xXtzAwf9CkrUgkrxsA7v+PsO7euu0ljYjgj7ao7NK2BYww8k1Zcdkpcn+GJAbrlKmtu3r+eThJABQAQG6cuJoUdJxXe3IY2FKZDiURmOlFUoiulLRvBH+sfnlwKleuIC+P2U2Lu5NmB0t6mzQGqwSw8523mAEUAEC2W3V+zTadvbWLZHa9pCoSwZqZjL9MCBFeLLjvHbldVrq24rKlzYwu8tXQS1tfDMyOFiXYYGnsOK/2QGIAKACArJU4v/6EmAXPyGxPmcTG9v9bEIQUABHlTePjFtiuEdtnV3px7GJGF/mu7JKWX7jpKs5jg3XutG+wFwIUAEDW6Th72xEdF9TfZ+Y3S6ogEbxf6AX/IIVoSvS/toNLZVH6mcz0/aomHvwHSFJF0abfkPQESQw8l3ZJnFezB0kAFABA9kz+z68/WAUFS+T+FdLAh+krWs0rACMqFgaRmpya9GJZR/JaRhZ47zvRtCiZivkkyVeRxiDkH8SmkwJAAQAMutfPHlvW+Y2628z8J5I2JhF8hMTwphUJYogml3aP0s8Tyr9ns1esZmSBfxtycdvfTcFpJDEoR9mvdp9bPZIcAAoAYPBWc9+oqSsr6HvCpWNJAx/P3iKDyC7+TVKErgCw5yuKNpvLyAL/q/ySlrky/ZgkBlw8FYufTAwABQAwOIv/C2qPMwsWy7QdD+hhW5vNzVfyzYmm9vNrtpZpRFT2VZNfZE2Lkows8CEK+6fJ9BbntgHfTvSmUcXsgAAFADBgXj97bFnigro7TXarpFISwdoyEw9Ti6iY2Q4R+nGWlxVtOp9RBT5cRdPzb8p9GkkMuI07VhcdQQwABQAwIDouqB9TVtj/lElHkQbWmVMARJVFqQAwn8Fv/4G1KAEuafuRpJ+SxEAfb8UzGAAKAGAAFv8X1h0i+ROS15MG1tM7RBBNLkWlAHirvLvrTkYUWDuxZPI0SR0kMaAVwKcS36jdnRwACgAgUxN767iw7rtyLZRUTiJY7ymLxBsAoisqBcD1NvOVHoYTWDull694xcy+TRIDvJgJ7HhSACgAgLR7s6mxvPOC2p9I+rZMxsN32DboIYASr1SLoJ7zGreUaeMI7KOr5cnrGFFg3ZQta5kt0185zw3gJh321rm1Fex9AAUAkDarzq/ZpqQ/9YTMDiINpINLfaQQPX2xcLuI/Cg/qrhkBa+qBNaRLVTKQ5265jCPATqflhXFg6+RBEABAKRFxzfqPhuLBU9KGkMaSOPBlwIggmLmtdGYUIc3MprA+qm8pPUJST8kiYFj5seSAkABAGz44v+btYcq0K8kDScNpHWBZdwCEMlxleoiMJVuqfj+sj8wmsD6ixUkz5XUTRIDZreOb47mwcwABQCw/hIX1J8nt3slFZMG0r/GUj8hRFLOXwFgFt5kXL4MbJDSphWvyGwmSQwc99hxpAB8vDgRAO87gUxQrLOm/lqZn0QayNh+JoWkEEGW81cAJD2evJuBBDZcb194WXGhnShpBGkMxOFXR/qUcRfYnMUU7MBH4AoA4D+8fvbYsq7auvtY/ANYV6vO325ork/0Xf5QRdPzbzKawIbb+PK2DnNdRhIDZpPERt37EgNAAQCs9eS9vLjvEZcOIA0A66qgoH+bnJ8UmM1nJIH0KevuvEHSayQxMCwIeRsAQAEAfLzOC8ZsEov3L3JpF9IAsD5Sbp/I8R+hu7On8GeMJJDGBenMV3pkuoQkBihv2Ve8aRTPbgI+As8AQN7raWrcMpXqf9hcNaSBgRLwjLUITjz9E5bD4+rSQ5te+WwXIwmkV/mq5M1dVbFzJX2CNDKusjNZvL+knxAF8GFzUCCPtX+zfnQqlXxMUo1MYmMbsI2jb/QKgMA/kcv7pJn/lFEEMnBsmL1itZtdzrlvwI5l3AYAUAAA/6vzW3XbxSz8vaQtSQPABgtz+ljSn+wveoBBBDKjvLPzVsnfIIkBcYCfPbaMGAAKAODfi/+m2rGS/1bSpqQBIB0syOnLex8fculzKxlFIEPHh5mv9Ei6miQGRGlXad+BxABQAACSpI6m+jFK6TeSNiINAOninsPHFLeHGUEgs/r6kjdIWkUSA3E85jYAgAIAkNTxrYZGS4WPSNqYNACk2bBc/eBmeojhAzJ8gLjshXaZbiKJATimSft607hSkgD+F28BQN5IfLO21iz1sKQRpAEgnVyyLtPQHP34b5cGrU8zikDmBSmfHcbsLEkFpJFRJd3q3EfS/UQBvO84RATIi8V/U01dEPijkjYjDQDptvK8bSolxXLxs5trkTUpZBSBzCv9/rJXzfUzksi8MLQDSAGgAEAe6m6qHhmE9ivJNiENABmZ1JfEh+fqZ3fT44wgMHBS8lmkkHkmP8DXvBwQAAUA8kXHN6o3DsPYbyRtRRoAMiUpr8zZSbL7HxlBYOBUXrTsMcm47SbzNuv+Vt0OxABQACBPvNNUXWkFsV9KqiUNABldRCueq+fTrtI3Kp5hBIGB5fKbSWEgDs4htwEA78NDABHNE2vTqOIuj/1MpnGkgSyd/SF6LUAufuSnbc7ifgYPGFj9q/sXFJYUXCVXCWlk8lRrB0j6LkkA/8YVAIjewX6CYp1edLek8aQBAB95xHyGDICBN+yyF9ol/YgkMsw0ruuCeh4ADVAAIMq6GmpnmHQQSQDAx63/jQIAGKyvn+w2Ush8yF4Y7k0QAAUAIqqzqeYsSaeRBACszeTYnyUEYHCUN7U+6tILJJFxexEBQAGACOpoqvuq3K4gCQBYK72lsb7niAEYHCa55D8kiQxzfY4QAAoAREzX92p2MvlcmQLZmrMqG1tWbzG+t1GczefY9idrerGXgQMG8bARC37IOTHj26ieprpR7G0ABQAioqepbpSH9nNJpaQBAGvHZY+SAjC4yr/d+pzkzSSRWaGc2wAACgBEYgJ7xdiylPxnkjYmDeTWZCQoJgUMskVEAAw+k3EbQKbni+I2AIACALl/MHdZd9fqOyWNJQ3k3sE3HEYKGESpcpU9SQzA4Atj4Y9JIeMoAAAKAOS67u/VftOlQ0gCucjdKAAwmF6wpsXdxAAMvopvLW8x+QqSyKgtEk11NcQASHEiQC7q+m7tV1xqkpEFctZwIoiYXDoemf2DAQOyhyu4X+ZnkUTmBNI4SctIAnwXgByTaKqpc2ku+y9yHFcAYPDW/+7tpABkUwGgB0gh4xnXkgLAAgq5dvC+YmxZYPqRpArSQI7jCgAM3rHU1UMKQPYo16aPS1pJEplj8jpSACgAkGO6uvqul6yRJBCBiQhXAAAA1pwTmhYlTfotSWQUVwAAFADIJR3frTlF5keRBKLAZVwBAAD4l1B6hBQyWwB403ief4a8x5cAOaH74pqdw9BmkAQipMrvVcwOU4ooIiDodymWO5+XB6gCWcfdHrHACSJzSjr9jTpJS4gCeT1lIQJku5VNo4aEod0rqZA0EKXjb8eKuiHEEA2hCvtIAcCGqGxqXSbpZZLIHAtSO5ACKACALFcQFN0kaSuSQOT08SDAqEhZXy8pANjwFarzHIDMBrw9GYACAMhiXd+tPV7SYSSBSIprI0KIyFCmirpIAcCGr//1OClkFAUAKACIANkqcVFtrZuuIQlEdqIX+khSiIay7zS/IYkSAMAGCcPYn0ghoz7lzlNQQAEAZB2fVV0UyO6WqUwmsbFFcTOzT/Btj0iZY3IF+lOu7HseeDejBmSfcrUslSnBOTJjW1Xiu43bsqeBAgDIMl3tse9KzmVaiHjTxRUAkSoBXL/LmQ8b6m1GDMjC40iTQsmeJIkMLn7iSeaXoAAAsknie7W7SzqbJBD5iZ7EFQAR4m5/z5l9L9A7jBiQrccS5zaAjAasTxICKACAbDkmXzG2LBb4HcqpF2oD67m/m3EFQISECnPo9V0BBQCQrcyeJoQMHv1cdaQACgAgS3SuXn2lu1WTBPJkyTiKDKKjIIi9lDu7XuiMGJClX0/Zc6SQOW6qJQVQAADZsPi/qG5fk6bygBq2/Nlsk3eaqiv59kdDcXKTV2VK5cQDKGNBMSMGZKfKVMvzMnVxjszYNtrv5UpTUAAAg+rNpsZymc9579AM5M+isaCAK14iwpoWJWX6Zy581tCdAgDI2mOJQpktIYmMKUo837g1MYACABhEZQX9P5C0FUkg34QKKQCixO2FnFhgmEoYLCCLDyXu3AaQQfFksoEUQAEADJLui+t3dbdpJIG8PAjzzItoTdrlS3Pjk9omjBaQxd9QqZkUMnisNqcAAAUAMCgH4FnVRaHC28RT/5G3C8ZwNClEatqeG5N2980ZKyCbDyUBBUBmG4BGQkC+ihMBBlNnR/wbZl5PEsjjWR6TkEgNp+fIpN02Y7CA7BXE+1vCJL8bydwhUFwBgPw9vhABBkvvJTXbmPw8kkCea/AmjsWR0Z/MiQLA5SMZLCB7lfSseE1SP0lkTD3nXlAAAAMsmdI1kngSNfJd2eqimlHEEA0VTc+/KemtbP+cJm3pN40rYMSALP2ONil06WWSyJiS9lg1bwIABQAwULourvuyzA4gCUBKuY0hhUj5Sw58xnj7m+1bMlRAFpcAppdIIXMKLM5tAKAAAAaCz6oucvOrSAL41zSPAiBSk3b/Uy58zng8vi2jBWTzhMkoADIZbxDyDB7kJR4CiAHX3RWcLxNPPgf+fxIi/yQpRGg8PfaELMyFD9og6SFGDMjWc4P+bkYOGbSXpEuJAfmGKwAwoHouqt3a3XjwH/Dfk7wdSSE6+mKrn5SUAw2AdmC0gGyepYcthJBJtve7l25TRQ6gAAAyKBnT1ZJKSAL4jymItHXiB3XDSSIahp3/QrukpTnwUbdntIAsFsaaCSGz66CiZAFXpIICAMiUru+P/pJJB5IE8L8dQOBcBRAl7no8Bz5mnc8YSSELZO8k/R1SyKwwZuWkAAoAIBOT4ZvGFXgQzCQJ4EMaAPOdSCFSA/pwDnzKeE9vyVgGC0DeLoTCkBIUeYeHAGJAdL7bcaLJRouH2QAfKJQoACIk2df724KiomS2n2ddwfaS/syIAVmKeRMJA2nGFQDIuDebGstN9i2SAD5yBrKbOxORqBja9OIqk57M9s8ZynkOAAAAFABA+pQV958laVOSAD7SRp2XNTQQQ5R41r9iz2SfZpwAAKAAANKi44ptR7jb2SQBrMUB2VN7kkJ0WBD7dQ58zDEdV2w7gtECAIACANjwHaw/9k1JFSQBfDyXf4YUoqOkp+VJSf/M8o9pSsY+x2gBAJAfeAggMqb3kpptkmZTSQJY67UYVwBEaTSbFHZdqvtcOjm7P2mwt6R7GDEgGw8kRJBRTgTIP1wBgIxJBrpYUiFJAGttZPvl9aOJIUJzS/MfZ//6wg/wJuYDAABQAADrqfPy0Z+S29dIAljHg7L7F0ghOsp6Nn9U0jtZ/jE36ykczWsoAQCgAADWj4exb7N/AevOwpACIErj2bQoKen+bP+cqcAOZLQAAKAAANZZxw+qG0z+FZIA1mfFaJ/zWdVFBBEhbj/MgcnAYe7cbQwAQNTxEECkf/0Si39LcsolYP2Uda0O9pT0G6KIyIBu2/pI1wu1r8q0RbZ+RpdV91w5emdp+Z8ZMSCbJlVEwEoISC8WaUirxGW1tZJPIAlgA4T6IiFEaP5+mFIyzcv2z+mhTWa0AACgAADWfodyu0BSjCSADVoycj92xHgsdVfWf0bZ17j9BAAACgBgrfReUrONzCeSBLDBRndc2tBIDNFRcfaKpTI9leUfc+OuntihjBYAABQAwMfqD+wb4m4qID0H5yB1MClEi7luy/rPKE1jpAAAoAAAPlLXZbWbm+ko2ZoZJBsb24ZtLh3EkSVix8me+DyZ2rN6vzPt1nVV9faMFpAFSjkXZnwDKACA9ROu+a1RIUkAabNDz6WNWxJDdIxoau6U685s/5yeCs5htIAs0BeyRAWQdlyujQ2fLM4YWdKd9KkkAaSVeazvIEmziCJCJ10Lrk0pNV3Z/bunw3ovr/9O8bktyxkxYPDEQi9O8VhlAGnGFQDYYN2pkqMkbUQSQJq5HUQI0fLeovqRbF93pJQ6l9ECBlfSgjJSAEABgOxan7hMbqeRBJCB75e0Z+IHdcNJInIje00OfMijei+v3paxAgZ1kl5BCgAoAJBVuq6o/YJMDTxIho0tI1s8KAwP4EgTLaXnLP+5pOeyfN8rTFrwA0YLGESxcBPOgxneAjk7GigAgHVgFp5BCkAGv2MuXgcYueOm3M0vzfrPKU3ovqxmZ0YMGBxuvgkpZDjjMEyRAigAgLW05vJQ+zxJABldhn3er2ssJ4doKeva4l65Xsj2nc8DzXDnZVnAIDUAmxJChsUCCgBQAABrKwxsCvsQkPEZYGlXd/IgcogWa1qUVOBX5MBH3b37ypoTGDFgUI4UFACZPsOGFACgAADW7oDZ1FjobseQBDAAU0D5JFKIntLO/jskvZwDH/WyzssbWYgAAz/bGkEGmRW3VEgKoAAA1kJPRf/BMo3gATJsbAOy7dN59dbcCxq1YqfpxV7JvpsD+99QBf1XM2LAAB8jTFWc/zK7ucWS7GmgAADWhmsqIQADJh70F0wghugp3artDrlasn4hIn2t64rqLzNiwEBOtVRKCpmW5AoAUAAAH6d3Zs02Lo0nCWAAJ4ImbgOIIDtMKQvsO7nxYYPZPJASGNAGoIoQMn5cowAABQDwcVKhjpR4KjQwwHZZ8+YNRE3JWW0/krQ4Bz7qVl09fRczYsAArP2bxsdl2oYkMpyzh/2kAAoA4GMPlppICsCAs1QsxncvigNr8kA6Q5Jn/WeVndZ1Ve2BjBqQWasrXt9GUhFJZFYsVdBJCqAAAD5C91V1u5mphgfHsLEN/GbO2wCiquTsZY+76d4c2A9N8lu7Z9RswagBmZPycFvOe5nfkgo62NtAAQB8BFfIbyCBwfr+mWq7rqwbRxJRPSGnzpGsOwc+6kah23y/VzFGDcgQ00hCyLyyqpUJUgAFAPBhi48mBZIOJglgEL+HQchVABFV+vXnX5aFl+TG2sQ/2/3y6O8wakDGcJVN5vXb1Ne6iQEUAMCH6Kmq/bSkzUkCGMSFl2ui3zSugCQiWgIk+q+U9HyO7I0XdlxRuxejBmQEVwBk/BCmNwgBFADARwhD7UEKwKDbpKcjwfvYozofbXqxNwxtinLggYCSgiDw+d1XbfsJRg5IO64AyDTXPwkBFADARyjrWH2NAj3OQ2PY2AZ388BO5IgUXRXntP1W0q05sj9u6gp+8e6l2/C+ciCdTFtyvsvwFjgFACgAgI88FzW92NvfW3SgpGbSAAbVvj1X1m9FDNHVF/SdI9NruXFysDHFhfEfe1NjISMHbLj3HrC5LUlkfBlEAQAKAODjDPnGcytN+oJkL5EGMHjH7tBSxxJDdA0988VVkk/JmQWLtHdXRf8d7jJGD9gwq/9Zv42kIpLILAvDdlIABQCwFkrPWvZqGAu+JGkVaQCDNXPR8d40Pk4Q0VV25vKfmzQ3Z3ZJ0xHdM2uaGDlgw6TCVCMpZJ6bdZECKACAtVRxesuSIPCvSOolDWBQjOyp+udBxBBtPfHwVEkv5NBH/nbXzJoTGDlgg1am4wgh80zGFQCgAADWRckZy3+vwL4mU4qHybCxDfwWyqdzJIq24aetSCjQ4TL158y+Kc3pmlEzjdED1nd27jtyjhuALciR56wAFADIJmVntN0v2XTlxiurgEgx6TOdV9eOJYmoH2eXPSXZRTm1a5qu7ZpZezKjB6wH1w6EMCA5UwCAAgBYr8npmW03uPxckgAGYaXlXAWQD0q3aPuByx7NqRJAfl33zNozGD1g7XVfte0nJI0giQE4SKWCV0gBFADAeio/c/mVMn2HJIABn8JMTFxbN5wcIj7Khyml/vjhUk79xspcPrNzZi0FMbCWPIhx///ACIsrSrkCABQAwIYoO2PZ90y6jCSAAZ0ulsb6nfut80D5uc2vm+wwSf259LlNflnXzNpvMYLA2hzSeQDgAGm3qYv7iQEUAMAGKj1z2flmuoqHy7CxDeTmp/sVY8s4AuXDMbbtDxb413NwH/1e98zRl7m/95hAAB8yM+cBgAOzWQc7GygAgDQpOX3ZOZJuJQlgwAzvLug9mhjypAQ4fflsk+bl2ud2s3O7r6m93puYewAfgQcADswRaZPOWdX7kgMoAIA0MJOXrlo2xcznkwYwYM7yexUjhvxQUtV3oqQ/5uCk+6TuIbX3+k2blzKKwH/jAYADqsjC4GeUAKAAANJVAjQpLNls+dHmmksawIDYtue1mkOJIU+Osce+2Bv2pw6W9PccLAEO6e4t/13ndY2bMpLAf3wzeADgQCu2MPhZ9zW1hxEFKACAdExQD1OqpH3ZMeJ2AGBgJo+mC7m8On9UnPP8m2EQHiBpVe7trNrZ+pN/7rq6ZidGEnhv3iT/NCkMfAng7j/suqb2Ys6fyJ9jDZDpeZ7LumeNvk6yk0kDyPBB3e2w0jPaFpJE/uicVbOPuX4uqTAHP/5qyc8oO335jYwk8l3XNTV/lrQzSQzaGfSB7l5N2vi8Nh4QCAoAIB0lQNes0TNNdjppABk9qjeXvrtsrDUpJIz80X11zdfctEA5emWfyRb0FvdPGzb1hXZGE/nonVnVlcUevCMpThqD6qlkquCLVWc1v0sUiCoudcHATO5MXn768jPkdjFpABnkauwZUjOBIPJL6RnL7nHz4yV5bu62PrGot+DZjpl14xlN5KNiD/Zg8Z8VdorH+h/vnlGzBVGAAgBIg7Iz2r4l+UUkAWRwMWX6Dm8EyD/lpy2/w6ULc3jP3TIIwkc6rxl99TuzqisZUeQTk3+WFLJGvce1qOfa+q2IAhQAQDpKgNOXf9vMzlSO/qYKyIXJS9c/Rx9FDHlYApy+7BJJl+TyvMRkpxd70NI9a/QRjCjyhcs+TwpZNSDVYZh6LHF1bS1hIGp4BgAGTees2kkmv11SAWkAaT+6v1raW1xr5zzbRRj5p2tW7UWSfzMCk5TfJk2nVE5f1sqoIqp6ZtduHbq/QBJZ6c0w5eMrzlzeQhSICq4AwKApP61tvlvwZUksUIB0c23RXdx7NkHkp7LT2r4lU1Pu78baK+b6W9fsmh/4dY3ljCwiebgO/WBSyFojgrg93DuzZhuiQFRwBQAGXfesmp1d+rmkjUgDSKsumdWUTW97jSjydAe4ZvSFssg8fPVtl11ZFotfZ6c0dzK6iMz3dFbN45J2J4msXjG9YP36TOlZy14lDFAAAGmQmF1TF3P9ShIPXAHSym8rO2358eSQx4uL2TXT5JolRebBkG+52ZVlvUXXcYvLx4z9zPrNFA/3l/yTcm1qrtVuekmBP1Ha1/OInfVKDykNrs7rGje1VP+r4qrcXLC0P160x5Bpz60kClAAAGnQPaNmC4/r55I+SRpA2qRcGld+2rK/EUUeH19njz7E3eZLKorQj/WWy69YLb9p+GkrEozyfywqr956kyAoOMelMz9iYblSsutKizousamvdZPa4OiaVXuy5NeTRG5w2aNl78b3tabmPtIABQCQjgPrdY3l3WH/3ZIOIA0gbX5TNn0ZT5jOcx2z68YHCu+TVBW1NZSkHyrQTWWnLHsqrxeTs2t3NAvPcLdDtfZlzwthGPtKxektS/iWDLzO2TWPmvQZksihxZP5/JJTlh9pxtusQAEApKcEuFexrjdGX2Wy00kDSNcXyw8oO235zwkiz0uAa+rHBEHqZ5Ii+kAr+6vMb+rusrs3Pq+tI1/OmT2vj/6Ky86UaY/1/GtWWpD6ZOkpz7/Mt2TgdM+qHukW/ENc/p+LLcDFZae2fYsgQAEApFHX7Jppkq6RFCcNYIMtLX1n809a06IkUeS3xE01G8X7fKHLxkd3bq4OuX4m95+WFHX9KoqXuHde17hp4P0T3XWK0lPo/LRs+rKv8g0ZwDGcVfN1M11JEjnJTTqidPqye4gCFABAOk+Os+u+YArvUfQuWQUGY1U0rezUthsIAn7TuILu/s7Zcp+aBzt+t+S/dtNPk0HRg7n8AK/u67b9hKeC/WU6WLJ9lN4HO4aBrLpketvf+YYMjK5ra/4i1ziSyN0hdAWfLp/e+hxRgAIASKOOa6sbAw8ekLQ1aQAbsurT26kgqKs8tfUdwoAkdc2qOVGmWZKK8+RH7jf5H1y2KDD/XXHof7bTVqzO2vPfDduOsP745y3QnnLfU1JDRieFrumlpy27lm9G5vVeUz86FaSWkUTOW9EfK9qZNwOAAgBIs8S1dcNjCu+WxIPMgA1rAW4rO5XXAuLfOq8b/SlJ95rb6Dz88XtMesLNFgUePtpZEjy98fGD9+wAd1n3tbXjZL6/pC9J2lEDe3/4dWWnLjuVb8VAfO9qzjfXJSQRidXUL0vfWnaANSkkDFAAAOmcGN2rWM9bo3/gbuew7wLr/1UK5ONLTl3+e6LA/3tnVnVlcSy4Ra4JeR5FKKnVpMWS/0UW+0vJ6s6n7axXejJ1Xut4u7Y6FvqeJn3GpX0lbTJ4s0K7seyUtpP5RmRe17U1T2lNwYNouLDs1GU/IAZQAAAZ0D27doKb3yapnDSA9bK09O2C7XmPMf5nUXJdzYlyzeD4+l9el/vNsuBFc63/1QFBGJdseOg2OpBv51KjpBFZNitsKjtl2XcZ8szquaFuVJgKX2AeHin9Jt+z9NTlfyYKUAAAGdBxQ/2YIJX6qaRq0gDWg/s3y6Yv/z5B4P16Z1VvmwpicyX/NGnk2WFB2qf81GWPkERmdV9bc5ZLV5FE5LzQG4bbDz9tRYIokM147yhyUsXJLUv6+vt2kvQgaQDrwezC3lnV2xIE3q/4tBXPl45o21Pu35TEVSL54/myEcsWEUPmuXQIKUTSNiVBjDftIPungESAnD6Juqzr+tFfN9kPJBWQCLBOp4CHyk5p+wI54MN03FA/JghTt0jahTQifjRwHVF66rIfkkRm9d5YPzqVSrUxB4/w3NTsyPJpbfNIAtmKKwCQ2xMWk5efsvxKs/Azkl4kEWCdpin7dl83+ghywIepOLllSenGy3Y32RmSukgksm5l8T8wwmTqeBb/EZ+bhn5N53WNm5IEKACADCqdtuJP/Va0g6SfkgawDhWAbMbKmaOGkAQ+dDJ7mFKlp7RdEwTBGMkeIJHIubn0rWVTiGEAjrc3jStw09EkEfWDpoaZJa8lCGTvLgpE6eTqsp4bRp/qbldIKiIRYK1OBbz6C2ut69qa/WW6RjyENdf1SDa97JS2W4ligL4719ccJOcXFXlzZg390NLpy39MEsg2XAGAaB1sTV46bflsebibXEtJBFgbPqXjutrPkQPWRtmpy35RmgrHyHWhuC0gV7V4GOzC4n+gD7U6gRDyaLgDu7b9lsZhJIGsWy8RASJ74J0xsqSrpOQSczuNfR34WC/2JsNP8voirIvO6xo3NSWbZH68pDiJZL3QpavLeru/aWe90kMcA6f3+pptUtIySTHSyKuV1h1lJy87liBAAQAM5AT12pq9LaY75BpJGsBHurVs2jJ+Q4V1lri+tjYmv0jSocwtstYLgcLjSqateJQoBmEucv3ome89TBP5xQPpsyXTlj1GFKAAAAbQuzdtU1Wcis926UjSAD5yrnJA2bTlPycHrNci58aaT1qoCykCsutLLenm0q7is+ycZ7llYxC8dWttRelqf1lSFWnk42rL/lr6RttO1qSQMEABAAyw7htqDnfXbEkbkQbwgf6ZCoPtKk9tfYcosAHH2p3d9W1JXyKNQZ3k/dYVnFs2rXUxaQzi9+H60dNdNosk8roEOL7s5LbbCAIUAMAg6Lhh2xHmsWtMOpw0gP/l0g/Lpy07giSwobpuqN7ePHa2yydIKiCRAZvdPSfXeWXTlv2SMAb5eNqkoGvE6FaTjSaNvD6xvtGbCmt4zg4oAIDBnJheX3ug5NdL2oI0gPedHMy+Vnpy270kgXTouWmbLT0ZP81NJ0qqJJGMzepe8dC/VfbW8ru43Dg7dN8w+hB3+xFJwFxXlZ6y7GySAAUAMIjevWmbqqIwfoWkE/g+AP/lHQ8LxpSf0vw6USBd3rq1tqK0P5wkt5MljSWRtHlSpjtLu7tv5+n+2cNd1n1j7V8k34E0IKkvFoQNxVNXPE8UoAAABlnHdbWfiwV+g0u1pAH8y4NlJy/7MjEgE7pvqN1d8qkuO0TyUhJZZ2+YdHsy0J2VU5e1Ekf26bqxZn+5eKgq/s11V9m0ZUcTBCgAgGw4Jt/bWNj9Tt85UnABk1HgX5OVE8umLbuFIJApb91aW1GyOjxUFhxt8s8wN/m4r6Q9GpjfUDKs4Kd2WHMfiWRxAXBDzeOSdicJ/IdUKtAYSjtQAABZpOfm2q29P7xGJn7zCbi6YoHvXHTSiqWEgYwff2+oG+VKHaY1rxHciUT+NVlrd9ddMdcNRacsbyGRXNiXq8e77Hckgf89r/o9pdNW8CBqUAAA2abr+uoDzewaSaNIA/l9ovDnint6d+HeYgx4GWCpQ+V+kGS7SorlWQShS78N5HcVl5X+xI56tou9Ind03zD695L2JAl80Hc7DGKfKp/a+hxRgAIAyDJ+0+alvSr7urvOk1RGIsjbk4XpppKpy08iCQyG9lsahxX09++rQPvL/QuSRkT0R01K9pikBxUL7y09ccUrjH7u6ZpTs5+F/guSwEf4aelJy79KDKAAALJU9w01W7j8+2Y6UlJAIsjPM4YfVjp1xUKCwGByl3XeXN0QhPqsKfispM9IvmkOf7FWSv4rSQ/0hat/NWTaSysZ5dzeP3tuGr1Y0vakgY/cVdzHlZ284mmiAAUAkMW6bqzd0RTOEJf1IT9PGO0W2g7F05a9QBrIJj03bbOlh/FxrnDHwGycSw2SPpGVs34pYdJv3NUcyH9b/MbIx61pUZJRjIbuG6oPk9k9JIG1OBgsKD15+SSCAAUAkAsn+BurD5X0fclqSAN55smSYYV78vRxZP3c+tbaiu5+1QZK1clsa7k2d2mkpJEyGyr3KklDPuavSUrWsQGfIpT0irn+KPkfkjE9Uz6kaDnfn4juc03j4z2bvrpEvFIYa6dfMd+GW31AAQDk0Im+e5PXjjXzb2vNpBLIk53fryo9ecXZBIEoWHX9lkP///8OwtIgbv2lfdbfWfXmNh38Zh7rovvG0dMlzSIJrMNK7PLSqcvPIwhQAAC5tBa6t7Gwe2X/MSa/SNF9MBXw3xWA+UFlU1bcTxQAsKZIKowVLZc0nDSw1idTKVG62j9hp61IkAYGCg8zAzaQHdbcVzZ12ZxepWpcusikdlJB1Hd7c7ul+4aaLYgCAKTCWOH3WPxjnU+mUmVPkR1DEhjg/Q5AOvmttRU9/alpsuA8yYeSCCLsryXJws/aKc2dRAEgX62+eXR9KtTfJBWQBtbD30uGLh9thylFFBgIXAEApJkd39ZRetKKy3qV3Nqkb0t6l1QQUTv0xPvm+72KEQWAfJUMNYvFPzbA1t3vVh9ADKAAAHLcsKkvtJdMXX5RSTwYJek8Sa+RCiLowJ6Vo68kBgD5qPvG0UeYtA9JYENYEBxLChiw/Y0IgIHh9zYW9rb3Hx66n2dr3lENRGgHt+mlU5ddSxAA8uawN6u6sqfYWiRtThrYQMmwv/8T5ae8+DpRINO4AgAYIHZYc1/JicvuKn1t+XYu/4qkx0kF0dnB/equm2v2JwgA+aK3xC5l8Y80iQfxwknEgAGZshEBMHi6bqnePkjZSW46UlIJiSDHdYbSnuVTlj9DFAAiff6eU7OTyf8kfpmG9C3KmkumLB9DEqAAAPJAxw3bjojF7FjJpknakkSQw15TPNy19LjnXyYKAFHks6qLeov1lMu2Iw2kdd+S7Vw2ZdlTJIFMorUEskDFyc+/WTplxWUlXlkt6VCXHpIUkgxy0ObqD37m1zWWEwWAKOou1ndY/CMjCzNzHgaIjOMKACBL9d5Ws00qGZ5gFhwr+aYkghzzYMmrWxxsTYuSRAEgMov/W2p2lvsfJMVJAxmwqiTev5kd+2IvUYACAMhTftO4gm5r388smCT5l8WzApA7p5h5Ja8uO9qauJoFQATOx7ePKu7uL1hsxpt8kMH9zPXlsinLHyQJZAq3AADZvoSauri/bMqK+0tPXPa1khLf1MyOcelhSSnSQZZPYyb3bjH6WnfKZgC5r6e/4CIW/8j8xM8OIgRkdBcjAiA3Je6sGx7rCw8xhUdJthvfZ2Sxq0tPXH4mMQDI2cX/nOrPutkjkmKkgQx7u+TVLTbjFjpQAAD4UKtvqqlLBj5RrkP47QSy8mRjdkHJCcsuIQkAuSZxU81G8cD/Jmlz0sDAnDP12ZITlv+eJEABAOBj9dxcu3Uo/7wF/mW5viCpgFSQHfys0hNWzCQHADlz1HJZz62j75N0IGlgAJdoM0tPWHYWOYACAMA6ab+lcVihr97fLTjQ5V8wqZJUMIhCkx9TcsKKuUQBIBd031JzquSzSQID7O+lJyzfhhhAAQBgvfm9jYWrO1aPD90+L9nnJP+UuJcRAy8ps8NKj1/2U6IAkM26bqne3mR/lFRMGhhoYajty6csf4YkQAEAIC1WXb/l0ILC4s+a+efMtZdLjRwTMEBWB64vF5+4/GGiAJCN3r1pm6riWOwvkqpJA4OySDNvKjl+xXdJAhQAADKi44ZtR8QKbbxC+7QC21nuO4jfeiBzugPXQZQAALLyAHXr6IVyHUoSGESPlZ6w/DPEAAoAAAPCbxpX0B3v/KTku0jhzpLtZNJoSXHSQZr0umlC2XHLHyQKAFm0+J8uaRZJYJD1lSS7htrU17qJAhQAAAanFJhVXdRdqoYgUKOHtp2Zb+ey0ZK2Em8bwHpOcCRNLD1++Y+JAsCgL/5vrt5VgT0qqZA0MOgLNbd9Sk5Y9ghJgAIAQHYVA03j46u3fG1LpXxbj2mkXCPdfIRkB8q1JQnhYyTNdXTJCcsXEAWAwdJ1a+3mpvApSZuTBrJifmW6uOy45d8iCVAAAMgJPbfV7uUe0lxjbYTmfmLJCStuIwoAA77QumlcQU8s8YhMe5IGsmfH5DkASL+ACABkSslxbb81+S9JAmtzPnKzW7pvG30aUQAYaL3x9utY/CPrmHbxmzYvJQikEw/zApBRyZjOiYXaV1KMNPCxUx3p6u7ba+Klxy6bQRwABkLXrTWnuPmJJIEsVLi6oHw3Sb8hCqQLVwAAyKiKY1Y0m3QLSWCtSwD3q3pur/4OUQDItM7bt/2imV9NEshWKXNuAQAFAIAcO3n9X3v3HS9HWfZ//HvN7qkkIbRUO8wjAAB+QUlEQVRIk5IEkARERKRDQBADJKY4sydBIKIG2yP2Xo6IBRVRLGhECCXJ2R0SkBYLQpAmTRBNEEgB6TWBtNN2rt8fZ/FHJ+WcnS2f9+uVlz6PkJn93vfM3Pc1M/cUe78taSVJYF25W/ua348809u5TgEYoMn/73fdK/CgIJ6IRQUzt4NJARQAAFSVQR9d9qSZ/ZAksH6jHvvc2h12ucQL27cQBoD+tPq3u28TmF8uaTBpoLL53u4s3A4KAACqTPMma86SaRlJYD1NXLuq5c8vXPC2LYgCQL9Mp341epA19F4l8ZlaVIWhnb/fmb4KCgAAqotFj6x198/KJP7wZz3/HJxNird2nj98F44kABs1+S+Mbuxs7b5Epr05t/KnWv4kmYa9OXpBAQBA1dnk5MV/MOkqksAGGJEoc8uambsdRBQANmjy365g7aqei1w6mjRQZd5BBKAAAKAqmfmpkjpJAhtgC3ny59UzR44nCgDra+0Ou5wl84gkUHVjJyV7kQIoAACoSs3TFi9x15kkgQ3Uam7zVp8/8hNEAWBdrT5/l9Nk+jRJoEqnbLwCAAoAAKp4Btez+vuS/ksS2EAZk/1qzXm7nMFnAgG8mTXnj/yySd8kCVQv32HFrB02Iwf0Bz4pASClAdkuk2SaSxLYyIvYVZ3e88HNPvTgCtIA8KprzQW7fk7uPHWG6r/eWXJEy0lLriMJbCzunABIReuHHpgn6XKSwMZw6dgma7h95YUj9iANAC+b/M/c5dNy/wlJoAaudS8kshUkAQoAAKpbknxK0kqCwEYamUmCW9bMHMniXgAkSatnjvy4pJ+Jp11R/R5312GbnLT4LqJAf+CkCCBVay7Y5VS5fkYS6KeL2ozmriGfslPu7CENoE4n/xeM/IS5/ZJxLmrgovZPs+L4lhOXsm4S+g1PAABIVcuyB34h6RaSQH9wafraxhf+sup3O7+FNID6s+aCkV82t18x+Uf1T/4tbulcfSCTf/R71yICAGlbdcFubw+U3CGpgTTQTx6RbHLrSfffRhRA/Uz+JfshSaDKuWQ/all2/9esXQlxgAIAgBoduO3yI0lfJAn0o7VmfkrLiYsvIgqghmdLLlt70a5nyv2zpIGqnpiZnne3D7WedP+lpAEKAABqewB39simNUPsH2YaRRro50vdRS3W/HE78Z7VZAHU2LXjujHZNQ899hsz/zBpoLo7s/4RZJJc8wlLFhMGKAAAqAtrLhpxoJLgBrE+Cfr/Yrew15K2wScu+TdpADUyXyqMHtS5tvsSl44mDVR5b/5ly/P6gn16cRdZgAIAgPoqAlww8kzJPkcSGACdkr7SetIDPycKoLo9f+7ozRsauq+UdABpoIo95e4f3WTa4suJAhQAANQlL2zfsraz+W7JdiUNDJC5vZ45ZchJ/3mWKIDq0zlr+C5Jb+YqmXYhDVTxiOeyYq+mDz558dNkAQoAAOra2gt3Pdjl14tXATBg4y49lpifPOjExX8iDKCKrg8XjRzjbnMlbU4aqFIrzP3zLSctPo8oQAEAAErWXLjLWZI+QxIY0DKA/Ncta9d8yU55bA1xABU++b9g5Mludo6kRtJAlZrnDcH/bTLlvseIAhQAAOClM7PC9i1rOlvuNGl30sAAu09uJ7aedP9tRAFU4PWgXcHanXf9vsy/TBqoUo+62ac2OeH+y4gCFAAA4HWsnjliHwuCWyQ1kAYGWK+kn7YUe75tH3qwkziAyrD8/J2GNmcaZrl0DGmgSq8t57QE/g374OIXiAMUAADgTay9eJevu+t0kkCZLDH5R1pOWLyAKIB0dc3e9W3FXr9UpreRBqqO23WJ22cGnXTfPYQBCgAAsK7Xz3YFa0fscq2kw0gDZRu2Sb9rbmr8vEULVxEHUH5rLt41J/ffS9qENFBdVxA9bGbfaDnh/gsJAxQAAGADdM7adXiS+N2SBpMGyniFfNBdn9rkhAeuIgygTHOnwujGtZ3dZ8hYBBZVN/F/TtIZLSv85/bpxV0EAgoAALAR1l448sNudi5JIIUr5TzJT2394OJHCAMYyPP8bju7JXlJ+5IGqmgy9Xwi+1lXU+9Zm0dLnycRUAAAgH6y5qJd5khqIwmk0f0kP61l++3PtMMX9BIH0L9WX7TrBJPOk3wz0kC1dFuZfl9Mku8NPnHJU8QBCgAA0M+Wn7/T0KaGxrsl35E0kJJ/WuCntkxdfD1RABvPC9u3rO1u/YnknyANVIkVcvtt0Ys/ZeIPCgAAMMDWzNr13XK/UXwaEOm60pLg0y0n3reMKIANs+rit+0ZePFimd5OGqgCy2T+267u3t9u9qEHVxAHKAAAQJmsvXiXr7v4NCDS74pyO7ulqeF0vhYArDsvKLO2Z+QX5HaapEYSQYVPl+4019nN2287m1fAQAEAANIYPLYrWLvLyL/I7QjSQAV4xOTfbm5cfIFFKhIH8Po6LxoxMrHgQkkHkAYqeIL0vFx5d53XeuIDt5IIKAAAQMpWz9ltW+tN7pZpK9JAhVxQ/52YfXmT4++/mjSAl+u767/LZ+U6TVILiaACJZKuM/nM5sbOuRY9spZIQAEAACpI56yRR7t0taSANFBBV9YF7sGXW4+//zbCAKSui4fvmVjm95LzeT9UogckzVKQvaBlyn8eJA5QAACACrb24pHfkelbJIEK4y5d6YG+vcmUxXcRB+ryILh6ZFPnc/qaTF8R7/qjciSSbpPpD0Fgf2hqe+BeIgEFAAColgFmu4LOXUbOl/Re0kCF9tJrksC+RCEA9WTtrBGHy+1XMu1OGqgAnZLfaAquTHrtktaT7n+USEABAACq1MoLRwzLZuwuSduSBipUItclGQ++33jC/f8kDtSqNXNGvDVI7CyXJpMGUvScSzeb6SYVg5uae7tvtw892EksAAUAADVi7UW7HqIguVZSljRQwdylq2T6fuvUxbcQB2qmY189smntcn3GpG9K2oREUEa9cj0g0+0mv8ncbmw8fvG9ZnKiASgAAKhha2bv8kWT/4gkUCUWmOz7zVMf+AtRoGon/i5bO3vkByzQGXLtTCIYQM9KWiLZ0r7/9P8U3f69SUPjIosWdhMPQAEAQB0ORLvmjIx59BRVdiG+293Pam5o7mAQi2qyZtau77Yg+alcB5EG3sDFZnpUriY3a5V7q5maStftLpmtkSRzX+Puq1y2KpAvTwI9raKeClxPNvkmj9uJ96wmSoACAAC8vAjw+90Gd7YU/y5pFGmgynrv43L7ZU9v9rdDTvrPs+SBStU5a/gubpnTJM8xlsQbTjRMcVPb4hyP4wMUAABg4AanHcN39SS4TdKmpIHqqwNojQK7OGP268Y2FgxE5VgzZ8Rbze1bkqaJ9Vbw5p7pUbD7kKn3P0MUAAUAABjYIsDskeNcukxSQBqo4qv0TZL9ujnTeAmvByAtq2bv/JZAwVdN9jGp79Ft4E25fajl+AdmEgRAAQAAymLtnJHtkr5NEqgBT8l1nnlyXvPxSx8gDpTDmjkj3ioLvmjuH5HUQiJYj9n/Vc1tS8bx6D9AAQAAyjf8aFew9m0jLzPXONJArXRruW5Q4L9v3mTtJTbusTVEgv7WWRgx0ov2FUknSGokEaynxZ2dvftu9qEHVxAFQAEAAMo7W7p45JDOQLfIWBQQNecFyTrkxYuapyy9iTtt2Khzpcs6O4YfYQpOcWmSpAypYAP0uuzg1ikP3EoUAAUAAEjF2jlv20nqvV3SlqSBGvWwyy912cxNpiy+iziwrpafv9PQlpZM5G6fljSaRLCRU4tvtUx54LvkAFAAAIB0iwCzRxwhsz+JlatR6xd2091JYnOCoHhZc9vS+0kEr3lOzO9yqBI/RdJksbAf+sfNzVtvf5gdvqCXKAAKAACQus6OEZ9y2S9IAnVkqZtfaeZxc8hrAvXOC8M37Uoslyj4pMnfTiLoR6usmLyTRUoBCgAAUFHW5Ef+0lyfJAnU4RX/EXddHiR2WdPKIQvslDt7CKUOJv3tCjp3H3GY3KZJCsVq/hiQ84tPa8ktuYAgAAoAAFBxg+Gut40seN9jr0C9XvxXSPqLy69s7rXL7IOLXyCV2rJ21s47epBpM9N0ScNJBAN3PvF5zW1LuKYCFAAAoEKLAIXtWzqT5r9IOog0AHXLdYtM17r5X1uGvfVW3uGtTqsv2n2bTLY3dHmbTAeQCMrg4a5i915Dj//vcqIAKAAAQAUXAYZv2pkEN0jakzSAl1kj+c3udo1n/JrWRUvusnYlxFKZVszaYbOmTMM4l4UmvU8sdIry6VWQHN4SLb2RKAAKAABQ8dbO3XlH9WZulrQtaQCv62lJ15n5XyVd2xwtWUwk6eqcu+vwpCcZb6Zxkg5l0o90ZhH+jZZoyfcIAqAAAABVo6swfE/34G8uDSUNYJ086dJtJrvNTLeubei5fbOJD64gloHj143Jdj793/3lwTGSxknag1SQ7gzC/tq86IH38nQQQAEAAKrOmo6R+5vpGkmbkAawQVPUx83sRsluchXvbF6d3GEferCTXDZc59xdh6tYPFKyI+U6iiIlKshTSZLZe5Mp9z1GFAAFAACozsF2fuQ4l+aJR2mB/tAl6S6X/hG4Frr5vcVismjQ1GVPEs2r+fk7Na9tzewj6YBAwYGuZH/JtiEZVKDEXGOb2xb/mSgACgAAUNXWFnaZJvfzODcCA+Y5yRbJtcgCLZK0KMn4va2TFz9SLwG8MO9tWzT09LzdFOzp8j0k7SVpb0kNdA9UwcThjObc4q+QBEABAABqwprCLl80+Y9IAijvvFjSvTJfaq5HZHpYbg8VAz2cJHpkcLT46Wr7QX7Ftq1ruppHBZ7Z09z3cGlPyffgzj6q2E3Nyzc93E65s4coAAoAAFAzOuNdfuzuXyAJoGKslfy/UvCIlDwst4dkeljS4qJ67xsUPfhEWSf37QpWjRq5RYMym7t6tpKCneW2kwLfSa6dpP/9CWg61Ignk2Lmnbz3D1AAAICa4y7rLIycKdOJpAFUS4FAz7rsOZM/K3nxJQOdFyQrru9fmEhNJm8t/S2DTcq6NFjSFqU/QL3olemolnDxAqIAKAAAQG0WAQrKdGlEwWWTSAMAULfXQ9mXWqMHfkwSAAUAAKjxIsD2LZ1q+pNkh5AGAKD+Jv+6vCVcPMFMThoABQAAqHmd8YixLruaJAAAdTZLuL+5U/vaBxe/QBhA7WBxGgB4Ay69nxQAAHVmbTGxHJN/gAIAANTP5L+gjGQTSQIAUE+XP3f/0KDogbuJAqAAAAB1o1MjDpM0jCQAAHU0//9ea7QkTw4ABQAAqLMzpH2AEAAAdTP1l/7QvHDJt0kCqF1ZIgCA1xgEtSvolE+QsVYqAKAu3NuSJCdZuxKiAGoXTwAAwGvo3HOXgyXbhiQAAHXgWbPgOIuWPk8UAAUAAKg7liTHkgIAoA70KvCoefL9S4kCqH28AgAAr8HNxpICAKDWmevU5klLriUJoE6OeSIAgJdbM3fk9ub6L+dIAECNTwR+2vyBxZ8nCaB+8AQAALxCID/GjdX/AAC1y6UrmouLv0QSAAUAAKhzPP4PAKjp69ztLY2r22ycimQB1BcWAQSAl/DC6EaX3kMSAIAa9UBPox1j4x5bQxQABQAAqGtrM537ShpMEgCAGvSsWXLckHH3P0MUAAUAAKh75hpDCgCAGrTWEx/fPGnp/UQB1C/WAACAlwrsUEIAANSYXnO1tYRLbiYKoM6HukQAAH38ujFZSQeQBACgli5vkk5pnrz4cqIAQAEAAErWLn+E9/8BALU2+/98y6TF55EEAAoAAPASJh1GCgCA2rmw2TdbJy0+iyAAUAAAgFdw14GkAACoiWua2S9aJj5wOkkAeCkWAQSAEgv8XZIRBACgymf/urBlwgOnEgQACgAA8BrWzB25vaRtSAIAUOXyzb2LTzaTEwWAV+IVAACQJLN3EwIAoLovZYqbh27/QYtUJA0AFAAA4PUGTYHvSwoAgCpWaNp0+6l2+IJeogDwengFAAAkyXn/HwBQpUyzmrsXn2SHL+bOPwAKAADwpgLbi7clAQBVOPvvaN50u2lM/gGs05CXCADUu9Vzd99Grq1IAgBQhZP/E3jsHwAFAABYR5lMcTQpAACqa+6v3zff/cDxTP4BrA9eAQBQ9xIle/L2PwCgWrj87JbxSz5j7+flNQDrhycAANQ9M/EEAACgKub+7vbl1glLTjVj8g9g/fEEAABIe/ABAABAheuV+4dbJy6+kCgAUAAAgA1k0q7cRgEAVLAul01tnbB4HlEAoAAAABvo+cLozV1dm5EEAKASmbTCg2Rc67ilN5IGgI3FGgAA6lq2ae1wUgAAVKillvFDWpj8A6AAAAAbz2QjSQEAUHn8ht6iH9B03JJ/kwWA/sIrAADquwBgxhMAAIBKuzrNaH5800/ZKXf2kAUACgAA0H8oAAAAKkWXXJ9oef8D5xEFAAoAANDPTNpBfEoZAJC+p10Wtrx/8fVEAYACAAAMCN+GDAAAqV6JZLe5BZNax93/KGkAGEgsAgig3m1HBACAtJh0UXNn5xgm/wDKgScAANQtL2zf0mXajCQAACnodNn/NY9bfC5RAKAAAAADrGtQ87Yq8v4/AKDsHg6UfKBx3LLbiAIABQAAKIOkx7cOeBEKAFBOrj82NXYdb+975DnCAFBuDH0B1O8JMLDNSQEAUCaJm53W9I8lxzL5B5AWngAAULfcfHPjDQAAwMB7Rq4TW8Ytnk8UACgAAEAKTL6ZzAgCADBg3HS7gmLUMvbBB0kDQNp4BQBA/Q7KFPAFAADAwF1mXGc3v2XoQUz+AVQKngAAULdMzhoAAICB8IK5fbhp3OJLiAIABQAAqIgCgAazBAAAoD+57DZlenPN3PUHUIF4BQBAHQ/S1EoKAIB+NKN5TdMhPPIPoFLxBACA+mXWIvEMAABgo60000ebjlmSJwoAFAAAoCI5TwAAADb2WnK3MhY2vW/JYrIAUOl4BQBA3TJTCykAADb4OiJd1JR0HtTM5B9AleAJAAB1y91bJCMIAMCGOLvp2CWnEgOAasITAADqmGXIAACwQVcQ2ROkAKDa8AQAgLoevRECAGCDsIYsgCrEEwAAOAcCAAAADH4BoKbxBAAAYANH0QnPAACgAAAAnAMBALXOXZ2kAIDBLwBUjyIRAAA2iNkaQgBQbVgEEED9CrxbzlsAAID156IAAKAKh79EAKBuB28edJMCAGDDBtEJBQAAFAAAoFqYnAIAAGCDuILVpACAAgAAVA8KAACADRtEW3E5KQCgAAAA1YMVnAEAG6RY1JOkAKDasAgggLrlgV4wvuIMANgAza1OAQBA1eEJAAB1y1wrSQEAsAFW2OEP8hQZAAoAAFBFXiACAMD6s4fIAAAFAACopuGbOU8AAAA2gC8jAwAUAACgmoZvibGCMwBgA9iDZACgGrEIIID6Hb6ZPeGsAggAWG88AQCgOvEEAIC6lZg9QQoAgPWf/+t+QgBAAQAAqohlihQAAADrLUns36QAgAIAAFSRpu6AAgAAYH093zJ28aPEAIACAABUETtm8QuS1pAEAGCduf5lJhaQAVCVWAQQQJ1XAfSEpOEEAQBYx+sGj/8DqFo8AQCgvsdxridJAQCwrtz0D1IAQAEAAKpzIMc6AACAdZYpJreRAgAKAABQnRUACgAAgHW9aKxuaNpxITkAoAAAAFXIzB8kBQDAOrrTDl/QSwwAKAAAQDVy3U8IAIB1YnYrIQCoZnwFAEB9a7AHVORrTgCAdZj/yykAAKhqPAEAoK41dmqxpCJJAADeRNKVzV5PDAAoAABAlbJjFndJeoQkAABv4p9DDr//GWIAQAEAAKqZG+sAAADemOlaQgBAAQAAqn5QlzxACFivSYBlRsj8KLnOlvMECVAnx/5fCQFAtWMRQAAI9IBYBxBvrtfdvtd84+LTrF2JpKWSrpF0ate1I0fLk+NcNk6uAyUZcQG1dfw3NWVvJAYA1Y4BCoC61/nXEWPlupok8AYedvepLUctfdMJwJq/7rpd4MVjJRsn+XsktRAfUPVuaD5yyaHEAKDa8QQAgLqXKHNPwIcA8Lr8im41fmjIUf95dl3+6db33P+opBmSZvjN27d0rWk8qK8YoEmStidPoBpPA7qCEADUAp4AAABJndeMeELSW0gCLxnxr5bri01HLv2N2ca/JOIu67luxDuLRRtn5sdJeifXYaBqzge7NR+5lAVjAVAAAIAaKQDMl/Q+kkDp4niLy6cN5IB/5dUjt8o2+FgzHVfqe4NJHqhI9zYfuWQUMQCoBbwCAACSXH6XmVEAQKdM32p8ZslPLRrY90IGH7P4aUkXSrrQb96+pWtt85GSHyXpMEl7iC/1ABVyfbA/kAIACgAAUEMCC+5yPgVQ30w3WjGY3nTUA/eWfdMHPrJW0hWlP/Ibdxvc1dmznyw4UvKDJe0rqZFGAlIoAJhdRgoAame4AwBQ519HjpB8MUnUpRUufan5iCXn9se7/gMyAbl65JCu5uRgT3SwmR0oaR9Jg2g6YMA90XTDku1Kn/4EAAoAAFAL3GVd145YLmlT0qirlr+k2FD89CaHPvR4Ve11QZmeLXfeI3E7wGT7uWx/yXfjug70u182v2fJ/xEDAAoAAFBjOq8dcZ1cY0iiLtwns1Obj1j8p1r5QX7DDpt1dTXsZ6Z9XP4Oyd4paWeu9cCGC5Ts1/ieZbeRBAAKAABQY9ZeO/z7JvsqSdQyX+0e/KS5Sz+wYxZ31fyvvXG3wZ09PXuZtI/cRkkaLeldkproC8CbHUB6oPk9S3YlCAC1hEUAAaDE3G6QiQJArQ7lTZckgX2+9bDFD9dNnz74vpWSbiz96Qvijn0aulasfKssGW1BMkpuo10apb4/LXQVoHT8BLqAFADU3LmNCACgNDG6euSQrmZ/TlKGNGrKjYnZF1sPX/x3oniD/n/HPg3dK57fRRmNkmsXVzJCshGShkvaXnyWEPUlcU+Gt7xn2UNEAYACAADUqM5rR9wp6Z0kUQszWt1rZl9tOmIx3/De2CivHtnU3dK7s3swQm7DFdhwJcn2ZratSztI2lo8VYjacn3zEUvGEAOAWsPFGgBeyuxvcqcAUN0ec1d7c/DW8+3wBb3E0Q+HRd96Cf8p/Xl1gaBdwZoDd9u6IdO9vQfBtu7awaUtTbalpGGSbylpS0lblP6T8QcqmssvJAUANXlNJwIA+P+6rh0+yc3mkkRVWmHSTxpXrT3Lxj22hjgqeHJ13U5Du4qNmwcZH9LrySaB2yaW0aaJkkHmtonJN0kUDLVUxil+vPpeeUD9er5Jzdvb4QtXEQWAWkMFHgBeojsb3NBQdBcF0uphekFu5zRlu8+wQ/67nECqoMkOf3CFpBWVuG9rF+x8lXlwnVgLpJ7NZPIPoFaxoA8AvMTgQxc/LenfJFEN834967LvNHlxx+bDF3+FyT/6Q8uYZTe47HSSqFsuT84hBgC1iicAAOCVE0vz+XLtSRKVOjrXMyb9qrFXZ9lRS54nEfS35usXn9Zz2PBDXTqcNOruDPOnpiOW3UcOAGoVTwAAwCsksj+SQkVa4m6nNnWv3qnp8KXtdtRSJv8YENaupNiraZJ4qqTepv+mX5MCgJq+xhEBALxiALhwdGP302ufkTSYNCriSnWnyc5uSN46m1X9UU6d1+/8XnO7WqwHUC8eanxq6QiLVCQKALWKJwAA4JXzzdELuyW7jiRSVZR0ZaDgwKbDlr6r8bAlFzL5R7k1H7bszzL/NknUB3f/JZN/ABQAAKAeiwDu80khlSH4s3KdUfRgp6YxS8c1jFl8C5kgTY2HLvu+THwatPatbGrqOY8YANQ6FgEEgNdQbNDVQa/4HGB5JCZd626/b1wbXGrHLO4iElQKM7lf1zKt29a+TdJoEqlZ59iBjzxHDABq/rpGBADw2roWDL9N0r4kMWAekfnMRMl5LYc9tIw4UMk6/zpyRJBJbnZpGGnUnDU9vT580JHLniQKALWOJwAA4PWY5lEA6HdFM13nic9o9B0vtTG814/q0PyexUu6rxt+rAItkLQJidTSqV6/Y/IPoI7OeQCA19J5/fBdTLqfJDZa4tJNMi/0ditmoI3qPi/sPN5k88SXAWpFVzEJRrYevvgRogBAAQAA6n1keP3weyTtSRIbZJGk2IPshc2H3L+UOFAruhfs/FE3m0ES1c+l3zYftvRjJAGgXvAKAAC88ejwEhkFgPVwm8sLnrG45eCl/yUO1KLGMct+13X98O0k8YnA6tbrKp5BDADqCU8AAMAbWHv9jjsHyizhfPm6Ok26IXH90a14KYv5oZ50Ldj5RzL7IklUK7+g6bBl08gBAAUAAMD/n+H+bcQCkx9GEv8bNC911zUW6JrGhsyfbP/FL5AJ6lX3DSN+4u6fJ4nqazrPBKOaD1q8hCgA1BNeAQCANxG4zndTPRcA1kha4PL5KgZ/bD586WJ6BdCn4eAlX+y6YcSmJv8IaVQPk37ZxOQfQH2e/wAAb8SvGz2oO7P2cUmD6uQnrzX5rS77WyL9rbmY3GSHP9hJTwBe5xzhCrpuGP4rk1hMrjosb8x2j7QDH3mOKABQAAAAvErX34afL2lajf68xyW/TW5/D8xuyG7RfLuNXthNqwPrVQSwnhtH/JjXAaqhrfwLzYctO5MkANQjXgEAgHUQKJmZKKiFAsByM90t2T9cya2J2a2s1g9sPDO5tOQLXdcPXyXj6wAV7MGm1ZlfEgOAur1eEQEAvDl3WfeNOy+WbHiV7HK3pAckWyQl/3TpHjf7J5N9YOB1/m34Z830E0kBaVTcyPf4poOXziYIABQAAABvMqgf8UUz/1EF7VKP5A+bbFlitkyJ7pf5vcrYf5oeWbLMIhVpNSAdXTfuHMntAknNpFEx7mg8eOm7+57WAAAKAACAN+DX7TS0Oxs8rPIsBrhW0mMuPW6yx03J4272uLk9Zl58qDcIljU/tvRRJvlA5eq5cfjBiesPkjYnjfQlCg5vOWTxApIAQAEAALBOum/Y+QSXjTZ5S1K6s2dum8is8fUrB97t5qsD2VqXOiVfKQ96zLRCStYmsuUZt+WJbHmvepa3Fm05q+4DtaHzxp13M9fVVfT6UG1yzWo6dOkHCQIABQAAAAAM3Nzz5u037yk25l06kjRS8Vx3YLsPPmjJU0QBgAIAAAAABrYIUFCme7vh35Pry6RR7sGuf7Tx4GXnkgQAUAAAAAAom+4bRpzo5r8ViwOWhUs3Nh209FAW/gOAPnyeBgAAoEwaD1lyoZJgH0kLSWPAdVsSnMLkHwAoAAAAAKSi6dDFixrVcICkWaQxgMx/1HTo4kUEAQAvOTUSAQAAQDq6b9r5o+72M0mtpNGvFjcG3W+3Ax9ZSxQAQAEAAACgInTeuPNuZnaRpH1Jo1+4ux/dfPCyvxAFALwcrwAAAACkqPngZfc1du9woKSvSOomkY1jrl8z+QeA1zlHEgEAAEBl6L5p+L4unSdpD9LYIP9pbOrcx9712BqiAIBX4wkAAACACtF40NLbG5s2e6f6ngboIpH10mvmJzH5B4DXxxMAAAAAFajz5hEjA/cZLh1OGuvA/etNBy/7PkEAAAUAAACAKpzTynpuGXGC5D92aRiJvE5O0k1Njyw9zCIVSQMAXh+vAAAAAFQoM3njgUsubOhKdjPzsyUmuK9hlWTTmPwDwDpcV4gAAACgOnTftNM7ZMGZLh1BGqXBrNm0xgOWXEASAEABAAAAoOZ03jL8SHOdKentdR7FvKYDl06mRwDAuuEVAAAAgCrTfMDSaxq7dtjHZKfI9XB9puBLG4u9H6E3AMC64wkAAACAap4G37FPQ0/3iilu/i1JI+rkZ3ea2cGN+y+5kx4AABQAAAAA6rUQ8E1JI2t7AOsfbTxg2bm0OgBQAAAAAKAQYP4NSbvU4E+c1XTA0g/S0gBAAQAAAAAvFgJ6Vkx1JadKtneN/Kq7Ghu6DrZ3PbaGFgYACgAAAAB4he6/j9jHE50q8zZJDVU6+X82CZJ9W/Z7aBktCgAUAAAAAPAGVt+x4zbZnswpbvqkSVtW0a73JB68t+WAxQtoRQCgAAAAAIB15Ddv39KTaZjqrg9LdkDFD1hdn2g8YOk5tBwAUAAAAADABuq8fefdrDc4UeYnSHprpe2fm85p3m/pJ2gpAKAAAAAAgP6YaLuC3luHH1iUn2CyqZIGVcBQ9U+Na996nB2+oJcWAgAKAAAAAOjvYsCNuw3ubugZJ9ckSWMltaawG/c0KjjE9l/8Ai0CABQAAAAAMNDFgJu3b+nKNhxpHoSSj5e0aRk2+3iS0f4t71r6X1oAACgAAAAAoNzFgAdGNnUt98MD+fs80dEyvW0ANrPKkuCwxgMW/4PEAYACAAAAACrA2pt23jGTCY52+dEyHSFp6Eb+ld3uflzz/sv+QroAQAEAAAAAFarz9l2HB8XikW46WPJDJe24Hv+6m2xa435LLiRJAKAAAAAAgCqy9tYddw48806Z7S353pL2lrTNa8/+7dTmdy85m9QAgAIAAAAAasCq23baOmuZvc19L0m7ujTSpOua3r3026QDAAAAAAAAAAAAAAAAAAAAAAAAAAAAAAAAAAAAAAAAAAAAAAAAAAAAAAAAAAAAAAAAAAAAAAAAAAAAAAAAAAAAAAAAAAAAAAAAAAAAAAAAAAAAAAAAAAAAAAAAAAAAAAAAAAAAAAAAAAAAAAAAAAAAAAAAAAAAAAAAAAAAAAAAAAAAAAAAAAAAAAAAAAAAAAAAAAAAAACAAWVEUD7Tpk1rXr169Y5mtpOZ7eTuW0vaQtKW7r6FpK2CINjU3QNJm5b+tSZJrZK6JK2RJDNb7u697v6MmT0j6RlJT7r7k2a21N2XbLLJJktnzpzZSeoAAAAAAAoAA2T8+PGDW1tb90yS5O2S9nL30WY2QtI2ZczcJT3q7veZ2V3uflcQBHclSXJ/HMdFWgkAAAAAKABgPYRhmMlms6OTJDnY3Q+QdICk4RWc7RpJt5vZ9Wb2t4aGhr9fdNFFq2lJAAAAAKAAgFdP+keZ2VhJR0o6UNKQKv45PZLukDTfzK7K5/N3qe/pAQAAAAAABYD6Unp3/71mNtbMxrr7jjX8cx+RdJWky4cOHfqXGTNm9NADAAAAAIACQM0KwzBjZoeb2Ynu/n5V913+DbXczK509wtHjRp1bXt7e0LPAAAAAAAKALUy8T/YzE6WNFHSUBL5n/9KujgIgt91dHQ8SBwAAAAAQAGg6kyYMGFoQ0NDJOmTZvZ2EnlDiaRrzWzGk08+eemCBQt6iQQAAAAAKABUtFwu9053/6ykUFIT3WE9O4/ZQ+7+i87OzhmXX375ShIBAAAAAAoAFfWboyh6j7ufambHiqcg+sNKSee7+4/iOH6UOAAAAACAAkBqwjDMSJpqZl+RNIqmHxBdkmYGQfC9jo6Oh4kDAAAAACgAlPU3RlF0nKTvStqLJi+LbjOb2dPT0z5v3rzHiQMAAAAAKAAMqDAMx0v6Lgv7pWa1pLO7u7t/dNlll60gDgCoH+PHjx88aNCgbNr70dPT0xnH8VpaBACAGi0A5HK53d39p5LeRxNXhOfc/TRJv4zjuEgcAFCdwjBszGQyby8WiyPMbCcz2zFJkp3MbEcz28Tdh0hqltRSQbv9gUKhMJfWAwCgxgoAYRhubmbflvRJSRmat+Lc6+6fi+P4j0QBAJWvra1tpyRJDpb0bnd/t5m9Q1X01Rwze+jJJ58cySdrAQCooQJAe3t7sGjRoo9LOl3SUJq14l0SBMGpHR0djxEFAFSWyZMnj85kMsdJGifpwGoeK7j7l+I4/jGtCgBAjRQAwjAcaWYzJB1Oc1aV593926NHj/5Fe3t7QhwAkOq1dAczO0XSCZLeWiM/a427vzWO4+doYQAAqrwAMGbMmOywYcM+L6ldfe8bojrd5O7T4zheRBQAUD6lp+eOkDRd0kRJ2Rr7ib8pFAofp6UBAKjyAkAul9s9SZJZZrY3TVgTuiR9291/wiKBADDw1/4wDCeY2emSRtXob/Risbjn3LlzF9LcAABUcQEgl8ud6O6/lrQJzVdzbnH3E+M4XkwUAND/2traDiwWiz80s0Nq/Kf+pVAovJcWBwCgSgsAYRhuZWbnShpPs9W0F9z9i3EczyAKAOgfkyZN2j6TyZxjZsfVxeDGbFw+n7+SlgcA4OWCatjJtra2A83sbib/dWGImf02iqL88ccfP4Q4AGDj5HK5MJvN/rNeJv+SFu++++5X0/IAALxaxT8BEIbhdDP7haRGmqvOOqfZA5LCfD7/T9IAgPW+fm4n6XdmNraefre7fyaO45/TAwAAeLVMpe7YtGnTmnfbbbffSPpWJe8nBtQWkqaNGjVq1aJFi24lDgBYN7lcbn9J19bhYrkrJZ20aNGiLnoBAACvVpFPAEyaNGmbTCZzuZm9iyZCyfkrV678+Pz58xnUAcAbCMMwZ2bnS2qpu0GN2c/z+fxn6AUAALy2ilsDYPLkyaMbGhpuYfKPV/jQ4MGDF4RhuDVRAMBrz3+jKPq+mc2px8m/pKS3t/dXdAMAAKqkANDW1vaeTCZzo7vvSNPgNexvZne0tbVRHAKAV8jlcmdI+qqq8BO//eSquXPnPkBPAACgCgoAuVzuxCRJ5ksaSrPgDWyXJMmCKIomEwUA9Imi6Ifu/sU6j+FsegIAAG+sIu4ShGH4cTP7parks4T9oNvMlrr7g2a2zN0flPSkmT2bJMmzQRA829vb29vU1LT8pf9ST09PNkmSwdlstsndtzKzbd19mJltnyTJrkEQ7Obuw1UfX0xwd/9CHMc/5TAGUOeT/+9J+lqdx7CoUCjsIcnpEQAAVHABIIqiL0j6kWr3kcVVkm4zs9vc/R4z+9emm25634wZM3oGYmNhGGaCINg9SZJ3mdm+7v5uM3uHpGyN5ntmoVD4IoM+AHU6+f+0pLr/5J2ZfSyfz/+WHgEAQAUXAKIo+rak9hrLdI27XxsEwZ8l3fTkk0/es2DBgt40d+j4448f0tPTc5iZvcfd3ytp9xob+M1OkuRDcRx3c0gDqBdhGB5gZgtUH099vZHlTU1Nb73oootW0ysAAKjQAkCNTf4fkzTXzK5saWn528yZMzsreWdzudyu7j7R3Sea2btVG09fdBQKhSkc0gDqZPK/tZndKWlb0tCPCoXCl4kBAIA3l8pj4aXH/qt98v+cpA53L4wePfqG9vb2pFp2PJ/P3y/pDElnhGG4s6QTzOxESSOqtC16Jc3gcAZQD8aMGZM1s0uY/EuSir29vb8mBgAA1k3Z7/yWFvz7larzrrNLWuDu526yySbzKv1O//r2hTAMDwqC4OPu/gFV0SOl7v55FgMEUC9KRfQfk4Qk6ZJCoRASAwAAFVgAyOVyJ7r7+aq+1f7XSrrA3X8Wx/F9td4pSo+WflTSx1T5d5jmFAqFqRzKAOpBGIY7mNlCSYNIQwqC4NCOjo4bSAIAgAorAERRdKSkqyU1VFE+z0r6eSaTOWfOnDnP1FvnGDt2bNPgwYNPlPQlSSMrbf/c/Z7m5uYDWfgJQL2IougPksaThOTud8Vx/E6SAACgwgoAuVxuD3e/UdKmVZLLCnc/q7Gx8WezZs16od47SenTgqG7f1PSqArZreeKxeK+c+fOXcphDKAe5HK5Se4+lyT+VwD4UBzHM0kCAIAKKgBMmjRpm2w2+3dJO1RBHl2Sfp7NZn84e/bs5XSPVxcCzOyD6lvAcacUdyVx92PjOP4jrQKgHrS3tweLFi36p6Q9SEOS9HRra+sONbYWDwAA1V0ACMOwxcxukLRPpQfh7vOSJPkid5TXqV0bzexjkr4tafMUduHrhULh+7QEgDo6737AzGKS+J/vFgqFbxEDAADrZ0A/A2hmv6mCyf9idz8ljuNr6Q7rJo7jbklnh2F4sZmdJukUle+TkpcWCoUf0AoA6ohJ+lpF76DZ0iRJFpnZE+pbP2dA9fb2nkO3AABgwwYVAyKKok9K+mUF//ZeSWe6+3fiOF5LV9hwuVxujyRJfm1mhwzwpu7t7Ozc7/LLL19J6gDqRRiGx5rZlRW2WyskXe7ul0m6Po7j52gpAADqtADQ1tZ2YJIk16lyvyV/r5l9MJ/P/4Mu0H99KYqij0g6Q9JmA/D3v1AsFvebO3fuf4gaQD2JoujPko6qiBO92QPu/tOmpqaL+AILAAAUADRx4sRhDQ0Nd6kyvx/vks5x9y9w139ghGG4tZn9QtIH+rPdzGxiPp//AwkDqCelhXQflpRJeVeWS2ofOnToOTNmzOihZQAAqE79/d62ZbPZ31fo5H+5mZ2Yz+evpNkHThzHT0gKoyg6SdLZkob0w1/7PSb/AOryIp3NTk178u/ufy0Wi9PmzZv3CC0CAEB1C/rzL4ui6BNmdlwF/s67i8Xiu5j8l0+hULigt7f37ZL+tpF/1V/cvZ1EAdSpqSlv/0dxHB/F5B8AgNrQb68AhGE4yszukNRSUT/Q7KIkSU7hkf90hGGYMbOvSfqW1v+JkyXZbHbf2bNnLydJAPUml8vt7u6LUtq8u/un4zj+JS0BAEDt6JdXAKZPn96wYsWKWRU2+XdJ38rn86fTzOmJ47go6bttbW1/TpLkYkkj1/FfXe3uE5n8A6hXSZKMNbO0Nv8VJv8AANSefnkFYMWKFV+R9I4K+l1dko4vFApM/itER0fHre6+t5nl1+Efd3f/cBzH/yI5AHXs0JS2+6tCofAj4gcAoPZs9K2F0iOKd0lqqpDftDIIgvEdHR0LaN7K7HNRFH1F0ul6/QLUmYVC4QtEBaBetbe3B4sWLXpK0hZl3vTtK1euPGT+/PldtAIAALVno54AaG9vD9x9RgVN/le4+9FM/iuaFwqFH5QWi1zxGv/7tU899dRXiAlAPbvvvvv2SGHy3+vu05n8AwBAAeA1LVy48BOSDq6Q3/K0ux8ex/EtNGvly+fz883sQEn3v/j/M7OH3L1twYIFvSQEoJ4Vi8VDUtjsz+I4vpv0AQCgAPAqEydOHGZmlfKO/fPuPpaBS9UVAe5taGjYV9IVkjrN7ANxHD9NMgDqnZm9vcybXN3T0/NjkgcAgALAa2psbPyupE0r4DesDILg6DiO76Q5q8+sWbNecPeJZnZoR0fHHSQCAJK7jyzn9szs3EsvvfQpkgcAoLZt0GcAc7ncXu7+4QrY/y53H9fR0XErTVm9Sp8KvJ0kAOB/yloACILgPCIHAKD2bdATAEmS/ExSJuV9d3f/aBzH19OMAIBaMW3atGZJ25dxk3fPmTPnHpIHAIACwKvkcrn3m9mYtHfc3b8Wx/FFNCEAoJasXr16uDZykd719GdSBwCAAsCrtLe3B0mSnJb2TpvZzDiOf0jzAQBq0HZl3h5P0gEAQAHg1e69994ohZWJX+nuJEk+QdMBAGrywhwEg8u8vX+ROgAAFABeJgzDjLt/K+X9fdbdJ8VxvJamAwDUoiRJNinj5lZ3dHQ8QuoAAFAAePk/GATHS9o9xX11d/9gHMfLaDYAQA0bVMZtPS3JiRwAAAoAL2Xu/uWU9/XncRz/kSYDANQyMyvnEwArSRwAAAoAL5PL5Y6VNCqtnXT3he7+NZoLAFAHylYAcPcu4gYAgALAKwcIn0txH3uy2exU3vsHANSJDBEAAIBUCgBhGO4j6fC0dtDMfjBnzpx7aCoAAAAAAAawAGBmn01x/xa98MIL36eZAAAAAAAYwALAlClTtpT0gZT2zd39lPnz5/N+IgAAAAAAGyn7Rv9jb2/viWbWlMaOmdmcQqFwI00EAOtn4sSJWzQ1NY1095Huvr2kt5jZlu6+lbtvaWYmqcXMml/8d9x9eem/PlP686ykxyQtC4JgaRAES2bPnr2cdIHKEYbhdpJGmtkISdtK2qr05y2SNi39Y4PMrKH034vu/oK795rZM5KeLf3nw0mSLJW0rLOzc8kVV1yxhnSxvsaNG9fa2to6XNKIJElGlPrlVu6+aema0yppqJlZkiTPS1prZsslPSnpUUkPu/u/GxsbF86aNesFEsWLTjjhhE16e3tHJEky0t13NLNh7v4Wd9/KzLaU1CApa2aDX/x3kiRZZWY97r7SzJ5W32dvnzKzZUmSLM1kMks7OjoeowDw6kn4h1Par7U9PT2s+g8Abzz4zwRBsLu77yNpH0nvVN8XWzZLkuRl/6y7v3hef9X/780kSaIkSRRF0cOS7pH0T0l/7+npufnSSy99lpYABta0adOaOzs79yod6+9MkuSdZvY2SS3r8u+/8lh/rfPAi/+/lpaWJIqixaXj/O4gCG5evXr1bRQF8FLt7e3BvffeO0rSQZIOcvcDJI18rWvNS//7i33ulf+/l/6zPT09yuVyD7n7Qkn/lnRbNpu9liJ0fZg0adKODQ0N+7xkbLNnV1fXtm82pnnlue7F/+31+l9pXLPc3f9pZve4+x2SbozjeFmtZ2yv9z+0tbUdkiTJ31Lar+8UCoV2DgHUm1wud7y7Txugv/7iQqFwwUD8xdOnT2945plnts1ms9u7+/Zmtq2k7UqV2Iy7D1HfK0ebphTt1YVC4axaOGeHYbiHpCPM7AhJh0oamuL+uKR7JV1nZlclSbKg3F9syeVy33H3AwdwE/8sFApfKOdviqLoNEnfLEsDut8Rx/G+nH0ry/Tp0xuWL1++n5kdrr6FmA+Q1JziLvW4+z/M7K9BEFxVLBZvjeO4WObjYo6kLQfs5GqWz+fz56Zw3d/X3QdqvavbCoXC1/vrLwvDcJCkY83sA5KOLPP1pyjpdjP7s5n96YknnrhtwYIFvZwtamLCv31DQ8MR7n5E6Xy3Q8q79Kikv7n7fEl/jOP46XJuPAzDiWb2iYHcRvYNBgUnpxT6Mw0NDT/lcEA9cvedSxfVgRjc3Nwff8/YsWObBg0atG8QBHu7+zskvWPFihV7ZLPZxtJ2Xvp7KiLXIAh+WK19IgzDjJkdKmlC6c8OFbR7pr4nDka5+yfNbG0URdeYWT5Jkj/EcbyqDMfM2wfqmCmp6U/ymdm7oijyKtvtqYVCYU6ttUXp8en3SZqwYsWK48xsswravQYz20/SfkmSfM3Mno2i6Eozy2+66abXzJgxo6cM+3CIpO0G8FxyZxrBJkmyhZkN1Dmsux+uQS1mNkFSKOl9WsenTgboXLy/u+/v7t8aNmzYiiiKYnc/P47jWxhBVpdcLreHu08sjWveWSnjxZLtJE0xsymSkiiKbpNUcPdCHMePlmH7OwzwuOa1CwBjx45tKjVKGhOgH/HeD1Bxk9CtgyB4r7sfJ+loSUMq7GT9RhOcpW9729uuq7bM29ra9k6SZJqkKep7p7catEga5+7jSsWAK9z93DiOr1Hf0wIAXqK9vT1YuHDhe4IgmObuE9y9tUp2fQtJJ7n7SStWrHgmiqKCmc3I5/P/pFVrw6RJk7bJZrOnSPqkBvDJi40wVNJHzeyjURTdJ+l8d78gjuMnaL2KHUtuZ2YnmtmJ7v62KtntQNL+kvY3s59EUXSjpPNKxYC11doWr1kAGDRo0NFK51Hdxzs7O3/FIQKkb/z48YObmpqmmNlHJO1bLRP+V3L3c9vb25MquTgOMrOTJH0kSZJ3VHkXapEUmVkURdESSTOy2ezveIcT+N/k6uOLFi2aZmZvrdbza8mWkj7h7p8Iw/BWSb+RNDuO425auvq0tbUdmCTJZyRN1JusFVZBdpP0QzM7PZfLze3t7f3u3LlzF9Ka6Wtvbw8WLVo0XtIpko5S32uh1fpzAvW9enmomZ0VRdFFxWLxl3Pnzn2gJgoAQRDkUmqcn7HIDJD6JHRPM/u0pDZJg6r85/T09vbOrILMtzazj0n6P0mb12C3GiHpjN7e3m/mcrnZvb29P6nGCyawsXK53F6lyfKJSved/gHx4msCkn4YRdFv3P3sOI6fo+Wr4tq/m5l9N0mSsIp/Rtbdc5lMJgrD8KpMJvOtjo6Ou2jdVPrTIElT77333s9KelsN/sTNJH06k8l8KgzDq83sh4VC4aaqLQBMmzatec2aNcelsC8ru7u7Z3DIAKmdrHcIguDr7v5h1c57z1fOmzfv8QrOfGcz+4akE9T3CZtaN8jdp2cymQ/lcrnzzez0jo6Ohzn6UOva2tr2S5Kk3d3fVyc/+S2Svm1mnwnD8KddXV1nXX755SvpCRV5HdrazNolfVjVc8f/zZiZHZckyTFRFM119/Y4jhfR2gNv/Pjxg5ubm0+V9FlJm1f5003rIjCz4yQdF0XRNUEQfKOjo+PWqisArF279mhJQ1LYl3Mvu+yyFRw6QHlNnTp1s97e3u9K+qi7N9bYzzu3EnfqJcWWD9XJxP+VGtx9urufFEXROe7+Xe4SokYn/u9KkqQ9SZJj6zSCTc3sO83Nzf8XRdEP3f0XvBpQGUrrT3zGzL6j6n/a73UnZ5JCM5uQy+XOTJLktGp+b7uSlV5h/D9Jn1ffGiH16MgkSY6MougKM/tyPp+/t5IPjJdx97Ep7EcSBMHZHD5A2U/YR/X29t6jvkV+am3y/4i7/6mSdmjcuHGtURS1m9l/3H16nU7+X6pJ0mfMbHEYhqeOGTMmy1GJGpn4b5vL5X6bJMmtko4lEW0p6SdmtjCXy4XEkXr/3GnRokXXmNmZNTz5f6kGd/+KmS0Mw/B99IB+ZblcLjSzhZK+X8eT/5cN99z9nlwu99spU6ZU4gKary4AmFnZDwx3/1NHR8eD9BegbBP/liiKfmhmf5S0fY3+zHPL/Z3qN7lAHt/S0nK/pG8rvc8oVarNzOxnw4YNu6Otre1dxIFqNXbs2KYoir6WJMl9pSJfQCovM9LdC2EYXjFp0qTtiaP816IwDKcnSXKP+r63Xm92NrP5URTNnjhx4jC6w0aPJd8dhuEt7l5QZX2iuBJk3X16sVhclMvljq/oAsDkyZNHu/uOZT8bmfHuP1AmkyZN2kbSTZK+XMOD06RSFv9ra2vbKQzDP7r7xRrAb1jXiL2SJPl7FEU/GTduXCtxoMoGwwcMHjz4LknfU33cVd2Ycd9x2Wx2YS6X+4QkI5GBd8IJJ2wSRdFcM/utpMF1HseUhoaGu9ra2g6hZ2xYX8rlcj8zs1tKC3/i9W3l7hdHUXRVGIYVUyR52eA/k8mk8fj/40899dSV9A+gLAPUUdls9u9mtneN/9Q/zps376E0d6C9vT3I5XL/lyTJv8zsvfS+dZaR9PnW1tY7c7ncO4kDVTQYvlHS7iSyzoa4+6+iKPpzW1vbtsQxcNra2rbt6uq6Xn2f9kOfbZMkuTaKonZRhFpnURQd2dXV9S93P1U84bQ+jjGzeyrlaYCXNZy7H5XCPnQsWLCgl34BDKwkSfY3s5tUH49p/S7NjU+aNGmbRYsW/cndzxZ3AjeIu7/N3W+JouhL7e3tDDJQqROrvbu6uv7BYHijHJkkyT1hGDI5HQBhGL4jSZK/S9qHNF4lK+nbURRdNmHChKHE8Yb9qDGKop9K+rOknUlkg2xaehrg4uOPP35ImjsSvKRhM2a2fwqDvA76AzDwSneh6+EC98TQoUOvSmvjURQdmc1m75R0JL1uozVKOmPRokVXTJ06dTPiQCWdUkvvUt8kaVfi2GhbmNm8XC732+nTpzcQR7/Zy8xulvRWonhD45uamm4Lw5CJ7Wtoa2vbycyuV9+n/XhaYuMd39vbe0cul9sj9QKApD1V/s//LYvj+Hb6AYB+dN6MGTN6yr3R9vb2IIqi76mvOr4NzdCvjikWi7emebEE/jdTGD9+8EvepWZBz37k7tNXrFjxxzAMtyKNfrEdfXSd+94uZnbzlClT3k4a/18ul5tUWjRyf9Lo3/7m7rek9VWU/xUAgiA4MIXtx5KcbgCg/86pfn4aE4JFixbNlfQ1UR0f0ItlGIZ8Ug1pDoZHNDc33yzepR5IR5jZrblcjvUUUG5bF4vFBWEYHkAUsiiKvuzusVg0cqAMcvd8aR2KdAoA7n5wCj/8KtoeQD/6axzHi8u5wTAMRzY3N98qaQLxD/zF0swui6Loo0SBcmtra3uPu98miSdRBt7O7n5jFEWHEgXKbDMz+0sul6vbxXtLX4yYJ+mHYm2TgWbqW4fi9+V8/el/jZrCZxyeHzp06C20O4B+VNbF/8Iw3Ke0sCJ3qsonK2lGFEU/JAqUS+kx2CslbU4aZbO5pL/kcrlJRIEy28Td/9DW1jam3n741KlTN+vq6vqTuKlRbievWLHisjAMy/LKTlAaxG7q7uVe+OIvabynC6BmPbty5co/lGtjURQdbmbXShpG9Kn4chRFZ7g7r1xgoI/1T5Yeg20mjbJrdPdCLpc7kShQZs1Jkvwhl8vtVS8/uK2tbdve3t7rJR1E86fiGDObb2YD/spFIElmtofK/N6qmV1DOwPoRzPnz5/fVY4N5XK590uar/IvnIqX+5KZHU0MGChhGH5L0i/FY7Bpyrj7eaLYivIb4u5Xh2FY859PDsNwZJIkt6pvUXik5zBJXy9LAUDSO8r963p7e2+kjQH0l9IAsRyT/7HunpfUROoVgbuyGBBRFH3JzL5DEpVRBJDE5wGRhm0lXV3Ln6KdNGnSjmb2F0nb09z1Ma55sQBQ7mrPij333PNe2hdAP03+b4jjeNFAbycMw/e5+zwm/0BtC8Pwi5LOIAkAZja6p6cnDsMwU4uT/2w2u0DSTrR0/XixAFDuFW1vbm9vT4gfQD8Z8MX/oig61MwuFXecgZoWRdHHzOxHJAHgJUWA95jZ12rpN4VhuFVDQ8NfmPzXbwFgZJkPojuIHkA/eb6zs3PuAF8kR0m6jMk/UNvCMByvvnf+AeCVvl0rXwYYN25cq5ld7u670Kx1WAAofW6grAuruPs9RA+gP5jZRVdcccWaAZwQbGdmf5S0GWkDNT35P9jMOtT3vjkAvFImSZKLJk6cuEU1/4jp06c3tLS0zJO0P01apwWAIAh2Upm/AFAsFikAAOgXSZL8fqD+7mnTpjWXHvt/K0kDNT3538HM5klqIQ0Ab2D7bDY7o5p/wIoVK86SxBd06lhW5X/vY82ee+65ZO7cuaQPYKO4+61xHN89YCerNWt+LWlfkkatMrOHkiT5fjXtcxAEt/Xz5L9F0lxJW9EjAKzDeXNSGIa5OI7z1bbvuVzuRHf/JK1Y5wWAJEl2MivrAwBL63EBwAkTJgzNZDKb0+Vqw+DBgx+bOXNmJ0mkbsAW/4ui6LOSPlTD2SWSnjezF9y9QdIQSYPoUvUlSZKn4zieUc8ZBEFwrru/q0Z/nktaIWml+l5tGCJpMD0fA+y/kv4h6X53vz8IgoeTJFmTyWRW9/T0rAqCYIikTSUNMrNdJe0maXdJ71KVfGXHzH5ywgknXHnRRRetrpZGaWtr2y9Jklo+36+RtMrMVrn70NL5Lsvh+BoFADPbpszbXFaPQTc0NHyUVYVrR2dn56GSbiCJ9bJW0n2SnpT0QmnyucHFQHd3SQNSfQ/D8N2qjU+APSbpNkn3S7rP3e/NZrNLe3t7X4jjeO0r/+H29vbg/vvv37Snp2eopO3MbA/1fSb2xf9kHQTUlDAMp7v71Cr/GU+6++1m9h8zu8/M7isWiw80NzevfJ3JiU2dOnVokiSbuvvW7r5n6fgeLentkrakZ2A9dUm6UtLV7n5dHMfLNvB4bDGzgyQdKSmnyl6dfvuurq6vS6qKLwNMmDBhqLvnVd2fMe5VX2Hp36Xx5P3ufm9DQ8NTs2fPXqG+gufLjBs3rrW5uXlIkiRDgyDY3cxGl853e0rapV4LBFlJ5V7I4kHOk0BdWGRm17r7X4MguLujo+Oh1zo5V5rx48cPNrPZkhqqMPMVkv5qZtf29vZeO3fu3P+sz79cejpreenPMkk3vvR/z+Vyu7v7sZKOkXSIqKyjik2ePPltZnZWFe76KknXuvu1QRD8NZ/PL1zPc6vPnj37xeP8QUl/f8UkbKSkY83sWEmHVvmEAQPrbkm/zWaz+VKf2iilwvQ1kq5pb2//2n/+859D3f1kd2+r0Gvy58IwPC+O48WV3lBNTU2/cfcdq62Dufs9QRBckyTJtV1dXX+7/PLLV67Pv19aJHqNpCck/UfSpS8tDrS2th7xknHNDnVTADCzLfpupJXNQ5wvgZr1iKRZ7n5uNVwQX0tzc/MvJI2ool0uSvqjpAtbW1svH8hXU/L5/L2S7pX0kzAMNzWzo9X3msR79f8/KwtUvLFjxzYFQTBbUmuV7HLi7tdJuqC5uXneQD52XDp3/1zSz8MwHCTpKDM7UdI48YUE9E3K7gqC4Af5fP4SDVBhv1SQXiBpQRiG3zCzz0v6qCproc4mM/ulpPdVcntFUXSSu+eqqIs9Julid78gjuNFA7WRUnHgytIfTZky5e3FYnGipOmStq3pAoC7l3XRGzN7glMnUHNuk3T6qFGjrqrmNT5yudz73f2kKtndZ9z9Z8Vi8bx58+Y9Xu6Nx3H8vKSCpMLkyZN3yWazn3T3aep7rxOoaEOGDPmmu+9dBbv6vJn9MkmSGXEc/zeF43yV+u6YXTpp0qQds9nsxyV9ROV/ehSV4XEz+0qhULiwzP3wv5JODcPwZ6UJ9zEVlMnRURQdVCgUbqrEBps0adL2ks6ukv51rZn9JEmSP8dxXCz3xufMmXOPpHumT5/+/RUrVkx090+Z2SE1WQAo90k8SZJnOX8CNePfZvb5fD7/52r/IWEYburuv6qCXX1C0pnu/pvS4Dx1c+fOfUDSZ8Iw/EYQBB9x928wQUAFH+t7uvuXKnw3n5P0s+7u7l9cdtllKyphh+bNm/eQpK9Mmzatfe3atSe5+7clbUOPqgsu6dcNDQ1fmzVr1gtp7URpbYFjc7ncJHc/R9KwigjH/Svqe0Km8iZ62eyv1bcYXuV2Lvf5mUzm9I6OjpsrYX9mzJjRo9INjlwut1eSJN8xs/fXWgGgrHdrgiCgAABUvzWSfuzu3y8UCt218IPM7IeStqvgXVwr6XR3P+u1FvCrBKWCxM+mTp16QbFY/Ia7f0pSI4cLKmjynzGzc1W5a3x0Szqzs7PzB+v7rmu5lF4z+m0YhrPM7MuSPqfqeZUC6+8FM/tIPp+PK2WH8vn8vIkTJ97Y0NBwsaSjKmD8cGwYhnvGcfyvSmq4KIqiSi1MlNwZBMEnOzo6bq3UHczn8/+UNCGKosPd/Uwz27sWDuqg3IOz3t5eCgBAFXP3u9x9r0Kh0B7HcU1M/nO53P7qe+erUjOfXywW9ygUCt+v1Mn/S82ePXt5Pp//vJmNknQZRw0qhZl9TNK7K3T3/ubuexcKha9V6uT/peI4XlUoFL7Z29u7m6RZ9K6adG+xWNy7kib/L7r00kufcvexks6sjFOLVdRTRccff/wQ9a3lUYmeN7NPu/t+lTz5f6lCoXDd6NGj3+XuH1Lf16yqWlZlXt3V3dcKQLX69apVqz43f/78rlqaE7j7T1WZi9g9J+njcRwXqjHYfD6/RNLEMAynmdkvJA3iEEJapk6dullvb+93KnDXVkk6tVAonK8q+FLKK82bN+8RSR+MouhSSTMkbU5vqwl3uvvYuXPnPl2pO1h6T/wLURT9V9JZKV/Hp+RyufbSdS91vb29X5W0daW1mbtfmclkTuno6His2g6I0hpXMydOnHh1Q0PDeZKOrdaDu+xPALh7TdwxBOqMS/pioVD4ZI1N/hVFUZukAypx8FUsFvctFAqFas84juOZQRDsKekmDiWkpVgsVtzaFGb2HzM7oFAonFeNk/+XKhQKc919tKQ/0duq3o2dnZ2Hx3H8dJX0vbMlnSwpzUWIM+7+sUrIo62t7a3u/ukKa6ZeSd8ZPXr0+6tx8v9Sl1566VOFQmGcu5+ivldiKQCswwWYAgBQXXrc/YOFQuEntfbDxo4d22RmP6jAXTvb3Q+cO3fu0lrJuqOj48GhQ4ceLuknHFIot1wuN6K0JkUluWDNmjX75PP5f9dKznEcPzFq1KhjJH1TVV7QqFfuvjCbzY6vhtdQXlEEuMDM/i/l3ZgahmHqn8pMkuQMVda6HI+6++GFQqG9mr8U9cpDJY7jGe6+v5k9UI0FgLIuhLP55pv3cHoFqucEJ+mjcRzPrsUfN2jQoI+6+44VtEtFdz+lUCicWivrK7zUjBkzegqFwhclfVh9dwOAck1qvqnKWZDSJX2nUChMK32Huqa0t7cnhULhdEmhpE56X1V5tFgsvm/27NnLq3Hn8/n8ryWdkeIubCvpsDQzmDx58mhJuQpqlkXuvl8cxzfW4gETx/G/kiTZ391vrqb9DlTmx2WeffbZQACqxecLhcIFtfjDSnf/v1xBu9QtaWocxzNqvVMVCoXzzOwD6vuyATCgcrncCEnHV8juFCWdUigU2uvgOJ/r7sdKeoFeWBUSSSeU1nSoWqNGjfqau6f2aeIgCKam+fszmcy3VTlrGt3W09NzaBzHj9bygRPH8XPNzc3vlXRVNRUAusvcMfkkFFAdflEoFM6q1R83ZMiQD0vavkJ2Z1UQBMfUwvv+6yqfz/9B0vskPc+hhgH2DfUtepy2LncPC4XC7+ol+DiOrzWzwyU9RTeseO2FQuG6qv8R7e1Jb2/vCZJSec/c3cMwDFvS2Hbp7v/kSmgHd5+/du3awy+99NK6+PrbRRddtHro0KETJVXFTbOyFwDMjAIAUOHc/Y6VK1d+sVZ/X+kdvUr5ZE+3pIkdHR1/rbd+VigU/ubu7xePCWOAlBbD+mAF7Eri7h+M4/jSemuDfD7/DzMbK2klPbJyr/nu/v1a+T2lTwR+OKXNDwmCYGwaG85ms19WBdz9d/cFq1atmliLrzi9kRkzZvSMGjXqZElzKQC8QlNTU5MAVLKVSZLkam21/5cyswkV8u6/m9lHC4XCNfXa2eI4vt7dc+p7NBro74HoJ1QZd/8/G8fxJfXaDvl8/h+S3i+pi15ZcZIgCP6v9Em9Wrq2/FFSKsecux9V7m1OnDhxmLtHFRD9vxsaGibV8hjyjbS3tyfuPlVSRY/rAkk9ZT4oNuVci2pXLBZrtqppZt+qpdXnX8f/Vch+fD6fz19Y78dTHMeXS/qUgH4UhmGLu3+0Anblu6XPlNW1QqFwnZlNU7qfasOrzczn83+vxR/m7p+RtCqFTR9e7g02NDR8XFLaN1kfDoLgmGpdRLIfxzTdDQ0NkyXdXckFgFVlPhg351yLGlCr7y3/a9NNN/1VjU8K9lTKq/SWnFfLayxswOTgN5LIA/03wAmCNklbpDwB+UOhUPg2rdEnn893uPu3SKJi9AZB8N0anog9KimNMc1ubW1t25ZrY9OnT2+QdErKcXea2biOjo6HOaykWbNmveDux6lC1z8JJD1X5m1SAED1XzF7e2u1unnqjBkzavpTnWZ2cgXsxv2dnZ2f4Uh6uaFDh35Z0m0kgX6afH845V14uLe398Pq++wfSkaPHv0Dd/8rSVTE9XBOR0fHg7X8GzOZzE+UwlMA7n5ouba1fPnysZK2Sfl8+7l8Pv9Pjqr/L47jR939pEq8BpS9AODuW9AlUO3jyuXLl9fiEwC31MIKwG9kzJgxWUltKe9Gp5lFl19+OQtivcKMGTN63P14sVgYNlIYhjtLOjDFXeiVNKVeVsBeH+3t7YmkkySRTfrOrPUfOGfOnGcknZfChHhMubZlZiemHPPcOI7P4XB6zSLAH82s4p6sDVI4AW9Hd0CVW7VgwYLeGvxd36n1httqq62OlrR1mvvg7l+kSv6GF8vFZvY5ksBGDohPkmQp7sLphULhJlridY/zR81sOkmkei26q16uRZlM5vcpbPagcmxk6tSpm0k6LsV4H+3u7v4IR9Tra2lp+aKkf1daAaCsTwAEQbADXQFVrubuWpjZA4VC4c91MCk4PuUB1x2jR4/+NYfQG8vn8+dKupoksBHH+tQUN3//ypUrf0grvOlxPs/MLiKJ1FxcLz90zpw596j8C7LtUvrk8IDq7e39gFJc/M/dP3/ZZZet4HB6fTNnzux09xNUQV87Ctz9mTJ3FAoAqHaP1NoPcveZqvH3VEuL5IxNcReSTCbzqdLjr3jzPvk5lfkrNagNkydPHu3uu6RYfPhMvX4Ca71PiknyVUmrSaL8isVioc6uKbPLvMmmJEnK8bnh96cY6zVxHOc5mt5cHMd3K4VXUV63ABAEQblXa9yRbgAKAJU1BguCoObvwrzwwguHShqa4i7M6OjouJXDZ50vlvdJ+g1JYAMGNuPS7Lr5fH4+rbDOx/mjkn5CEuVlZv+ZN2/eI3V2Xij7U46ZTGZAC5Hjxo1rVQqfHCzpLhaL/8fRtO56enq+IemFijgezOy/Zd7m8LFjxzbRDVDFF85a+8TJ3fXw2RZ3T3NS0Nnb23saR8/6yWaz31b5v1SD6pfWsV4sFotfJ/71PjefIYlPh5U38wX19pvz+fw9kp4u83hx14H8+1taWt4rqTWlSM+dO3fufzia1t2ll176lKQzKqIA0NPTU+4CQHbIkCG70A1QxRfOmqqam9lf66Td3pdixufOmzfvcY6e9TN79uzl7s671FhnEyZMGGpm+6W0+cLcuXMfoBXWTxzHa939OyRRVvW4QKVL+luZt7nrAP/9R6eUZa+78+TOho1Fz5L0aNr7kd1iiy0eXrFiRaK+BQHLZQ9V2GqIZbjA/VjSj+n6/TvQa2xsfLbMfVfuXmt3Kq6r9b4ShuHWknZLafM9PT09XCg3UFdX12+am5u/IWkIaeDNNDY2HiIpk8Km3d1/QAtssIskfU/SW4hi4AVBUJd3bs1sobtPLuNJYfgAb+KwlKKcHcfxMo6kDZoPro2i6Nel811654AZM2b0SHqszNvdgy6Afhjo7VfuyX/JfbWUY3d39511cNE/NMVtz5o3b95DHLEb5vLLL19pZrNIAusorWP9yjiO/0X8Gzwo7pb0O5Ioj0wmc3+d/vRy/+4tB+ovnjhx4jBJb0shQy+9toMND/B3kjpTLQCUduS+Mv/wd9P86IeJ1YEpbLZH0uIaivG50jtJte6wFPspC9ltvF+oxr9SgX4bX4xJadMc5xs7IA2Cc8SXP8rhqVmzZr1Qp7+93AWAzQfqL85ms4dKshQy/Fscx4s4jDZcHMdPS0r16wlBaYBa7oZ8d3t7e0AXwEYO9A5IYTK3pHSnolYyrJfHAPdPafL/QEdHx20crRsnn8/f6+7XkgTeyNixY5vMbK80JlRDhw79Cy2wcTo6Oh6TdClJDLgVdfzby72o7GYDOL5IZVzj7hdxCPXDBDwIfl4JBYCFZd7upvfee+9uND82VKmAVPYnSdz93lrK0cweq/W+MmbMmKykUSldKC8Ud677ywVEgDcyZMiQ0ZIaUtj07NLrlOA4rwYr6/WHd3d3l/u3D+RXz96eQoRrGxsbYw6hjdfR0XGXuy9Ma/uBJCVJUvYdSJLkQJofG+ree+8dJWnTNDZdYwWAVbXeV7bYYovdJDWnMf8PguBijtb+kc1m50sqkgTeQBp3/2Vm3BHrr5Om+3WSVpPEgKrbfLPZbC0VANI43/2hjl8f6f9JeBBckWoBQFLZ3+UwsyNpemyEg1Ia6NXUgnnuXvN3ArLZ7DtS2vTCjo6OBzlU+8ecOXOekXQLSaDCBsSP5fP5fxB9/yh9EvAakhhQvfX6wzfbbLNy//YGDcB7+m1tbdtKGpZChFdx+PTrGPzKVAsAcRw/J6ncA9UjWQcAGypJkuNS2u6ttZSjmXXWel9x97ReN+Kd9f53BRHgDY71NFbEvo7kOc6BMo9FUxnXlJ7QQT8ZNWrULZKeTK0AUJoIlHtis+XChQvfTvNjfY0bN67VzI5IYdNPxHH8aI0NmGv+/XQz2ymlTXOh7GfFYpG7D3gjZT/WGRAPyHF+tVg7BXgjO6ewzftqbQyctvb29kTSn1ItALh72e9smtkxND/WV3Nz89GSWlPY9O2kX33cfXgKm02y2ez1pN+/5s6du0j1vYI13mBIIWnHFLbLkz79bN68eY+r/E+lAhQA3hjFzoEZo/491QJAEAS3pvCjJ9L0WO9RntmElDbN59yq004pbHPx7NmzlxN9/182JC0kBrxSW1vbNir/Yp/PxnG8jPQHxL+IAKiccY2730HsAzKnuSfVAkBzc/M/JHWX+Ue/KwzDnWl+rKswDDOS0npyhOpnFZ5bJb0lhe3eR/S1dbFEZSsWi9ukMCDmOB84HOfA6597yn6+M7P/kHz/a2ho+JdSeOXpfwWAmTNndiqFR5yDIHg/zY/1OAEdKmnLFDa9aujQoTwBUGXCMBwiKcuFsnYkScKdQbyWzTnOawrHOfD6557Nyr3NTCZDwXMAlD6r+FBqBYBSh/pruXfA3T9I82M9TE1jo+5+w4wZM3qIv7oUi8WhKW36ftIfsIEPdwbx6sFMEAzlOK+pczfHOfD6yl0AeLb0KV4MjLIXPINXTHL+msKP3mfKlCl8DQBvavz48YMl5VKadLDQUxVqbGzcPKX+wnvBAzfR+y8p4DWkcaxznA+Q7u5ujnOgcgoADxL5gCr7+e5lBYChQ4feImlVuXciSZKTaHu8mebm5hMlDU5j2+5+DS1QfZIkaU2pv7xA+gOjWCw+KT4Rhlcfc60c57XjiiuuWCNpJUkAr2mTMm+Pc93AejLVAkDpEeeyf7rK3T84duzYJtofb+KUlLb7cBzH/yT+qpRJaburiH5gxHHczcQAFXKsc5wPLB45BtZh/lYGXHMH1tOpdyAzuzqFHz5s8ODBbbQ/Xk8YhgdL2jOlzV8m7jhWJXfPprHdJEmolg+sNUSAtI/1bDbLcT6wbcpxDryaqfwFTwoAA2tt6gWAJEnmSUpSONGfSvvjdc92Zmnd/VcQBH+gBapWKk8ANDQ0MHAd2PMB+SL1Y723t5d+yHEOlNWYMWMyKRyLq0l+QOfAZc/3VQWAOI6fkHRbCp1r7yiKDqIb4JXCMNxO0gdS2vyKIUOG/I1WqFrFNDba09PDK00De7HMkgJeMYboLfc2kyThOAdQ7gJAojI/lerunOsG9vrVkHoBoOTSlDL4Kt0Ar+qkQfAVSc0pbf5KPv9XvTKZTCpV6yRJBpP+gBpCBHjFAKrsd4uz2SzH+cBqJALg5drb2xOV+ZFxd+dcV2P5vmYBoFgsplUAOCaXy72TroAXTZo0aXt3/2iKu3AxrVC9enp6UlmkKwgCJqgDaxAR4KWSJEnjHVWO8wFkZtx1BF7bqjIfi5zrBjbfyigAzJ079wF3vyONDJIk+TpdAS9qaGj4mqS0BgGP8/m/6ubuqRQAMpkM1fIBMm3atGZJvAKAlw9mgqDsT/twV2zA892CFIDXVO7zHQWAgVX2mxpv9BmJC9JIwMwmhmG4D30BYRju4O4fTnEXZsdxXKQlqlcmk1mR0sB1U9IfoFHP6tVMuvAqSZKkcaxznA+Q9vb2QNLmJAG8puWc62pKZTwB8OLkR1JXOjUAO5O+gCAIvq4U3wE0s4toheoWx/HzKn+lXEmSjCD9AbMVEeA1jrnHUtgsx/kAWbhw4TCl9BUXoNK5e7nPdzuGYcjxWEPjmuANBs7PuftVKQVxWBiGx9If6lcul9vD3T+U4i7cmc/n/0lLVD8zeyyFbe5O8gOWLZMuvEpTU1MaBQCOc45zoOyCICj3+a45SZLhJD9gyn6+C97kf78grSTM7MdhGLICbJ1e+939HEkNKe7Dr2mG2pBCpVySRpM8EwOUz+zZs5dLWsNxznEOMK7pf9lsdhTJD5iyF1ferABwlaRlKYWxu5l9lj5Rf8IwPFnSwSnuwvK1a9d20BI14+E0zl/EPmADnz1JAa/jkXIP2saOHctK9RznQM2Pa9ydAsAAmDJlypaStqmoAkBpAbTfppjLt8Iw3JnuUT8mTpy4hZn9IOXd+P0VV1yxhtaomYHkf1LY7NC2tra3kv6AtOfepIDXUe5jPTto0CCKfRznQHknb0GQxriGotwASJLknan0oTf7BzKZzO8lrU0pl1Yz+wXdo340NDT8WOku8pW4+29piZqyKKWT+hFE37/GjRvXamY8do3XZGZpHOsc5/0sDMOMmb2TJIDXLQDcm8JmD5dkpN/vY8V9K7IAMGfOnGckzUkxm2OjKDqZLlL72traxkialvJuzIvjeDGtUVMn13tT2vTRpN+/Wlpa3qsUvwyCincvx3n1y2QyB0rajCSA11Za8+SJMm9261wu93bS73fHVGQBQJLM7GxJnmI4Z02aNGlH+kjtmjhx4hZJklyolKuLFfD6AfrZs88+u1jpfNL0qNK3rNF/x+dxpIDXkyTJwhT65KHjxo1rJf1+bUeOc+BNuPvCFLb5PpLvP2EYbmVm+1VsAaD0ObQrU8xoSDabPZ9vUNbuuL6hoeE8SWm/M/3HfD7/D5qjtixYsKBXUhqfdNxy4cKF76IF+seYMWOy7s7EAK9r1apV/1b5i33Nra2th5F+Pw4IzMaTAvCmx8kdKWyWJ576cxIeBMdJSmVuG6zHTn4v5ZwON7Nv0l1qTxiGn5ZUCRd87v7XrltTukBPIPr+8Za3vOV9kt5CEng98+fP75J0Vwqb5jjvv/HAu939bSQBvDF3T2Ncc1AYhluRfr+14QlpbXudCwAdHR23Srom5ay+GYbhUXSZ2pHL5d5pZmdUwEG4oFAo/I0WqU1mdmtKm/7Q9OnTG2iBfjlGWQsG6+K2FPrm1PHjxw8m+n4YlAbBNFIA3lyxWPx7CpttNLOTSH/jtbW17SQptafH1uv9VHc/Pe1rg5ldHIbhDnSd6nf88ccPkdQhKe3vKHsQBF+lRWpXkiRpFQC2fv7558fRAhtn0qRJ20ji8X+syzgljWN9UHNzcxvpb5xx48a1ujs5Autg3rx5j0t6uNzbNbPp4msA/TEuPXl95+GpFQDiOL5e0l9SzmyYpKtLk0dUqenTpzf09PQU3H2XChgwXprP5/9Oq9Su0pcdHk6pf02nBTZONpv9jCSepMCbKhaL1ymFRYs5zjdeS0vLR8Tq/8D6uD6Fc90uURSNIfoNV1o49uNp7sN6Vx7M7IuSkjR32sxG9/T0zGFRwOr1/PPP/1yVsZhIURJrS9SHP6W03aNyudwI4t8wEyZMGCrpYySBdTFv3rzH3f1fKYxL3tXW1sainxtozJgxWUmfIQlgvSbj81Pa9MdJf8O1tLR8SNKWVVUAKH0RYE4F5HeMmf2EblR9wjD8lrtXxMnDzGbGcbyIVqkLf0zrPOvu3yL+DdPQ0PBpSTzxhfU5r6cyKE6SpJ30N8ywYcPaJO1MEsC6y2azf1Y6N2Unh2G4Jy2wQXOgRkmfT3s/NujdgyAIvqF0vqv9Sp8Jw/DrdKfqEUXRFDOrlEHSCz09Pdz9r5+J5F8k9aS0+Q/mcrm9aIX1M3HixGFm9nmSwHqOUdIq9h3b1tY2hhbYoAFxO0kA62fOnDnPSErjc4CBmX2PFtggH1cFFDs3qADQ0dHxoJmdXQkpmtnpURTxeGh1TP6PlnSBKmfxkG+WFlFBHZg1a9YL7p7Wlx4Cdz+NVlg/DQ0Np4u7/1hPQ4YMuUnSc2lsO0mS02mB9Tw5BsEnJPGaFLBhrkhpu+OiKDqI+Nfd8ccfP8TMKuLG9QavPrhmzZp2M3uoQjL9dS6X+wRdq3Llcrmxki5VhSzk5e4Lhw4deg4tU3fSfH1pPBfLdVd6n5pP/2G9zZgxo8fMLklp8wdFUcSXP9bRxIkTh7k7T+IBG8jM5iiFhU9LY+kfiC8CrLOenp5vSdqqqgsAV1xxxZokSb5QKf3f3X/JkwAVO/mf5O6XSWqpkF3yTCbz8RkzZvTQOnXnEkmdKW7/d9OmTWumGd7YmDFjssVicYYkFnrFBkmSZHaKm/91afFKvImGhoafSdqcJIANk8/nl7j7bSkVHw7J5XIfphXWaS60l6RPV8r+bNT3B+M4vkTpraz9qn6ovicBPkM3qxxhGE5197ykxkrZJzP7XUdHxw20Tv2J4/h5d786xV3Yfc2aNe20xBsbNmzYN8xsb5LAhho9evQNSunTn5K2b2xs/DGt8Kbjg2MlTSEJYCMnc0EwK61tu/uZkyZN2pFWeH3Tp09vcPeZqqDPGQf90PCfkrS2UuZ27n5WFEU/Fo+kVMLF/cNmdpGkbAXt1sPZbPaLtE5duzjl7X8hDMMDaIbXPW8cLInFXbFR2tvbEzObleIufDiKomNoidc2ZcqUt5jZuSQBbLzu7u68pO6UNj8km82ex7zr9T3//POnSXpHJe3TRhcA4jhe7O7fqLCsv5DL5S4urSyL8rMoir5tZr/rjz7Wn9x9+qxZs16gierX008/fYXSuzMoSRkzmxmG4SBa41WT/63MrEOVVTREtV6IzH4rqZjW5iX9buLEiVvQEi/X3t4eFIvFCyRtTRrAxrv00kufSnHdE0k6IgzDT9MSrzmuOcrdv1Rp+9Uvk7PRo0f/zN0r6pFqd58q6bpJkyZtQ/crn/Hjxw+Oomie+j7pU1HVQDObGcfxH2ml+rZgwYJeSWkvALmrmc1qb28PaJE+Y8aMyZbu2G5HGugPHR0dDyq9FbIladuGhoZ53Ix4uUWLFn1N0tEkAfSrX6Q8xv5xGIZH0Az/36RJk7YvPQldcWO9ftmh9vb2RNJJklZV2ITvwGw2e0dbW9t+dMOBF4bhyKamplskTai0fTOzpUmSfIZWgiRlMpnfKf1Xl8YvWrToR7RGn2HDhv1c0lEkgf7k7r9IeRcONbMZtESfKIomS/oOSQD9K5/P/13SbSnuQoOZXTp58uTRtIYUhuGgbDZ7haS3VOL+9VtFIo7jZWb25Qr8jdsmSbIgDMNPifdTBkwulxtrZrebWSUe+D1JkkyJ4/h5WgqSNGfOnGeU7icBX/T5MAynMymIviaJT7mi38VxfJ2kf6W8GydFUfTVem+L0s2YirwbBtSItAueQzKZzGX1/upTGIaZ0hjzHZW6j/16Es7n8+dIuqwCf2ezmf0iDMNLeR+vf02bNq05iqIz3P1KSUMrcR/d/etxHN9Ga+EV/eIHknrT3g8z+2Uul5tUxxfKT0k6nR6JgTrUK6R/nR5F0cn12ghTpkx5e5IkV6lyPgcM1JynnnqqQ9LilHdjZENDwxVhGG5aj23Q3t4eBEFwvpkdV8n72d9VWM9msydLerASf6yZvb+hoeGfrMzbbwP3d69Zs+ZOSV9S5Vb0/zR69OgzaS28UhzHiyXNqoBdaXD3QhiG0+qtDXK53EfM7GzxdBYG0KhRoy5R+k8BBJLOrcdPFYdhuFuxWPyTJG7AAANowYIFve7+vQrYlQMkXReG4VZ11gS2aNGiX7n7CZW+o/0+aZs9e/ZyM4uU3uco3sx2kq6KoqgwZcqULTldrL/p06c3RFH0ZTO7UdKoij0KzR5y9xNKa1QAr+Lup6sCngJQ35cBfl9PrwNEUfQld5/B5B8DrXQNqISnAF78VPGX6yX7MAz3MbPrxYr/QFk8/fTTF5vZAxUwBt9bdbQYe2ludL6kj1XD/g7IXdt8Pn+7pK9U+nWpWCz+K5fLncgAdL0u5u9esWLFPyT9UFJDBe/qmiRJJsRx/DSthtdTegrgwko5H5vZb0rvCtfsOSkMw0wURb+SdAbnXpTLqFGjLnH3eypkd34YRdEZpfdEa3m88D4zW6AKXQQLqEWlpwBOq4R9MbPRDQ0N14dhuFstZz5+/PjBK1asuEJ9C+JXhQF7bLtQKJwl6bwK//1bu/sFYRjelsvl9ue08fra2tremsvlfmtmt0jaowp2+SNxHN9Ny+HN9Pb2fkPSygrZHZP0/SiK5tXi+3OlNViuEAv+ocxKTwF8toJ26UuS/lSrj8hGUfRpM7tC0iB6H1Beo0aNmq10vwjwP+6+i5ndnsvlwlrMevLkycObm5tvUJV92nRA39tubW39pLvfWukhmNm73P2mKIouyuVyIzh1/H9hGG6ey+XOTJLkAXefripYvdfMflwoFObQelgX8+bNe1zS9ypstyYEQfDPXC63b63knMvl3tnQ0HC7mY2l1yENcRxf6+7zKuha9R4zuyuKooNqaMwwKIqiOZJ+LilLrwPKr729PXH3T0iqlFdgB7t7IZfL/TYMw8YaOt8dm8lk7pC0V7Xt+4BO5mbOnNlZLBYnSnqkSrL4oLvfG0XRb9ra2t5azyePcePGtYZh+EUzW+zun5PUVCW7fsnuu+/+FQHrYeXKlT9T+ivnvoy77+ju14dh+LkxY8ZU7UB6zJgx2SiKvuruN0vamd6GlH1B0toK2p/tJF0XRdE3x44d21TNwba1tR1oZndIaqObAemK4/hO9X12s5LGNdMl/W3KlClvr+ZsTzjhhE2iKDq79JTTZtX4Gwb8bu68efMed/cJklZXSSYNkk5JkmRJFEUXhGG4Zz2dMMIw3C6Xy/2gpaXlv2b2o2rq2O5+Q2trK4v+Yb3Nnz+/y8w+XYG71mJmZ2611VZ3trW1HViF55M9hw0b9ndJ31f1FBFR24PiZepbf6LSxh2nDR48+J4oio6stkzHjRvXGkXRT5MkuUHSbvQyoDL09vZ+VdKKStonM9uvWCzeGUXRT8IwrLpXhKIoOry7u/seSf+nKl7HqCyPc5eqUJMl9VRRNg2STjSzf0ZRND+KognVfBduHQbq746iaLaZLXP3r6j6PtezqKGh4f0zZ87s5JSPDZHP5+dLuqAS983M3p4kyY25XO7cKVOmVPyCWhMnTtwil8v9wsz+IWkfehcqibv/QNI/K3DXdpX0lyiK5lTJU4gWRdEHW1pa/qO+9RUCehdQOUqvOH6mAnctK+nzZnZvFEVRNUyk29radoqiKC/pr+4+vNr7RtlO1oVC4U/uPk2V8z7KOl/gJL1P0qXDhg17KIqi7+ZyuV1rZNK/aS6X+1AYhjeZ2a2SpqiyV/Z/Pf/t7e09Zvbs2cs53WOjrkjZ7GclPVap5yJ3/3CxWFwWRdGvwjCsuMfpx48fPzgMwy82NDQ84O6fEu8AowLFcdwdBMGHVLk3JdqSJFkcRdHvK3T1bAvD8H1RFP1dfY8Yv5VeBVSmQqFwgaSrKnT3tpeUD8PwX2EYnlCJN1rDMNw6iqIfJ0lyr6SqKFas03i3zBfd2WEYbmVmP6vSvLaV9A13/0YYhneZWYe7x6VHCqvC+PHjB7e0tLzP3UNJ49y92ayq+/Jj7v6eefPmPcRpHhtr9uzZy3O53CnufkUF72aLpE+Y2fQoijqCIPhpR0fHXWnu0MSJE4c1NDR8StKnVKXvw6G+dHR03BVF0Q8lfbNCd7FR0slmNi2KonlmdmY+n/97ygPhRjObrL4vGLyDXgRUB3c/xcz+LWloJe6fmY2WdOGwYcNOi6LoJw0NDRfNmjXrhTT3qXSz9/PufqKk5lrrE2WvtMRx/PMoioZKaq/m4Mxsb0l7m9kZuVzuP5Kudvf57n5THMeVtMCQJk+ePDqbzR7h7sdIOtzda+Vd3CeLxeJ75s6du1hAP8nn81dGUfQbSR+rgvP3B5Mk+WAURYskdbj7nDiOy3I8hGGYMbOjJZ0saVxpwgJU06D4dEnvNbP9Kng3A0kfcPcPRFG0WNIcd++I43hRGSf+e5rZyZKOl7QVPQeoLnEcPxqG4cfMrKPCd3UnSb/s6en5SRRFV0ma09raelW5Xu8Nw3BQEARhkiQfcveDVSN3+yuiACBJhULhO32vfFR3EeAlg4i3SXqbpM+ZWXcURXdKuknSTe7+z3I+ITBu3LjW5ubmd0p6d2lQc5ikt7h7rfXdZ9z9qLlz5/6HUzv6W2tr62dXr169X6nQVw1GSTrNzE6Louh2SX+SdEt3d/fNl1122Yr+2sjUqVM36+npeY+ZjZN0jKQt6S2o4kFx96RJk3LZbPYfkjavgl0eKembZvbNKIr+KemP7n5zNpu9ec6cOc/08zjiIDM7xsyOdfdd6C1A1Z/v8lEUHSrpE1Wwu83qWztu8po1a16Iougqd78hm83e1NvbuzCO42J/bWjy5Mm7BEFwtJkdK2lMDTwZXbkFgJcUARJJp9VYpo2SDij9+YKZKYqiFyT9y8wWJkmyTNKyTCbzYHd396NDhgx5Zn0rWxMmTBiayWS2y2azOyRJ8lYzGy5p99IkYGdJmRrvt48Vi8X3zp07dyGndAyEmTNndoZhGEm6Q9KmVbb7+5b+qLGxMQnD8F4zu8XdlwRB8HCSJA9lMpmHisXiY691ER03blxrY2Pjdg0NDVu7+3buvo2Zvd3d9+vt7X2b1cOVEXVj3rx5D+VyuZPc/XJV192evSTtZWYqFosqPYn49yRJFkv6byaTeVDSw0OGDHl0xowZr1rrIAzDliAItk2SZJsgCLZx920k7VE6d+zx4viwBm8eAHVr5cqVnxs8ePB+qq7FeYdImmJmU4rFoszshSiKblHfQq7/NbOHkiR5qKen5+HXueFhYRi+JQiCt7j7dmb2Fncf7u77mNm+qtMbGakutlAoFL4bhmFiZqfXeM5DJB3k7ge9OHZOkkTZbFZr1qxRFEWrJT2rvk8lrin9O8+r77NZL753Mlh979Zu/uIE391Vh2PxJaU7/8sEDKA4jhfncrmT3f0SVe9jYEHp3brRZva/c0aSJCoVJ1/6zy5X3yKgg148R72ISQBqWT6fvzKXy51R+gJOVXrxScSXjjEkacWKFa88zleo77WCIS+eDzi+gfowf/78rsmTJ0eZTOZ2VcdTT683pzq69Od/45rGxsZXnus6Ja0tzZ+yL57nXvzPer+XkfonW+I4/p6kD0vqreN22ETSDuq7i79P6c8Rkg56yf+9q/revcvUcU6L3P2walp0EVU/MZgn6Vt18nM3e3HyD9Sb3Xff/euSLq2Dnzq0NIAGUIfmzp27NAiCCZK6avynNpfGNXyNqBILAJJUKBTOk9SmvmoN8Fqud/dD4jh+lChQ5vPT6ZJ+RxJA7Wpvb0/c/XhJt5EGgFrW0dFxg7t/jCQoAFTCIHuuu79PfY+nAS87V7W2tr4vjuPniAJpKH3T/nqSAGpXHMdrgyCYKOlh0gBQ4+e7mZK+TxIUACqhM15fLBYPlrSEpoEkl/T1QqEwpVyfAAFe59zU7e7vd/c7SAOoXR0dHY+Z2ZGSniANALWsUCh8Q9JvSIICQOrmzp270N3fLekamqeurXT3qFAoUJ1EpRQBnu/p6TnK3e8iDaB25fP5+939vepbnBcAapUXCoVPmNnviYICQCUMtJ8rvQ5wBk1Ul+4zswPjOL6EKFBJSp+YOVrSItIAalccx/9y9yPV93UMAKjZIkCSJKdI6iAKCgCVcPEtFgqFr0g6QdIqmqpuzHH3d+Xz+X8TBSr03PR0b2/vkZL+RRpATR/rd5duRvAkAIBaPtcVhw4deqKkOaRBAaAiFAqFi81sHx67rXlr3f0ThUJhahzHFHxQ0ebNm/d4Nps9zN1vJo1U/UvS34kBAzgwvs3MDpH0CGmk6jJJTxMDMDBmzJjRM2rUqA9K+hVppGqFpLjuCwBS3/t4q1atOkDS2epbGA41NojPZDL7x3F8DlGgWsyePXt5Z2fnUe4+nzRScX13d/ehYrE2DPwY5F53P0jSfaSRivOfeuqpUFI3UQADp729PSkUCp+S9BXSSMXj7n64u99EAaBk/vz5XYVC4VR3HyfpMfpITShK+sHQoUP3mTNnzj3EgWpzxRVXrNlss83eL+m3pFFWl6xcufLo0poMwICL4/i/mUzmYHdfQBrl4+7fLhQKJy9YsKCXNIDyKBQKZ7j7R0TRrZwWufv+cRzfXY6NBdWWThzHV3V3d4+WdD59par9290PKRQKX5sxY0YPcaBazZgxo6dQKHzM3T8hib488M4cNWpUbv78+V1EgXKaM2fOM5ttttl7Jf2aNAZcp7t/KI7j04gCSGW+9XtJR0h6kjQG3LXufkgcx/8t1waDakzpsssuW1EoFE5297GSHqbfVJW1kr4+dOjQd8ZxfAtxoIYulucEQfBeSc+QxoBY5e5thULhC+3t7QlxIA2lgt8nzexj4u7YQPmvmR0ax/FMogDSUygUbgqCYF9Jd5LGgHAz+7G7vzeO4+fKueGgmlOL4/iP7j5KfZ8L5EJc+a5x97cXCoXvc9cftaijo2NBJpPZQ9IfSaNfLXb3A+M4zhMFKkE+n/+tux8o6X7S6FfXZzKZd+fz+duJAqiIcc3DK1euPKg016L43n9WmVkun89/KY7jYrk3HlR7enEcryoUCl9x99GSrqI/VR4ze8DMokKhcFQcx4tJBLVszpw5T44aNepYd/+qeCWgPxTc/V1xHPPZRVTa+ONOd99HvJLYH3olne7u75kzZw6PHAMVpLQO21ckjZP0FIlstLvN7N35fD5OaweCWkkyjuPFhULhODObYGb/oW9VhOWSPpckyR5pdnKg3Nrb25M4jn9oZge5+0IS2SDPmdmUQqGQi+P4eeJAhY49VhUKhZMl5RgYb7D7zOyQQqHwzTTuhAFYN4VC4Wp330vS5aSxQXrN7Hvuvl8+n783zR0Jai3ZfD7/hyRJ9jCzkyX9l76WitWSftTT07NLoVA4K45jXs9AXcrn87dvttlme6vvkzqdJLLO/uTub8/n8x1EgSoZGBe6u7t3M7MZ4nPF68rNbEZTU9M++Xz+78QBVL44jp8oFArvlzRe0iMkss6WuPvh+Xz+G5UwL8rWaOcsSjp/7NixswcNGvQxM/uqpLfQ98oy8T/H3X8Ux/HTxAH0LRom6YwwDC8zs3MkHU4qr+sxSV8uFAoXEwWqTemzlKeEYZgvHeu7ksrr+mcQBP/X0dFxA1EA1adQKFwxYcKEGxobG38gabpq8KZyP+mU9GN3/0Ecx2srZadqurHmz5/fFcfxz1tbW3eS9HFJvH8+MFZIOiOTyYwoFApfZPIPvFocx/cVCoUjJB0liffZX65H0tkNDQ27M/lHDRzr1w4dOnQPdz9FfELrlZa7+2fcfR8m/0B1K32V7eNmtockXvV9BXe/slgsji4UCt+qpMm/VKNPALzSzJkzOyX9JgzD3wVBMClJki+Z2bvomhttiZn9PEmS8+M4XkUcwJsrFArXjBkz5p3Dhg37iKR28XTSFWb2hXw+z2rqqBmlJ39mHH/88R09PT1fkXSqpNY6jqRb0rk9PT3fuvTSS5+lhwC1o/Q+exSG4VGSzjCzves8kn+b2ecLhcKfK3UHs/XUGqVXA2JJcS6X29/dp6tv4Z5WDt91lkj6i5nN2H333S/je9zA+luwYEGvpN+MHTv2/CFDhuTc/ZuSRtZZDNe4+9fjOL6NHoFaNWvWrBckfS0Mw7PM7JOSPi1pszqKoMfMOpIkOY2vAAE1P8/6i6Rroig6TtJXJR1QT7/f3RcGQfCjJElmFQqFil7QNFuvnbS04MzfJ0yY8LmGhoYPmtl0SXty+L6uB939fEkz4zhmcUWgH8yfP79L0oXTp0+fs2LFiqnu/kUzG13L10dJV7j7aXEc30kPQB0NjJ+W1B6G4VmSPm5mn5a0TQ3/5C5J57v7DwqFAmMGoI7mwYVC4QpJV7S1tY1JkuQrkt4ryWr4N//TzE4rFAqXqkoWgc3Wey8tLdrzS0m/zOVye0hqc/ec6u9u3Gt5StI8SYVRo0Zdz91+YGCUHhe+QNIFYRjuEwTBdHefKmlQjfzE580snyTJz+M4XkSLo44LAc9L+mEYhj82s8PVt3jWxBoajz0q6Vx3/xXrAQH1raOjY4GkBZMmTdo+m80eL+kTknaokZ/XLekPkmYUCoW/qsq+/pKle/5/+Xz+35K+IekbuVxuX3f/gKRjJO1RRzE8Lulydy9Iup5v8gJlnyDcqb6VxL8kaaqkj1bp+3Qu6e/uPkNSvlAorKV1gf8d50VJ10i6ZtKkSdtnMpmTzezDVTo47pH0R0m/GTVq1B+5WQDgpebNm/eIpDPGjBlz5rBhw46T9BFJ75OUqbbfYmZLkyQ5L5vNnjtnzpyqXeSVAsDrFwNul3S7pC+HYbhDEARjkyQZa2bvUe3clZP6Klg3SvqTmf0pn8/fI75hDFTCBOF5SedIOmfy5MnDgyAYZ2bHSRpT4efuRZJid7+Yd36BdR4cnybptMmTJ4/OZDKhpOMk7VPBu11UX4Ev7u3tnXPppZc+RUsCeCOl9Y8uk3TZxIkTt2hsbDzW3Y8rFQMGV/Ck/yF3/4O7x4VC4aZamCdRAFi3gfh/Jf1W0m/HjBmT3Xrrrd9RLBYPMrODJR0saesq+jkvSLql9OempqamWy666KLVtDJQuebOnbtU0s8l/TwMw63MbJz6nk46qALOP09JWuDuC4rF4hWlyQyADTvWF0paKKk9l8uNSJLk/ZKONrP9JQ1JefeWmNmCJEmu7enpubr0CiUArLfS10AulHRhGIYtZnakpPGSDpG0W8q7t1rSzZIWBEEwv6Oj465ay58CwHoqVa/uKP35uSSFYbizpHdI2tPM9jSzvdx9hKQg5d19VH2forhH0r+TJLlr9OjRC3k8r3J1d3f/MpPJzC7X9oIgYABXZUrv1Z5X+qMwDHcOguBASfu7+wHqe2WpaYA23ylpkZktdPdbi8Xigrlz5y5SitXwTCbzse7u7s8P1N/v7mV/dSGbzZ7V1dU1s0zngC6OqsqUz+eXSPqppJ+GYZiRNCoIggNLx/n+kkYM4Dju+dKK1v9OkuTGTCazoKOj4+E083D3A5MkyQ7gsZDK9bCzs/NvjY2NI8qYY92+jjVjxozeyZMnjyh31+Vs9qbjmrWSrij90ZQpU7ZMkmR/dz/A3Q80s3dIGjpAmy9KWuLu/5b0DzNbMHTo0NtKazOlZWaxWLxiIDdgdLuBEYZhi6SdX/xjZju5+86StjazLSS9+GdD22C1pGfd/Vkze0zSQ+7+YBAEDyZJ8lBDQ8MDs2fPXk5LAPWlvb09WLhw4faZTGYXdx/p7iPN7K3uvoW7Dw2CYFN3H1q6mPaWJvUv6pX0tKQn1LceyFOSHjOzpb29vf8KgmAp64IAlWH69OkNzz///M6l43wXM9vF3bcxs6GShprZ0Jcc66tLx/eLutz9KUmPmtlTkp4wsyfc/d4gCBalPdkHgFfMq7aSNDIIgl3cfZfS/GoLSZuWznFDS/+9QdKql012zZ5x9ydfOrYxs2Vmtqi5ufnemTNndtZbnhQAUs4/DMMtkyQZLKklCIJmScpkMkOTJHmxbda6+4sd83lJazfZZJNn67GzAgAAAAA23P8Dd7SBhfyaMesAAAAldEVYdGRhdGU6Y3JlYXRlADIwMjQtMDctMDhUMDY6MjI6NDcrMDA6MDDUgWejAAAAJXRFWHRkYXRlOm1vZGlmeQAyMDI0LTA3LTA4VDA2OjIyOjQ3KzAwOjAwpdzfHwAAAABJRU5ErkJggg==;clipPath=inset(0% 10.41% 21% 11.43%);" vertex="1" parent="1">
          <mxGeometry x="507.05" y="342.78000000000003" width="42.95" height="44.45" as="geometry" />
        </mxCell>
        <mxCell id="J4eak5XjC7vP3URmlibT-77" value="" style="shape=image;verticalLabelPosition=bottom;labelBackgroundColor=default;verticalAlign=top;aspect=fixed;imageAspect=0;image=https://grafana.com/media/docs/loki/logo-grafana-loki.png;" vertex="1" parent="1">
          <mxGeometry x="553.61" y="343.61" width="42.78" height="42.78" as="geometry" />
        </mxCell>
        <mxCell id="J4eak5XjC7vP3URmlibT-78" value="" style="shape=image;verticalLabelPosition=bottom;labelBackgroundColor=default;verticalAlign=top;aspect=fixed;imageAspect=0;editableCssRules=.*;image=data:image/svg+xml,PHN2ZyB4bWxuczp4bGluaz0iaHR0cDovL3d3dy53My5vcmcvMTk5OS94bGluayIgeG1sbnM9Imh0dHA6Ly93d3cudzMub3JnLzIwMDAvc3ZnIiB4bWw6c3BhY2U9InByZXNlcnZlIiBzdHlsZT0iZW5hYmxlLWJhY2tncm91bmQ6bmV3IDAgMCAzMDAuOCA3ODsiIHZpZXdCb3g9IjAgLTAuMDE0NDUxMDA0NTY0NzYyMTE1IDMwMC44MDAwMTgzMTA1NDY5IDc4LjExNDQ1NjE3Njc1NzgxIiB5PSIwcHgiIHg9IjBweCIgaWQ9IkxheWVyXzEiIHZlcnNpb249IjEuMSIgd2lkdGg9IjMwMC44MDAwMTgzMTA1NDY5IiBoZWlnaHQ9Ijc4LjExNDQ1NjE3Njc1NzgxIj4mI3hhOyA8c3R5bGUgdHlwZT0idGV4dC9jc3MiPiYjeGE7ICAuc3Qwe2ZpbGw6dXJsKCNTVkdJRF8xXyk7fSYjeGE7CS5zdDF7ZmlsbDp1cmwoI1NWR0lEXzJfKTt9JiN4YTsJLnN0MntvcGFjaXR5OjAuODtmaWxsOnVybCgjU1ZHSURfM18pO2VuYWJsZS1iYWNrZ3JvdW5kOm5ldyAgICA7fSYjeGE7CS5zdDN7b3BhY2l0eTowLjg7ZmlsbDp1cmwoI1NWR0lEXzRfKTtlbmFibGUtYmFja2dyb3VuZDpuZXcgICAgO30mI3hhOwkuc3Q0e29wYWNpdHk6MC44O2ZpbGw6dXJsKCNTVkdJRF81Xyk7ZW5hYmxlLWJhY2tncm91bmQ6bmV3ICAgIDt9JiN4YTsJLnN0NXtmaWxsOnVybCgjU1ZHSURfNl8pO30mI3hhOwkuc3Q2e29wYWNpdHk6MC44O2ZpbGw6dXJsKCNTVkdJRF83Xyk7ZW5hYmxlLWJhY2tncm91bmQ6bmV3ICAgIDt9JiN4YTsJLnN0N3tvcGFjaXR5OjAuMztmaWxsOnVybCgjU1ZHSURfOF8pO2VuYWJsZS1iYWNrZ3JvdW5kOm5ldyAgICA7fSYjeGE7CS5zdDh7b3BhY2l0eTowLjM7ZmlsbDp1cmwoI1NWR0lEXzlfKTtlbmFibGUtYmFja2dyb3VuZDpuZXcgICAgO30mI3hhOwkuc3Q5e29wYWNpdHk6MC4zO2ZpbGw6dXJsKCNTVkdJRF8xMF8pO2VuYWJsZS1iYWNrZ3JvdW5kOm5ldyAgICA7fSYjeGE7CS5zdDEwe29wYWNpdHk6MC4zO2ZpbGw6dXJsKCNTVkdJRF8xMV8pO2VuYWJsZS1iYWNrZ3JvdW5kOm5ldyAgICA7fSYjeGE7CS5zdDExe2ZpbGw6dXJsKCNTVkdJRF8xMl8pO30mI3hhOwkuc3QxMntvcGFjaXR5OjAuMztmaWxsOnVybCgjU1ZHSURfMTNfKTtlbmFibGUtYmFja2dyb3VuZDpuZXcgICAgO30mI3hhOwkuc3QxM3tvcGFjaXR5OjAuODtmaWxsOnVybCgjU1ZHSURfMTRfKTtlbmFibGUtYmFja2dyb3VuZDpuZXcgICAgO30mI3hhOwkuc3QxNHtmaWxsOnVybCgjU1ZHSURfMTVfKTt9JiN4YTsJLnN0MTV7ZmlsbDp1cmwoI1NWR0lEXzE2Xyk7fSYjeGE7CS5zdDE2e2ZpbGw6IzI4MkUzODt9JiN4YTsJLnN0MTd7ZmlsbDojMzBCOTlFO30mI3hhOyA8L3N0eWxlPiYjeGE7IDxtZXRhZGF0YT4mI3hhOyAgJiN4YTsgICAmI3hhOyAgICYjeGE7ICAgJiN4YTsgICAmI3hhOyAgJiN4YTsgPC9tZXRhZGF0YT4mI3hhOyA8Zz4mI3hhOyAgPGxpbmVhckdyYWRpZW50IGdyYWRpZW50VHJhbnNmb3JtPSJtYXRyaXgoMSAwIDAgLTEgMCAxMTIuMzA1NSkiIHkyPSI2MS4xMjQzIiB4Mj0iMi4wOTgxIiB5MT0iNjkuNzQyIiB4MT0iMTEwLjU2OTIiIGdyYWRpZW50VW5pdHM9InVzZXJTcGFjZU9uVXNlIiBpZD0iU1ZHSURfMV8iPiYjeGE7ICAgPHN0b3Agc3R5bGU9InN0b3AtY29sb3I6IzAwOTdDRSIgb2Zmc2V0PSIwLjI5ODYiPiYjeGE7ICAgPC9zdG9wPiYjeGE7ICAgPHN0b3Agc3R5bGU9InN0b3AtY29sb3I6IzA5OTlDNSIgb2Zmc2V0PSIwLjM3OTEiPiYjeGE7ICAgPC9zdG9wPiYjeGE7ICAgPHN0b3Agc3R5bGU9InN0b3AtY29sb3I6IzIyOURBRCIgb2Zmc2V0PSIwLjUxMTkiPiYjeGE7ICAgPC9zdG9wPiYjeGE7ICAgPHN0b3Agc3R5bGU9InN0b3AtY29sb3I6IzQyQTM4RiIgb2Zmc2V0PSIwLjY0NjkiPiYjeGE7ICAgPC9zdG9wPiYjeGE7ICAgPHN0b3Agc3R5bGU9InN0b3AtY29sb3I6IzVEQUQ4MiIgb2Zmc2V0PSIwLjczNTIiPiYjeGE7ICAgPC9zdG9wPiYjeGE7ICAgPHN0b3Agc3R5bGU9InN0b3AtY29sb3I6I0ExQzY2MSIgb2Zmc2V0PSIwLjkyMzkiPiYjeGE7ICAgPC9zdG9wPiYjeGE7ICAgPHN0b3Agc3R5bGU9InN0b3AtY29sb3I6I0JFRDE1MyIgb2Zmc2V0PSIxIj4mI3hhOyAgIDwvc3RvcD4mI3hhOyAgPC9saW5lYXJHcmFkaWVudD4mI3hhOyAgPHBhdGggZD0iTTEwOC4zLDE3LjNjLTIuNS0wLjQtOC0wLjUtMTguOSwxLjhjLTEuMywwLjMtMi42LDAuNS0zLjksMC40Yy0xLjQtMC4yLTIuOS0wLjUtNC4yLTAuOSYjMTA7JiM5OyYjOTtjLTYtMi4xLTEwLjktMS40LTEzLjgsMC4xYy0xLjcsMC45LTMuMiwyLjMtNC4zLDMuOWMtMS44LDIuNS01LjYsMTAtMTAuNywxMmMtMi45LDEuOS02LDMuOC04LjgsNi42Yy0xLjcsMS44LTIuMiw2LjEtNi44LDEwLjMmIzEwOyYjOTsmIzk7Yy00LjUsNi43LTEwLjIsMTIuNS0xNi45LDE3Yy04LjYsNi4xLTE1LjksOC0xNS45LDhzMTkuMiw1LjQsNDAuMi00LjdjMTYtNy43LDI0LjMtMjIuNiwyNi4yLTI1LjlMODEsMjhjMC45LTEuNiwyLjYtMy44LDQuMi00LjYmIzEwOyYjOTsmIzk7YzAuNS0wLjMsMS0wLjUsMS4xLTAuNmMxLjItMC42LDIuNC0xLjEsMy42LTEuNWM3LjMtMi43LDE0LjktMi45LDE4LjQtMy4zQzEwOC43LDE3LjksMTA4LjcsMTcuNCwxMDguMywxNy4zeiIgY2xhc3M9InN0MCI+JiN4YTsgIDwvcGF0aD4mI3hhOyAgPGxpbmVhckdyYWRpZW50IGdyYWRpZW50VHJhbnNmb3JtPSJtYXRyaXgoMSAwIDAgLTEgMCAxMTIuMzA1NSkiIHkyPSI2OS40MjYiIHgyPSIxMDEuNzc1OCIgeTE9Ijk3LjkwMDIiIHgxPSItMy4zODcyIiBncmFkaWVudFVuaXRzPSJ1c2VyU3BhY2VPblVzZSIgaWQ9IlNWR0lEXzJfIj4mI3hhOyAgIDxzdG9wIHN0eWxlPSJzdG9wLWNvbG9yOiMzRDY1QUYiIG9mZnNldD0iOC4xOTkwMDBlLTAyIj4mI3hhOyAgIDwvc3RvcD4mI3hhOyAgIDxzdG9wIHN0eWxlPSJzdG9wLWNvbG9yOiMyMzcyQjgiIG9mZnNldD0iMC4yMzA1Ij4mI3hhOyAgIDwvc3RvcD4mI3hhOyAgIDxzdG9wIHN0eWxlPSJzdG9wLWNvbG9yOiMwMEI4QkIiIG9mZnNldD0iMC41MDU4Ij4mI3hhOyAgIDwvc3RvcD4mI3hhOyAgPC9saW5lYXJHcmFkaWVudD4mI3hhOyAgPHBhdGggZD0iTTEwOC4zLDE3LjNjLTIuNS0wLjQtOC0wLjUtMTguOSwxLjhjLTEuMywwLjMtMi42LDAuNS0zLjksMC40Yy0xLjQtMC4yLTIuOS0wLjUtNC4yLTAuOSYjMTA7JiM5OyYjOTtjLTYuMS0yLjEtMTAuOC0xLjUtMTMuOCwwLjFjLTEuNywwLjktMy4yLDIuMy00LjMsMy45Yy0xLjgsMi41LTUuNiwxMC0xMC43LDEyYy01LjgtNS41LTEwLjktMTAuMi0xNS44LTE0LjMmIzEwOyYjOTsmIzk7Yy0yLjgtMi4yLTUuNS00LjQtNy44LTUuOWMtNS43LTQtMTEuNi03LjYtMTcuOC0xMC43QzguMywyLjUsNS41LDEuNCwyLjQsMC4yQzEuMS0wLjIsMC4zLDAuNCwwLjEsMS41QzAsMS44LTAuMSwyLjgsMC41LDQuNCYjMTA7JiM5OyYjOTtDMiw4LjYsMy45LDEyLjYsNi4xLDE2LjVDNywxOC4xLDgsMTkuNyw5LDIxLjRjNC45LDcuOCwxMC42LDE1LDE3LDIxLjRjMS4zLDEuMywyLjYsMi41LDQsMy42YzEuNywxLjQsMy40LDIuNyw1LjIsMy45JiMxMDsmIzk7JiM5O2MwLjIsMC4xLDEsMC42LDEuNiwxYzEuMiwwLjYsMi43LDEuNCwzLjcsMS44YzQsMS45LDguNCwyLjgsMTIuOCwyLjhjNi40LDAuMiwxMS42LTEuOSwxNC4yLTUuNGMxLjEtMS41LDIuMS0zLDMtNC42TDgxLDI4JiMxMDsmIzk7JiM5O2MwLjktMS42LDIuNi0zLjgsNC4yLTQuNmMwLjUtMC4zLDEtMC41LDEuMS0wLjZjMS4xLTAuNSwxLjEtMC40LDIuMy0wLjhjNy40LTIuNywxNi4zLTMuNiwxOS44LTRjMC4xLDAsMC4xLDAsMC4yLTAuMSYjMTA7JiM5OyYjOTtjMC4xLTAuMSwwLjEtMC4xLDAuMS0wLjJjMC0wLjEsMC0wLjItMC4xLTAuMkMxMDguNSwxNy40LDEwOC40LDE3LjMsMTA4LjMsMTcuM3oiIGNsYXNzPSJzdDEiPiYjeGE7ICA8L3BhdGg+JiN4YTsgIDxsaW5lYXJHcmFkaWVudCBncmFkaWVudFRyYW5zZm9ybT0ibWF0cml4KDEgMCAwIC0xIDAgMTEyLjMwNTUpIiB5Mj0iOTQuOTU2IiB4Mj0iNTcuMDg2IiB5MT0iMTEwLjQyNDMiIHgxPSItNC4yNDAwODBlLTAyIiBncmFkaWVudFVuaXRzPSJ1c2VyU3BhY2VPblVzZSIgaWQ9IlNWR0lEXzNfIj4mI3hhOyAgIDxzdG9wIHN0eWxlPSJzdG9wLWNvbG9yOiMwMDAwMDAiIG9mZnNldD0iMC4xMjk3Ij4mI3hhOyAgIDwvc3RvcD4mI3hhOyAgIDxzdG9wIHN0eWxlPSJzdG9wLWNvbG9yOiMwMDMzNEIiIG9mZnNldD0iMC4zMjc3Ij4mI3hhOyAgIDwvc3RvcD4mI3hhOyAgIDxzdG9wIHN0eWxlPSJzdG9wLWNvbG9yOiMwMDYxOTAiIG9mZnNldD0iMC41Mjc2Ij4mI3hhOyAgIDwvc3RvcD4mI3hhOyAgIDxzdG9wIHN0eWxlPSJzdG9wLWNvbG9yOiMwMDdGQkIiIG9mZnNldD0iMC42NzIzIj4mI3hhOyAgIDwvc3RvcD4mI3hhOyAgIDxzdG9wIHN0eWxlPSJzdG9wLWNvbG9yOiMwMDhBQ0MiIG9mZnNldD0iMC43NDU3Ij4mI3hhOyAgIDwvc3RvcD4mI3hhOyAgPC9saW5lYXJHcmFkaWVudD4mI3hhOyAgPHBhdGggZD0iTTAsMi4xQzAsMiwwLjEsMS44LDAsMS43QzAuMSwxLjgsMC4xLDIsMCwyLjF6IiBjbGFzcz0ic3QyIj4mI3hhOyAgPC9wYXRoPiYjeGE7ICA8bGluZWFyR3JhZGllbnQgZ3JhZGllbnRUcmFuc2Zvcm09Im1hdHJpeCgxIDAgMCAtMSAwIDExMi4zMDU1KSIgeTI9IjExMS4yMzgyIiB4Mj0iNjcuNDkyMyIgeTE9IjExMS4yMzgyIiB4MT0iMTQuMjg2NSIgZ3JhZGllbnRVbml0cz0idXNlclNwYWNlT25Vc2UiIGlkPSJTVkdJRF80XyI+JiN4YTsgICA8c3RvcCBzdHlsZT0ic3RvcC1jb2xvcjojMDAwMDAwIiBvZmZzZXQ9IjAuMTI5NyI+JiN4YTsgICA8L3N0b3A+JiN4YTsgICA8c3RvcCBzdHlsZT0ic3RvcC1jb2xvcjojMDAzMzRCIiBvZmZzZXQ9IjAuMzI3NyI+JiN4YTsgICA8L3N0b3A+JiN4YTsgICA8c3RvcCBzdHlsZT0ic3RvcC1jb2xvcjojMDA2MTkwIiBvZmZzZXQ9IjAuNTI3NiI+JiN4YTsgICA8L3N0b3A+JiN4YTsgICA8c3RvcCBzdHlsZT0ic3RvcC1jb2xvcjojMDA3RkJCIiBvZmZzZXQ9IjAuNjcyMyI+JiN4YTsgICA8L3N0b3A+JiN4YTsgICA8c3RvcCBzdHlsZT0ic3RvcC1jb2xvcjojMDA4QUNDIiBvZmZzZXQ9IjAuNzQ1NyI+JiN4YTsgICA8L3N0b3A+JiN4YTsgIDwvbGluZWFyR3JhZGllbnQ+JiN4YTsgIDxwYXRoIGQ9Ik00LjksMUM0LjgsMSw0LjcsMC45LDQuNiwxQzQuOCwxLDQuOSwxLjEsNS4xLDEuMkM1LjEsMS4xLDUsMS4xLDQuOSwxeiIgY2xhc3M9InN0MyI+JiN4YTsgIDwvcGF0aD4mI3hhOyAgPGxpbmVhckdyYWRpZW50IGdyYWRpZW50VHJhbnNmb3JtPSJtYXRyaXgoMSAwIDAgLTEgMCAxMTIuMzA1NSkiIHkyPSIxMTAuNTAxMSIgeDI9IjYyLjM1NjMiIHkxPSIxMTAuNTAxMSIgeDE9IjE1LjA2MTkiIGdyYWRpZW50VW5pdHM9InVzZXJTcGFjZU9uVXNlIiBpZD0iU1ZHSURfNV8iPiYjeGE7ICAgPHN0b3Agc3R5bGU9InN0b3AtY29sb3I6IzAwMDAwMCIgb2Zmc2V0PSIwLjEyOTciPiYjeGE7ICAgPC9zdG9wPiYjeGE7ICAgPHN0b3Agc3R5bGU9InN0b3AtY29sb3I6IzAwMzM0QiIgb2Zmc2V0PSIwLjMyNzciPiYjeGE7ICAgPC9zdG9wPiYjeGE7ICAgPHN0b3Agc3R5bGU9InN0b3AtY29sb3I6IzAwNjE5MCIgb2Zmc2V0PSIwLjUyNzYiPiYjeGE7ICAgPC9zdG9wPiYjeGE7ICAgPHN0b3Agc3R5bGU9InN0b3AtY29sb3I6IzAwN0ZCQiIgb2Zmc2V0PSIwLjY3MjMiPiYjeGE7ICAgPC9zdG9wPiYjeGE7ICAgPHN0b3Agc3R5bGU9InN0b3AtY29sb3I6IzAwOEFDQyIgb2Zmc2V0PSIwLjc0NTciPiYjeGE7ICAgPC9zdG9wPiYjeGE7ICA8L2xpbmVhckdyYWRpZW50PiYjeGE7ICA8cGF0aCBkPSJNNi43LDEuOGMtMC4xLDAtMC4yLTAuMS0wLjItMC4xYzAuMSwwLjEsMC4zLDAuMSwwLjUsMC4yQzYuOCwxLjgsNi43LDEuOCw2LjcsMS44eiIgY2xhc3M9InN0NCI+JiN4YTsgIDwvcGF0aD4mI3hhOyAgPGxpbmVhckdyYWRpZW50IGdyYWRpZW50VHJhbnNmb3JtPSJtYXRyaXgoMSAwIDAgLTEgMCAxMTIuMzA1NSkiIHkyPSI4NS4wOTQyIiB4Mj0iNTQuMzY4NCIgeTE9Ijk4LjIzMTIiIHgxPSI1Ljg1MDIiIGdyYWRpZW50VW5pdHM9InVzZXJTcGFjZU9uVXNlIiBpZD0iU1ZHSURfNl8iPiYjeGE7ICAgPHN0b3Agc3R5bGU9InN0b3AtY29sb3I6IzI0ODNDNSIgb2Zmc2V0PSIwLjEyOTciPiYjeGE7ICAgPC9zdG9wPiYjeGE7ICAgPHN0b3Agc3R5bGU9InN0b3AtY29sb3I6IzI0ODZDNyIgb2Zmc2V0PSIwLjE2NzIiPiYjeGE7ICAgPC9zdG9wPiYjeGE7ICAgPHN0b3Agc3R5bGU9InN0b3AtY29sb3I6IzI5QjFERiIgb2Zmc2V0PSIwLjY3NiI+JiN4YTsgICA8L3N0b3A+JiN4YTsgICA8c3RvcCBzdHlsZT0ic3RvcC1jb2xvcjojMkJDMkU4IiBvZmZzZXQ9IjAuOTM1MiI+JiN4YTsgICA8L3N0b3A+JiN4YTsgIDwvbGluZWFyR3JhZGllbnQ+JiN4YTsgIDxwYXRoIGQ9Ik00MC43LDM1LjdjMy45LDAuNiw4LDAuMiwxMS43LTEuMmMtMy41LTMuMy02LjgtNi4zLTkuOS05Yy0xLjYtMS40LTMuMS0yLjctNC41LTMuOWMtMC4xLTAuMS0wLjItMC4xLTAuMi0wLjImIzEwOyYjOTsmIzk7Yy0wLjQtMC40LTAuOC0wLjYtMS4xLTAuOWMtMC4xLTAuMS0wLjItMC4yLTAuMi0wLjJDMzMuNywxOCwzMSwxNiwyOC44LDE0LjRDMjIuOSwxMC4zLDE3LDYuNSwxMSwzLjdjLTAuNS0wLjMtMS0wLjUtMS42LTAuOCYjMTA7JiM5OyYjOTtDOS4yLDIuOCw5LjEsMi44LDguOSwyLjdDMzIsMTUuNCwzOS40LDI2LjksNDAuNywzNS43eiIgY2xhc3M9InN0NSI+JiN4YTsgIDwvcGF0aD4mI3hhOyAgPGxpbmVhckdyYWRpZW50IGdyYWRpZW50VHJhbnNmb3JtPSJtYXRyaXgoMSAwIDAgLTEgMCAxMTIuMzA1NSkiIHkyPSIxMDcuMzUwNSIgeDI9IjU2LjMyODQiIHkxPSIxMDcuMzUwNSIgeDE9IjkuMDM0MyIgZ3JhZGllbnRVbml0cz0idXNlclNwYWNlT25Vc2UiIGlkPSJTVkdJRF83XyI+JiN4YTsgICA8c3RvcCBzdHlsZT0ic3RvcC1jb2xvcjojMDAwMDAwIiBvZmZzZXQ9IjAuMTI5NyI+JiN4YTsgICA8L3N0b3A+JiN4YTsgICA8c3RvcCBzdHlsZT0ic3RvcC1jb2xvcjojMDAzMzRCIiBvZmZzZXQ9IjAuMzI3NyI+JiN4YTsgICA8L3N0b3A+JiN4YTsgICA8c3RvcCBzdHlsZT0ic3RvcC1jb2xvcjojMDA2MTkwIiBvZmZzZXQ9IjAuNTI3NiI+JiN4YTsgICA8L3N0b3A+JiN4YTsgICA8c3RvcCBzdHlsZT0ic3RvcC1jb2xvcjojMDA3RkJCIiBvZmZzZXQ9IjAuNjcyMyI+JiN4YTsgICA8L3N0b3A+JiN4YTsgICA8c3RvcCBzdHlsZT0ic3RvcC1jb2xvcjojMDA4QUNDIiBvZmZzZXQ9IjAuNzQ1NyI+JiN4YTsgICA8L3N0b3A+JiN4YTsgIDwvbGluZWFyR3JhZGllbnQ+JiN4YTsgIDxwYXRoIGQ9Ik0wLjksNS41QzAuNyw1LjIsMC42LDQuOCwwLjQsNC40QzAuNiw0LjcsMC43LDUuMSwwLjksNS41eiIgY2xhc3M9InN0NiI+JiN4YTsgIDwvcGF0aD4mI3hhOyAgPGxpbmVhckdyYWRpZW50IGdyYWRpZW50VHJhbnNmb3JtPSJtYXRyaXgoMSAwIDAgLTEgMCAxMTIuMzA1NSkiIHkyPSIxMTAuMDU3MyIgeDI9IjMuNTY2MDUwZS0wMiIgeTE9IjExMC4wNTczIiB4MT0iMy41NjAwNDllLTAyIiBncmFkaWVudFVuaXRzPSJ1c2VyU3BhY2VPblVzZSIgaWQ9IlNWR0lEXzhfIj4mI3hhOyAgIDxzdG9wIHN0eWxlPSJzdG9wLWNvbG9yOiM2ODJDOTAiIG9mZnNldD0iMCI+JiN4YTsgICA8L3N0b3A+JiN4YTsgICA8c3RvcCBzdHlsZT0ic3RvcC1jb2xvcjojODE3Q0I5IiBvZmZzZXQ9IjAuNDk2Ij4mI3hhOyAgIDwvc3RvcD4mI3hhOyAgIDxzdG9wIHN0eWxlPSJzdG9wLWNvbG9yOiNGRkZGRkYiIG9mZnNldD0iMSI+JiN4YTsgICA8L3N0b3A+JiN4YTsgIDwvbGluZWFyR3JhZGllbnQ+JiN4YTsgIDxwYXRoIGQ9Ik0wLDIuM2MwLTAuMSwwLTAuMSwwLjEtMC4xQzAuMSwyLjIsMC4xLDIuMiwwLDIuM3oiIGNsYXNzPSJzdDciPiYjeGE7ICA8L3BhdGg+JiN4YTsgIDxsaW5lYXJHcmFkaWVudCBncmFkaWVudFRyYW5zZm9ybT0ibWF0cml4KDEgMCAwIC0xIDAgMTEyLjMwNTUpIiB5Mj0iMTExLjc2NzUiIHgyPSIxMTcuNjUyNSIgeTE9IjExMS43Njc1IiB4MT0iMjI4LjQ0MzMiIGdyYWRpZW50VW5pdHM9InVzZXJTcGFjZU9uVXNlIiBpZD0iU1ZHSURfOV8iPiYjeGE7ICAgPHN0b3Agc3R5bGU9InN0b3AtY29sb3I6IzY4MkM5MCIgb2Zmc2V0PSIwIj4mI3hhOyAgIDwvc3RvcD4mI3hhOyAgIDxzdG9wIHN0eWxlPSJzdG9wLWNvbG9yOiM4MTdDQjkiIG9mZnNldD0iMC40OTYiPiYjeGE7ICAgPC9zdG9wPiYjeGE7ICAgPHN0b3Agc3R5bGU9InN0b3AtY29sb3I6I0ZGRkZGRiIgb2Zmc2V0PSIxIj4mI3hhOyAgIDwvc3RvcD4mI3hhOyAgPC9saW5lYXJHcmFkaWVudD4mI3hhOyAgPHBhdGggZD0iTTIuNSwwLjFDMy4yLDAuNCwzLjksMC43LDQuNiwxQzMuOSwwLjcsMy4yLDAuNCwyLjUsMC4xeiIgY2xhc3M9InN0OCI+JiN4YTsgIDwvcGF0aD4mI3hhOyAgPGxpbmVhckdyYWRpZW50IGdyYWRpZW50VHJhbnNmb3JtPSJtYXRyaXgoMSAwIDAgLTEgMCAxMTIuMzA1NSkiIHkyPSIxMDguOTY5NyIgeDI9IjIxLjc4NzEiIHkxPSIxMDguOTY5NyIgeDE9IjQyLjc0NzgiIGdyYWRpZW50VW5pdHM9InVzZXJTcGFjZU9uVXNlIiBpZD0iU1ZHSURfMTBfIj4mI3hhOyAgIDxzdG9wIHN0eWxlPSJzdG9wLWNvbG9yOiM2ODJDOTAiIG9mZnNldD0iMCI+JiN4YTsgICA8L3N0b3A+JiN4YTsgICA8c3RvcCBzdHlsZT0ic3RvcC1jb2xvcjojODE3Q0I5IiBvZmZzZXQ9IjAuNDk2Ij4mI3hhOyAgIDwvc3RvcD4mI3hhOyAgIDxzdG9wIHN0eWxlPSJzdG9wLWNvbG9yOiNGRkZGRkYiIG9mZnNldD0iMSI+JiN4YTsgICA8L3N0b3A+JiN4YTsgIDwvbGluZWFyR3JhZGllbnQ+JiN4YTsgIDxwYXRoIGQ9Ik0wLDIuM0MwLDMsMC4yLDMuNywwLjQsNC40QzAuMiwzLjcsMCwzLDAsMi4zeiIgY2xhc3M9InN0OSI+JiN4YTsgIDwvcGF0aD4mI3hhOyAgPGxpbmVhckdyYWRpZW50IGdyYWRpZW50VHJhbnNmb3JtPSJtYXRyaXgoMSAwIDAgLTEgMCAxMTIuMzA1NSkiIHkyPSIxMDkuOTcxMiIgeDI9IjExNS44MzIyIiB5MT0iMTA5Ljk3MTIiIHgxPSIyMjAuNjM1IiBncmFkaWVudFVuaXRzPSJ1c2VyU3BhY2VPblVzZSIgaWQ9IlNWR0lEXzExXyI+JiN4YTsgICA8c3RvcCBzdHlsZT0ic3RvcC1jb2xvcjojNjgyQzkwIiBvZmZzZXQ9IjAiPiYjeGE7ICAgPC9zdG9wPiYjeGE7ICAgPHN0b3Agc3R5bGU9InN0b3AtY29sb3I6IzgxN0NCOSIgb2Zmc2V0PSIwLjQ5NiI+JiN4YTsgICA8L3N0b3A+JiN4YTsgICA8c3RvcCBzdHlsZT0ic3RvcC1jb2xvcjojRkZGRkZGIiBvZmZzZXQ9IjEiPiYjeGE7ICAgPC9zdG9wPiYjeGE7ICA8L2xpbmVhckdyYWRpZW50PiYjeGE7ICA8cGF0aCBkPSJNOC42LDIuNmwwLjMsMC4yYy0wLjYtMC4zLTEuMy0wLjYtMi0wLjlDNy4xLDIsNy4zLDIuMSw3LjUsMi4yQzcuOSwyLjMsOC4yLDIuNCw4LjYsMi42eiIgY2xhc3M9InN0MTAiPiYjeGE7ICA8L3BhdGg+JiN4YTsgIDxsaW5lYXJHcmFkaWVudCBncmFkaWVudFRyYW5zZm9ybT0ibWF0cml4KDEgMCAwIC0xIDAgMTEyLjMwNTUpIiB5Mj0iNzcuMzc3MiIgeDI9IjQyLjY3MSIgeTE9Ijg5LjkyNTQiIHgxPSItMy42NzI3IiBncmFkaWVudFVuaXRzPSJ1c2VyU3BhY2VPblVzZSIgaWQ9IlNWR0lEXzEyXyI+JiN4YTsgICA8c3RvcCBzdHlsZT0ic3RvcC1jb2xvcjojM0I2N0FEIiBvZmZzZXQ9IjAuMTI5NyI+JiN4YTsgICA8L3N0b3A+JiN4YTsgICA8c3RvcCBzdHlsZT0ic3RvcC1jb2xvcjojMjI3Q0FBIiBvZmZzZXQ9IjAuNTY5NyI+JiN4YTsgICA8L3N0b3A+JiN4YTsgICA8c3RvcCBzdHlsZT0ic3RvcC1jb2xvcjojMTE4QUE4IiBvZmZzZXQ9IjAuOTM1MiI+JiN4YTsgICA8L3N0b3A+JiN4YTsgIDwvbGluZWFyR3JhZGllbnQ+JiN4YTsgIDxwYXRoIGQ9Ik0xNS40LDIzLjNDOS4yLDE4LjMsMy40LDExLjIsMC45LDUuNmM1LjgsMTQuOSwyMC45LDM2LDM0LjMsNDQuOGMwLjIsMC4yLDEsMC42LDEuNywxJiMxMDsmIzk7JiM5O2MxLjctMi43LDQuOS04LjMsMy44LTE1LjdDMzIuNCwzNC42LDIzLjUsMzAsMTUuNCwyMy4zeiIgY2xhc3M9InN0MTEiPiYjeGE7ICA8L3BhdGg+JiN4YTsgIDxsaW5lYXJHcmFkaWVudCBncmFkaWVudFRyYW5zZm9ybT0ibWF0cml4KDEgMCAwIC0xIDAgMTEyLjMwNTUpIiB5Mj0iMTEwLjg1NSIgeDI9IjcwLjU3NzQiIHkxPSIxMTAuODU1IiB4MT0iMTMzLjQ1OTIiIGdyYWRpZW50VW5pdHM9InVzZXJTcGFjZU9uVXNlIiBpZD0iU1ZHSURfMTNfIj4mI3hhOyAgIDxzdG9wIHN0eWxlPSJzdG9wLWNvbG9yOiM2ODJDOTAiIG9mZnNldD0iMCI+JiN4YTsgICA8L3N0b3A+JiN4YTsgICA8c3RvcCBzdHlsZT0ic3RvcC1jb2xvcjojODE3Q0I5IiBvZmZzZXQ9IjAuNDk2Ij4mI3hhOyAgIDwvc3RvcD4mI3hhOyAgIDxzdG9wIHN0eWxlPSJzdG9wLWNvbG9yOiNGRkZGRkYiIG9mZnNldD0iMSI+JiN4YTsgICA8L3N0b3A+JiN4YTsgIDwvbGluZWFyR3JhZGllbnQ+JiN4YTsgIDxwYXRoIGQ9Ik02LjQsMS43TDUuMiwxLjJjMC4xLDAsMC4xLDAuMSwwLjIsMC4xQzUuNywxLjQsNiwxLjUsNi40LDEuN3oiIGNsYXNzPSJzdDEyIj4mI3hhOyAgPC9wYXRoPiYjeGE7ICA8bGluZWFyR3JhZGllbnQgZ3JhZGllbnRUcmFuc2Zvcm09Im1hdHJpeCgxIDAgMCAtMSAwIDExMi4zMDU1KSIgeTI9Ijk0LjQ4NjciIHgyPSI0OTAwLjExOTEiIHkxPSI5NC40ODY3IiB4MT0iNzU1Ljk2NTIiIGdyYWRpZW50VW5pdHM9InVzZXJTcGFjZU9uVXNlIiBpZD0iU1ZHSURfMTRfIj4mI3hhOyAgIDxzdG9wIHN0eWxlPSJzdG9wLWNvbG9yOiMwMDAwMDAiIG9mZnNldD0iMC4xMjk3Ij4mI3hhOyAgIDwvc3RvcD4mI3hhOyAgIDxzdG9wIHN0eWxlPSJzdG9wLWNvbG9yOiMwMDMzNEIiIG9mZnNldD0iMC4zMjc3Ij4mI3hhOyAgIDwvc3RvcD4mI3hhOyAgIDxzdG9wIHN0eWxlPSJzdG9wLWNvbG9yOiMwMDYxOTAiIG9mZnNldD0iMC41Mjc2Ij4mI3hhOyAgIDwvc3RvcD4mI3hhOyAgIDxzdG9wIHN0eWxlPSJzdG9wLWNvbG9yOiMwMDdGQkIiIG9mZnNldD0iMC42NzIzIj4mI3hhOyAgIDwvc3RvcD4mI3hhOyAgIDxzdG9wIHN0eWxlPSJzdG9wLWNvbG9yOiMwMDhBQ0MiIG9mZnNldD0iMC43NDU3Ij4mI3hhOyAgIDwvc3RvcD4mI3hhOyAgPC9saW5lYXJHcmFkaWVudD4mI3hhOyAgPHBhdGggZD0iTTE1LjQsMjMuM2M4LjEsNi43LDE3LDExLjIsMjUuMywxMi4zQzM5LjQsMjYuOSwzMiwxNS4zLDguOSwyLjhjLTAuMSwwLTAuMi0wLjEtMC4zLTAuMiYjMTA7JiM5OyYjOTtjLTAuMy0wLjItMC43LTAuMy0xLTAuNUM3LjQsMiw3LjIsMiw3LDEuOEM2LjgsMS44LDYuNywxLjcsNi41LDEuN0M2LjEsMS41LDUuOCwxLjMsNS40LDEuMmMtMC4xLDAtMC4xLTAuMS0wLjItMC4xJiMxMDsmIzk7JiM5O0M1LDEuMSw0LjksMSw0LjcsMUM0LDAuNywzLjMsMC40LDIuNiwwLjFDMS4yLTAuMywwLjUsMC40LDAuMiwxLjRjMCwwLjEsMCwwLjItMC4xLDAuNGMtMC4xLDAuMSwwLDAuMywwLDAuNWMwLDAuMSwwLDAuMS0wLjEsMC4xJiMxMDsmIzk7JiM5O2MwLDAuNywwLjIsMS40LDAuNCwyLjFjMC4xLDAuNCwwLjMsMC44LDAuNSwxLjJDMy40LDExLjIsOS4zLDE4LjMsMTUuNCwyMy4zeiIgY2xhc3M9InN0MTMiPiYjeGE7ICA8L3BhdGg+JiN4YTsgIDxsaW5lYXJHcmFkaWVudCBncmFkaWVudFRyYW5zZm9ybT0ibWF0cml4KDEgMCAwIC0xIDAgMTEyLjMwNTUpIiB5Mj0iODguMjU4MSIgeDI9IjQzLjg0MjgiIHkxPSIxMDAuODQzNiIgeDE9Ii0yLjYzODUiIGdyYWRpZW50VW5pdHM9InVzZXJTcGFjZU9uVXNlIiBpZD0iU1ZHSURfMTVfIj4mI3hhOyAgIDxzdG9wIHN0eWxlPSJzdG9wLWNvbG9yOiMzQTY3QjAiIG9mZnNldD0iMC4xMjk3Ij4mI3hhOyAgIDwvc3RvcD4mI3hhOyAgIDxzdG9wIHN0eWxlPSJzdG9wLWNvbG9yOiMzNTdGQkQiIG9mZnNldD0iMC41NjIyIj4mI3hhOyAgIDwvc3RvcD4mI3hhOyAgIDxzdG9wIHN0eWxlPSJzdG9wLWNvbG9yOiMzMjkwQzYiIG9mZnNldD0iMC45MzUyIj4mI3hhOyAgIDwvc3RvcD4mI3hhOyAgPC9saW5lYXJHcmFkaWVudD4mI3hhOyAgPHBhdGggZD0iTTE1LjQsMjMuM2M4LjEsNi43LDE3LDExLjIsMjUuMywxMi4zQzM5LjQsMjYuOSwzMiwxNS4zLDguOSwyLjhjLTAuMSwwLTAuMi0wLjEtMC4zLTAuMiYjMTA7JiM5OyYjOTtjLTAuMy0wLjItMC43LTAuMy0xLTAuNUM3LjQsMiw3LjIsMiw3LDEuOEM2LjgsMS44LDYuNywxLjcsNi41LDEuN0M2LjEsMS41LDUuOCwxLjMsNS40LDEuMmMtMC4xLDAtMC4xLTAuMS0wLjItMC4xJiMxMDsmIzk7JiM5O0M1LDEuMSw0LjksMSw0LjcsMUM0LDAuNywzLjMsMC40LDIuNiwwLjFDMS4yLTAuMywwLjUsMC40LDAuMiwxLjRjMCwwLjEsMCwwLjItMC4xLDAuNGMtMC4xLDAuMSwwLDAuMywwLDAuNWMwLDAuMSwwLDAuMS0wLjEsMC4xJiMxMDsmIzk7JiM5O2MwLDAuNywwLjIsMS40LDAuNCwyLjFjMC4xLDAuNCwwLjMsMC44LDAuNSwxLjJDMy40LDExLjIsOS4zLDE4LjMsMTUuNCwyMy4zeiIgY2xhc3M9InN0MTQiPiYjeGE7ICA8L3BhdGg+JiN4YTsgIDxsaW5lYXJHcmFkaWVudCBncmFkaWVudFRyYW5zZm9ybT0ibWF0cml4KDEgMCAwIC0xIDAgMTEyLjMwNTUpIiB5Mj0iNzguNDIyMyIgeDI9IjEwNC4yMzE5IiB5MT0iOTEuNDM5MyIgeDE9IjU2LjE1NzEiIGdyYWRpZW50VW5pdHM9InVzZXJTcGFjZU9uVXNlIiBpZD0iU1ZHSURfMTZfIj4mI3hhOyAgIDxzdG9wIHN0eWxlPSJzdG9wLWNvbG9yOiM0RTVDQTgiIG9mZnNldD0iMC4xNzI0Ij4mI3hhOyAgIDwvc3RvcD4mI3hhOyAgIDxzdG9wIHN0eWxlPSJzdG9wLWNvbG9yOiMxRkMzRjMiIG9mZnNldD0iMC45OTM3Ij4mI3hhOyAgIDwvc3RvcD4mI3hhOyAgPC9saW5lYXJHcmFkaWVudD4mI3hhOyAgPHBhdGggZD0iTTEwOC4zLDE3LjNjLTIuNS0wLjQtOC0wLjUtMTguOSwxLjhjLTEuMywwLjMtMi42LDAuNS0zLjksMC40Yy0xLjQtMC4yLTIuOS0wLjUtNC4yLTAuOSYjMTA7JiM5OyYjOTtjLTIuOC0xLTUuOC0xLjUtOC44LTEuNGMtMi4xLDAuMS00LDAuOC01LjcsMmMtMS40LDAuOS0yLjUsMi4xLTMuNSwzLjRjLTEuOCwyLjUtNS42LDEwLTEwLjcsMTJjNC4xLDMuOSwxMC4zLDcuMSwxNi4yLDUuMiYjMTA7JiM5OyYjOTtjNS42LTEuOSw5LjEtNi45LDEwLjItOC42YzEuMS0xLjcsMi40LTMuNCwzLjctNC45YzEuOS0yLDQuMy0zLjUsNi45LTQuNGM2LjYtMi4yLDE2LjYtMy42LDE5LTMuOCYjMTA7JiM5OyYjOTtDMTA4LjcsMTcuOSwxMDguNywxNy40LDEwOC4zLDE3LjN6IiBjbGFzcz0ic3QxNSI+JiN4YTsgIDwvcGF0aD4mI3hhOyAgPHBhdGggZD0iTTc1LjksMjUuNWMxLDAsMS43LTAuOCwxLjctMS44YzAtMS0wLjgtMS44LTEuNy0xLjhjLTEsMC0xLjcsMC44LTEuNywxLjhDNzQuMiwyNC43LDc0LjksMjUuNSw3NS45LDI1LjV6IiBjbGFzcz0ic3QxNiI+JiN4YTsgIDwvcGF0aD4mI3hhOyAgPHBhdGggZD0iTTE3NC40LDQ3LjZjLTMuNSwwLTYuOCwxLjQtOS4yLDMuOWMtMi40LDIuNS0zLjgsNS45LTMuOCw5LjR2My45YzAsMy41LDEuNCw2LjksMy44LDkuNCYjMTA7JiM5OyYjOTtjMi40LDIuNSw1LjgsMy45LDkuMiwzLjloOC4zdi00LjhoLTguM2MtMi4xLDAtNC4yLTAuOC01LjctMi4zYy0xLjUtMS41LTIuNS0zLjUtMi42LTUuNmgxN2MwLjYsMCwxLjEtMC4xLDEuNi0wLjMmIzEwOyYjOTsmIzk7YzAuNS0wLjIsMS0wLjUsMS40LTAuOWMwLjQtMC40LDAuNy0wLjksMC45LTEuNGMwLjItMC41LDAuMy0xLjEsMC4zLTEuN2MwLTEuNy0wLjMtMy41LTEtNS4xYy0wLjYtMS42LTEuNi0zLjEtMi44LTQuMyYjMTA7JiM5OyYjOTtjLTEuMi0xLjItMi42LTIuMi00LjItMi45QzE3Ny44LDQ3LjksMTc2LjEsNDcuNiwxNzQuNCw0Ny42eiBNMTY2LjEsNjAuM2MwLjEtMi4xLDEtNC4yLDIuNi01LjZjMS41LTEuNSwzLjYtMi4zLDUuNy0yLjMmIzEwOyYjOTsmIzk7YzIuMSwwLDQuMiwwLjgsNS43LDIuM2MxLjUsMS41LDIuNSwzLjUsMi42LDUuNkgxNjYuMXoiIGNsYXNzPSJzdDE2Ij4mI3hhOyAgPC9wYXRoPiYjeGE7ICA8cGF0aCBkPSJNMTA0LjYsNDIuN2gzLjV2LTQuOGgtMy41Yy0xLjMsMC0yLjYsMC4zLTMuOCwwLjhjLTEuMiwwLjUtMi4zLDEuMy0zLjIsMi4zYy0xLjgsMS45LTIuOSw0LjUtMi45LDcuMnYwLjYmIzEwOyYjOTsmIzk7aC0yLjh2NC44aDIuOHYyNC4zaDQuOFY1My42aDYuNHYtNC44aC02LjR2LTAuNkM5OS41LDQ1LjMsMTAxLjksNDIuNywxMDQuNiw0Mi43eiIgY2xhc3M9InN0MTYiPiYjeGE7ICA8L3BhdGg+JiN4YTsgIDxwYXRoIGQ9Ik0xMjAuMywzOGgtNC44djQwaDQuOFYzOHoiIGNsYXNzPSJzdDE2Ij4mI3hhOyAgPC9wYXRoPiYjeGE7ICA8cGF0aCBkPSJNMjc4LjMsNDcuNmgtNC44djMwLjNoNC44VjQ3LjZ6IiBjbGFzcz0ic3QxNyI+JiN4YTsgIDwvcGF0aD4mI3hhOyAgPHBhdGggZD0iTTE0OC45LDY1LjZjMCwyLTAuOCwzLjktMi4yLDUuNGMtMS40LDEuNC0zLjMsMi4yLTUuMywyLjJzLTMuOS0wLjgtNS4zLTIuMmMtMS40LTEuNC0yLjItMy40LTIuMi01LjR2LTE4JiMxMDsmIzk7JiM5O2gtNC42djE4YzAsMy4zLDEuMyw2LjQsMy42LDguN2MyLjMsMi4zLDUuNCwzLjYsOC42LDMuNmMzLjIsMCw2LjMtMS4zLDguNi0zLjZjMi4zLTIuMywzLjYtNS41LDMuNi04Ljd2LTE4aC00LjhWNjUuNnoiIGNsYXNzPSJzdDE2Ij4mI3hhOyAgPC9wYXRoPiYjeGE7ICA8cGF0aCBkPSJNMjA0LjMsNDcuNmMtMy4yLDAtNi4zLDEuMy04LjYsMy42Yy0yLjMsMi4zLTMuNiw1LjUtMy42LDguN3YxOGg0Ljh2LTE4YzAtMiwwLjgtMy45LDIuMi01LjQmIzEwOyYjOTsmIzk7YzEuNC0xLjQsMy4zLTIuMiw1LjMtMi4yYzIsMCwzLjksMC44LDUuMywyLjJjMS40LDEuNCwyLjIsMy40LDIuMiw1LjR2MThoNC44di0xOGMtMC4xLTMuMy0xLjQtNi40LTMuNy04LjcmIzEwOyYjOTsmIzk7QzIxMC42LDQ4LjksMjA3LjUsNDcuNiwyMDQuMyw0Ny42eiIgY2xhc3M9InN0MTYiPiYjeGE7ICA8L3BhdGg+JiN4YTsgIDxwYXRoIGQ9Ik0yMzAuMSw2Ny43VjUyLjRoNi40di00LjhoLTYuNFYzOGgtNC43djkuN2gtNC4ydjQuOGg0LjJ2MTUuM2MwLDIuNywxLDUuMiwyLjksNy4xczQuMywyLjksNywyLjloMi4xdi00LjgmIzEwOyYjOTsmIzk7aC0yLjFjLTEuNCwwLTIuNy0wLjYtMy42LTEuNUMyMzAuNiw3MC40LDIzMC4xLDY5LjEsMjMwLjEsNjcuN3oiIGNsYXNzPSJzdDE2Ij4mI3hhOyAgPC9wYXRoPiYjeGE7ICA8cGF0aCBkPSJNMjkzLjYsNjcuN1Y1Mi40aDYuNHYtNC44aC02LjRWMzhoLTQuOHY5LjdoLTQuMnY0LjhoNC4ydjE1LjNjMCwyLjcsMSw1LjIsMi45LDcuMWMxLjgsMS45LDQuMywyLjksNywyLjkmIzEwOyYjOTsmIzk7aDIuMXYtNC44aC0yLjFjLTEuNCwwLTIuNy0wLjYtMy42LTEuNkMyOTQuMSw3MC40LDI5My42LDY5LjEsMjkzLjYsNjcuN3oiIGNsYXNzPSJzdDE3Ij4mI3hhOyAgPC9wYXRoPiYjeGE7ICA8cGF0aCBkPSJNMjQ3LjMsMzh2MTIuM2MyLjEtMS43LDQuOC0yLjYsNy41LTIuNmMzLjIsMCw2LjMsMS4zLDguNiwzLjZjMi4zLDIuMywzLjYsNS41LDMuNiw4Ljd2NS42JiMxMDsmIzk7JiM5O2MwLDMuMy0xLjMsNi40LTMuNiw4LjdjLTIuMywyLjMtNS40LDMuNi04LjYsMy42cy02LjMtMS4zLTguNi0zLjZjLTIuMy0yLjMtMy42LTUuNS0zLjYtOC43VjM4SDI0Ny4zeiBNMjQ3LjMsNjIuNnYyLjkmIzEwOyYjOTsmIzk7YzAsMiwwLjgsMy45LDIuMiw1LjRjMS40LDEuNCwzLjMsMi4yLDUuMywyLjJjMiwwLDMuOS0wLjgsNS4zLTIuMmMxLjQtMS40LDIuMi0zLjQsMi4yLTUuNFY2MGMwLTItMC44LTMuOS0yLjItNS40JiMxMDsmIzk7JiM5O2MtMS40LTEuNC0zLjMtMi4yLTUuMy0yLjJjLTIsMC0zLjksMC44LTUuMywyLjJjLTEuNCwxLjQtMi4yLDMuNC0yLjIsNS40VjYyLjZ6IiBjbGFzcz0ic3QxNyI+JiN4YTsgIDwvcGF0aD4mI3hhOyA8L2c+JiN4YTs8L3N2Zz4=;clipPath=inset(0% 0% 0% 0%);" vertex="1" parent="1">
          <mxGeometry x="602.85" y="346.19" width="147.15" height="38.26" as="geometry" />
        </mxCell>
        <mxCell id="J4eak5XjC7vP3URmlibT-81" value="monitoring stack" style="rounded=1;whiteSpace=wrap;html=1;" vertex="1" parent="1">
          <mxGeometry x="700" y="334" width="120" height="22" as="geometry" />
        </mxCell>
        <mxCell id="J4eak5XjC7vP3URmlibT-82" value="" style="shape=image;html=1;verticalAlign=top;verticalLabelPosition=bottom;labelBackgroundColor=#ffffff;imageAspect=0;aspect=fixed;image=https://cdn1.iconfinder.com/data/icons/fruit-136/64/Fruit_iconfree_Filled_Outline_raspberry-healthy-organic-food-fruit_icon-128.png" vertex="1" parent="1">
          <mxGeometry x="910" y="292.39" width="63.61" height="63.61" as="geometry" />
        </mxCell>
      </root>
    </mxGraphModel>
  </diagram>
</mxfile>
